<?xml version="1.0" standalone="no"?>
<!DOCTYPE svg PUBLIC "-//W3C//DTD SVG 1.1//EN" "http://www.w3.org/Graphics/SVG/1.1/DTD/svg11.dtd" >
<svg xmlns="http://www.w3.org/2000/svg" xmlns:xlink="http://www.w3.org/1999/xlink" version="1.1">
<metadata>
Created by FontForge 20190801 at Fri Dec  5 23:13:06 2014
 By Jimmy Wärting
Copyright (c) 2008 by Fonthead Design Inc.. All rights reserved.
</metadata>
<defs>
<font id="TachyonW00-Light" horiz-adv-x="1100" >
  <font-face 
    font-family="TachyonW00-Light"
    font-weight="400"
    font-stretch="normal"
    units-per-em="1000"
    panose-1="2 0 0 0 0 0 0 0 0 0"
    ascent="800"
    descent="-200"
    x-height="549"
    cap-height="700"
    bbox="-126 -227 1680 954"
    underline-thickness="50"
    underline-position="-175"
    unicode-range="U+0020-2122"
  />
<missing-glyph horiz-adv-x="446" 
 />
    <glyph glyph-name=".notdef" horiz-adv-x="446" 
 />
    <glyph glyph-name=".null" horiz-adv-x="0" 
 />
    <glyph glyph-name="nonmarkingreturn" horiz-adv-x="333" 
 />
    <glyph glyph-name="space" unicode=" " horiz-adv-x="550" 
 />
    <glyph glyph-name="exclam" unicode="!" horiz-adv-x="195" 
d="M0 700h95v-549h-95v549zM0 95h95v-95h-95v95z" />
    <glyph glyph-name="quotedbl" unicode="&#x22;" horiz-adv-x="383" 
d="M0 700h95v-264h-95v264zM189 700h94v-264h-94v264z" />
    <glyph glyph-name="numbersign" unicode="#" horiz-adv-x="723" 
d="M472 549h151v-95h-151v-133h151v-94h-151v-151h-94v151h-133v-151h-94v151h-151v94h151v133h-151v95h151v151h94v-151h133v151h94v-151zM378 454h-133v-133h133v133z" />
    <glyph glyph-name="dollar" unicode="$" horiz-adv-x="798" 
d="M698 625v-95h-302v-132h142q33 0 62.5 -13t51 -34.5t34 -51t12.5 -62.5t-12.5 -62.5t-34 -51.5t-51 -34.5t-62.5 -12.5h-142v-76h-95v76h-301v95h301v132h-141q-33 0 -62 12.5t-51 34.5t-34.5 51.5t-12.5 62.5t12.5 62.5t34.5 51t51 34.5t62 13h141v75h95v-75h302z
M396 303v-132h142q27 0 46.5 19t19.5 47q0 27 -19.5 46.5t-46.5 19.5h-142zM301 530h-141q-26 0 -46.5 -19.5t-20.5 -46.5q0 -28 20.5 -47t46.5 -19h141v132z" />
    <glyph glyph-name="percent" unicode="%" 
d="M398 502q0 -26 -10 -48t-26.5 -39t-39.5 -26.5t-48 -9.5h-151q-26 0 -48 9.5t-39 26.5t-26.5 39t-9.5 48v76q0 25 9.5 47.5t26.5 39t39 26t48 9.5h151q25 0 48 -9.5t39.5 -26t26.5 -39t10 -47.5v-76zM302 578q0 11 -8 19t-20 8h-151q-12 0 -20 -8t-8 -19v-76
q0 -12 8 -20.5t20 -8.5h151q12 0 20 8.5t8 20.5v76zM878 321q25 0 47.5 -9.5t39 -26.5t26 -39.5t9.5 -47.5v-75q0 -26 -9.5 -48t-26 -39t-39 -26.5t-47.5 -9.5h-151q-26 0 -48 9.5t-38.5 26.5t-26 39t-9.5 48v75q0 25 9.5 47.5t26 39.5t38.5 26.5t48 9.5h151zM906 198
q0 12 -8.5 20.5t-19.5 8.5h-151q-11 0 -19.5 -8.5t-8.5 -20.5v-75q0 -12 8.5 -20t19.5 -8h151q11 0 19.5 8t8.5 20v75zM692 700l-279 -700h-103l280 700h102z" />
    <glyph glyph-name="ampersand" unicode="&#x26;" 
d="M850 398h150v-95h-150v-303h-652q-41 0 -77 15.5t-63 42.5t-42.5 63t-15.5 77q0 46 19.5 85t51.5 68q-32 27 -51.5 66t-19.5 85q0 41 15.5 77t42.5 63t63 42.5t77 15.5h350v-95h-350q-21 0 -40 -8t-33 -22t-22 -33t-8 -40t8 -40t22 -33.5t33 -22.5t40 -8h557v151h95v-151
zM755 303h-557q-21 0 -40 -8.5t-33 -22.5t-22 -33t-8 -41q0 -21 8 -40t22 -33t33 -22t40 -8h557v208z" />
    <glyph glyph-name="quotesingle" unicode="'" horiz-adv-x="195" 
d="M0 700h95v-264h-95v264z" />
    <glyph glyph-name="parenleft" unicode="(" horiz-adv-x="289" 
d="M189 779q-48 -112 -71.5 -239.5t-23.5 -271.5q0 -143 22 -269t67 -226h-103q-38 97 -59 223t-21 272q0 152 22.5 283t63.5 228h103v0z" />
    <glyph glyph-name="parenright" unicode=")" horiz-adv-x="290" 
d="M103 779q42 -97 64.5 -228t22.5 -283q0 -146 -21.5 -272t-59.5 -223h-102l9 22q36 84 58 207t22 266q0 144 -22 266.5t-58 207.5l-16 37h103z" />
    <glyph glyph-name="asterisk" unicode="*" horiz-adv-x="650" 
d="M550 466l-198 -65l123 -170l-77 -55l-123 168l-123 -168l-76 55l122 170l-198 65l29 90l199 -64v208h94v-208l199 64z" />
    <glyph glyph-name="plus" unicode="+" horiz-adv-x="648" 
d="M321 321h227v-94h-227v-227h-95v227h-226v94h226v228h95v-228z" />
    <glyph glyph-name="comma" unicode="," horiz-adv-x="193" 
d="M0 95h93v-95q0 -20 -7 -37t-20 -30t-30 -20.5t-36 -7.5v39q23 0 39.5 16.5t16.5 39.5h-56v95z" />
    <glyph glyph-name="hyphen" unicode="-" horiz-adv-x="497" 
d="M0 321h397v-94h-397v94z" />
    <glyph glyph-name="period" unicode="." horiz-adv-x="194" 
d="M0 95h94v-95h-94v95z" />
    <glyph glyph-name="slash" unicode="/" horiz-adv-x="482" 
d="M279 700h103l-280 -700h-102z" />
    <glyph glyph-name="zero" unicode="0" horiz-adv-x="1099" 
d="M802 700q41 0 77 -15.5t62.5 -42.5t42 -63t15.5 -77v-304q0 -41 -15.5 -77t-42 -63t-62.5 -42.5t-77 -15.5h-604q-41 0 -77 15.5t-63 42.5t-42.5 63t-15.5 77v304q0 41 15.5 77t42.5 63t63 42.5t77 15.5h604zM906 502q0 21 -8 40t-22.5 33t-33.5 22t-40 8h-604
q-22 0 -41 -8t-33 -22t-22 -33t-8 -40v-304q0 -21 8 -40t22 -33t33 -22t41 -8h604q21 0 40 8t33.5 22t22.5 33t8 40v304z" />
    <glyph glyph-name="one" unicode="1" horiz-adv-x="348" 
d="M0 700h248v-700h-94v605h-154v95z" />
    <glyph glyph-name="two" unicode="2" horiz-adv-x="1099" 
d="M197 303q-21 0 -40 -8.5t-33 -22.5t-22 -33t-8 -41v-103h905v-95h-999v198q0 41 15.5 77.5t42 63.5t62.5 43t77 16h604q22 0 41 8t33 22.5t22 33.5t8 40t-8 40t-22 33t-33 22t-41 8h-801v95h801q41 0 77 -15.5t63 -42.5t42.5 -63t15.5 -77t-15.5 -77.5t-42.5 -63.5
t-63 -42.5t-77 -15.5h-604v0z" />
    <glyph glyph-name="three" unicode="3" 
d="M1000 502q0 -46 -19 -85t-51 -66q32 -29 51 -68t19 -85q0 -41 -15.5 -77t-42.5 -63t-63 -42.5t-77 -15.5h-802v95h802q21 0 40 8t33.5 22t22.5 33t8 40q0 22 -8 41t-22.5 33t-33 22.5t-39.5 8.5h-803v95h802q21 0 40 8t33.5 22.5t22.5 33.5t8 40t-8 40t-22.5 33t-33.5 22
t-40 8h-802v95h802q41 0 77 -15.5t63 -42.5t42.5 -63t15.5 -77z" />
    <glyph glyph-name="four" unicode="4" 
d="M905 700h95v-700h-95v227h-708q-41 0 -77 15.5t-62.5 42.5t-42 63.5t-15.5 77.5v274h94v-274q0 -21 8 -40.5t22 -33.5t33 -22.5t40 -8.5h708v379z" />
    <glyph glyph-name="five" unicode="5" horiz-adv-x="1099" 
d="M999 700v-95h-905v-207h708q41 0 77 -16t62.5 -43t42 -63.5t15.5 -77.5t-15.5 -77t-42 -63t-62.5 -42.5t-77 -15.5h-802v95h802q21 0 40 8t33 22t22 33t8 40q0 22 -8 41t-22 33t-33 22.5t-40 8.5h-802v397h999z" />
    <glyph glyph-name="six" unicode="6" 
d="M1000 700v-95h-802q-22 0 -41 -8t-33 -22t-22 -33t-8 -40v-104h708q41 0 77 -16t63 -43t42.5 -63.5t15.5 -77.5t-15.5 -77t-42.5 -63t-63 -42.5t-77 -15.5h-604q-41 0 -77 15.5t-63 42.5t-42.5 63t-15.5 77v304q0 41 15.5 77t42.5 63t63 42.5t77 15.5h802zM94 303v-105
q0 -21 8 -40t22 -33t33 -22t41 -8h604q22 0 41 8t33 22t22 33t8 40q0 22 -8 41t-22 33t-33 22.5t-41 8.5h-708z" />
    <glyph glyph-name="seven" unicode="7" horiz-adv-x="1101" 
d="M898 700q21 0 40 -8t33 -22t22 -32.5t8 -39.5q0 -20 -8 -38.5t-20 -32.5l-460 -527h-125l516 592q2 2 2 6q0 7 -8 7h-898v95h898v0z" />
    <glyph glyph-name="eight" unicode="8" horiz-adv-x="1101" 
d="M1001 502q0 -46 -19.5 -85t-51.5 -66q32 -29 51.5 -68t19.5 -85q0 -41 -15.5 -77t-42.5 -63t-63.5 -42.5t-77.5 -15.5h-604q-41 0 -77 15.5t-63 42.5t-42.5 63t-15.5 77q0 46 19 85t51 68q-32 27 -51 66t-19 85q0 41 15.5 77t42.5 63t63 42.5t77 15.5h604
q41 0 77.5 -15.5t63.5 -42.5t42.5 -63t15.5 -77zM802 95q22 0 41 8t33 22t22 33t8 40q0 22 -8 41t-22 33t-33 22.5t-41 8.5h-604q-44 -1 -74 -31t-30 -74q0 -21 8 -40t22 -33t33 -22t41 -8h604zM198 605q-22 0 -41 -8t-33 -22t-22 -33t-8 -40t8 -40t22 -33.5t33 -22.5t41 -8
h604q22 0 41 8t33 22.5t22 33.5t8 40t-8 40t-22 33t-33 22t-41 8h-604z" />
    <glyph glyph-name="nine" unicode="9" 
d="M802 700q41 0 77 -15.5t63 -42.5t42.5 -63t15.5 -77v-304q0 -41 -15.5 -77t-42.5 -63t-63 -42.5t-77 -15.5h-802v95h802q22 0 41 8t33 22t22 33t8 40v105h-708q-41 0 -77 15.5t-63 42.5t-42.5 63.5t-15.5 77.5t15.5 77t42.5 63t63 42.5t77 15.5h604zM906 502q0 21 -8 40
t-22 33t-33 22t-41 8h-604q-22 0 -41 -8t-33 -22t-22 -33t-8 -40t8 -40t22 -33.5t33 -22.5t41 -8h708v104z" />
    <glyph glyph-name="colon" unicode=":" horiz-adv-x="194" 
d="M0 95h94v-95h-94v95zM0 471h94v-95h-94v95z" />
    <glyph glyph-name="semicolon" unicode=";" horiz-adv-x="194" 
d="M0 95h94v-95q0 -20 -7.5 -37t-20 -30t-30 -20.5t-36.5 -7.5v39q23 0 39.5 16.5t16.5 39.5h-56v95zM0 471h94v-95h-94v95z" />
    <glyph glyph-name="less" unicode="&#x3c;" horiz-adv-x="621" 
d="M0 380l521 261v-106l-426 -214l426 -212v-106l-521 261v116z" />
    <glyph glyph-name="equal" unicode="=" horiz-adv-x="648" 
d="M548 379h-548v94h548v-94zM0 245h548v-94h-548v94z" />
    <glyph glyph-name="greater" unicode="&#x3e;" horiz-adv-x="622" 
d="M0 641l522 -261v-116l-522 -261v106l425 212l-425 214v106z" />
    <glyph glyph-name="question" unicode="?" horiz-adv-x="799" 
d="M500 700q41 0 77.5 -15.5t63.5 -42.5t42.5 -63t15.5 -77t-15.5 -77.5t-42.5 -63.5t-63.5 -42.5t-77.5 -15.5h-377q-12 0 -20.5 -8.5t-8.5 -20.5v-123h-94v123q0 25 9.5 48t26.5 39.5t39 26.5t48 10h377q22 0 41 8t33 22.5t22 33.5t8 40t-8 40t-22 33t-33 22t-41 8h-500
v95h500zM0 95h94v-95h-94v95z" />
    <glyph glyph-name="at" unicode="@" 
d="M670 530q25 0 47.5 -9.5t39 -26.5t26 -39.5t9.5 -47.5v-143h67q29 0 38 10t9 19v209q0 21 -8 40t-22.5 33t-33.5 22t-40 8h-604q-22 0 -41 -8t-33 -22t-22 -33t-8 -40v-304q0 -21 8 -40t22 -33t33 -22t41 -8h802v-95h-802q-41 0 -77 15.5t-63 42.5t-42.5 63t-15.5 77v304
q0 41 15.5 77t42.5 63t63 42.5t77 15.5h604q41 0 77 -15.5t63 -42.5t42.5 -63t15.5 -77l-1 -209q0 -53 -39 -87.5t-101 -34.5h-548q-23 0 -42 10.5t-32.5 27.5t-21.5 39t-8 45v114q0 25 9.5 47.5t26.5 39.5t39 26.5t48 9.5h340zM699 407q0 12 -8.5 20.5t-20.5 8.5h-340
q-12 0 -20 -8.5t-8 -20.5v-116q0 -8 5 -16t8 -11h384v143z" />
    <glyph glyph-name="A" unicode="A" horiz-adv-x="1142" 
d="M554 700q34 -1 61 -17t44 -43l383 -640h-110l-136 226h-550l-136 -226h-110l384 640q16 27 44 43.5t61 16.5h65zM740 321l-162 270q-3 7 -9.5 10.5t-14.5 3.5h-65q-16 0 -24 -14l-163 -270h438z" />
    <glyph glyph-name="B" unicode="B" 
d="M1000 501q0 -45 -19 -84.5t-51 -67.5q32 -27 51 -66.5t19 -84.5q0 -41 -15.5 -77t-42.5 -63t-63 -42.5t-77 -15.5h-802v700h802q41 0 77 -16t63 -43t42.5 -63t15.5 -77zM802 94q21 0 40 8t33.5 22.5t22.5 33.5t8 40q0 22 -8 41t-22.5 33t-33.5 22t-40 8h-708v-208h708z
M802 397q21 0 40 8t33.5 22t22.5 33t8 41q0 21 -8 40t-22.5 33.5t-33.5 22.5t-40 8h-708v-208h708z" />
    <glyph glyph-name="C" unicode="C" horiz-adv-x="1099" 
d="M999 700v-95h-802q-21 0 -40 -8t-33 -22.5t-22 -33.5t-8 -40v-303q0 -21 8 -40t22 -33.5t33 -22.5t40 -8h802v-94h-802q-41 0 -77 15.5t-62.5 42.5t-42 63t-15.5 77v303q0 41 15.5 77t42 63t62.5 43t77 16h802z" />
    <glyph glyph-name="D" unicode="D" horiz-adv-x="1101" 
d="M803 700q41 0 77 -16t63 -43t42.5 -63t15.5 -77v-303q0 -41 -15.5 -77t-42.5 -63t-63 -42.5t-77 -15.5h-803v700h803zM907 501q0 21 -8 40t-22 33.5t-33 22.5t-41 8h-708v-511h708q22 0 41 8t33 22.5t22 33.5t8 40v303z" />
    <glyph glyph-name="E" unicode="E" 
d="M95 397h905v-95h-905v-104q0 -21 8 -40t22 -33.5t33 -22.5t40 -8h802v-94h-802q-41 0 -77 15.5t-63 42.5t-42.5 63t-15.5 77v303q0 41 15.5 77t42.5 63t63 43t77 16h802v-95h-802q-21 0 -40 -8t-33 -22.5t-22 -33.5t-8 -40v-104z" />
    <glyph glyph-name="F" unicode="F" 
d="M94 397h906v-95h-906v-302h-94v501q0 41 15.5 77t42.5 63t63 43t77 16h802v-95h-802q-22 0 -41 -8t-33 -22.5t-22 -33.5t-8 -40v-104z" />
    <glyph glyph-name="G" unicode="G" horiz-adv-x="1099" 
d="M999 700v-95h-802q-21 0 -40 -8t-33 -22.5t-22 -33.5t-8 -40v-303q0 -21 8 -40t22 -33.5t33 -22.5t40 -8h605q21 0 40 8t33 22.5t22 33.5t8 40v104h-452v95h546v-199q0 -41 -15.5 -77t-42 -63t-62.5 -42.5t-77 -15.5h-605q-41 0 -77 15.5t-62.5 42.5t-42 63t-15.5 77v303
q0 41 15.5 77t42 63t62.5 43t77 16h802z" />
    <glyph glyph-name="H" unicode="H" 
d="M906 700h94v-700h-94v302h-812v-302h-94v700h94v-303h812v303z" />
    <glyph glyph-name="I" unicode="I" horiz-adv-x="195" 
d="M0 700h95v-700h-95v700z" />
    <glyph glyph-name="J" unicode="J" horiz-adv-x="1099" 
d="M905 700h94v-502q0 -41 -15.5 -77t-42 -63t-62.5 -42.5t-77 -15.5h-604q-41 0 -77 15.5t-63 42.5t-42.5 63t-15.5 77v199h94v-199q0 -21 8 -40t22 -33.5t33 -22.5t41 -8h604q21 0 40 8t33 22.5t22 33.5t8 40v502z" />
    <glyph glyph-name="K" unicode="K" horiz-adv-x="1061" 
d="M464 380l497 -380h-156l-423 322l-288 -199v-123h-94v700h94v-462l666 462h165z" />
    <glyph glyph-name="L" unicode="L" horiz-adv-x="1101" 
d="M95 198q0 -21 8 -40t22 -33.5t33 -22.5t41 -8h802v-94h-802q-41 0 -77 15.5t-63 42.5t-43 63t-16 77v502h95v-502v0z" />
    <glyph glyph-name="M" unicode="M" horiz-adv-x="1177" 
d="M980 700q40 -1 68.5 -28.5t28.5 -68.5v-603h-95v603q0 2 -2 2q-1 0 -2 -1l-346 -557q-12 -22 -34 -34.5t-48 -12.5h-22q-26 0 -48 12.5t-35 34.5l-348 557q0 1 -1 1l-1 -2v-603h-95v603q0 20 7.5 37.5t20.5 31t30.5 21t37.5 7.5q26 0 48 -13.5t34 -34.5l348 -557
q1 -1 2 -1h22l1 1l347 558q14 20 34.5 33.5t47.5 13.5z" />
    <glyph glyph-name="N" unicode="N" horiz-adv-x="1101" 
d="M907 700h94v-598q0 -21 -8 -39.5t-22.5 -32.5t-33 -22t-39.5 -8q-18 0 -34.5 5t-29.5 16l-726 582q-2 2 -4 2q-9 0 -9 -8v-597h-95v597q0 21 8 39.5t22.5 33t33.5 22.5t40 8q17 0 33.5 -6t29.5 -16l725 -582q4 -2 6 -2q3 0 6 2.5t3 5.5v598z" />
    <glyph glyph-name="O" unicode="O" 
d="M802 700q41 0 77 -16t63 -43t42.5 -63t15.5 -77v-303q0 -41 -15.5 -77t-42.5 -63t-63 -42.5t-77 -15.5h-604q-41 0 -77 15.5t-63 42.5t-42.5 63t-15.5 77v303q0 41 15.5 77t42.5 63t63 43t77 16h604zM906 501q0 21 -8.5 40t-22.5 33.5t-33 22.5t-40 8h-604q-21 0 -40 -8
t-33 -22.5t-22.5 -33.5t-8.5 -40v-303q0 -21 8.5 -40t22.5 -33.5t33 -22.5t40 -8h604q21 0 40 8t33 22.5t22.5 33.5t8.5 40v303z" />
    <glyph glyph-name="P" unicode="P" 
d="M801 700q41 0 77.5 -16t63.5 -43t42.5 -63t15.5 -77v-76q0 -41 -15.5 -77.5t-42.5 -63.5t-63.5 -42.5t-77.5 -15.5h-707v-226h-94v700h801zM906 501q0 21 -8.5 40t-22.5 33.5t-33.5 22.5t-40.5 8h-707v-284h707q21 0 40.5 8.5t33.5 22.5t22.5 33t8.5 40v76z" />
    <glyph glyph-name="Q" unicode="Q" 
d="M802 700q41 0 77 -16t63 -43t42.5 -63t15.5 -77v-303q0 -41 -15.5 -77t-42.5 -63t-63 -42.5t-77 -15.5h-100l128 -193h-113l-128 193h-391q-41 0 -77 15.5t-63 42.5t-42.5 63t-15.5 77v303q0 41 15.5 77t42.5 63t63 43t77 16h604zM906 501q0 21 -8 40t-22.5 33.5
t-33.5 22.5t-40 8h-604q-21 0 -40 -8t-33 -22.5t-22 -33.5t-8 -40v-303q0 -21 8 -40t22 -33.5t33 -22.5t40 -8h604q21 0 40 8t33.5 22.5t22.5 33.5t8 40v303z" />
    <glyph glyph-name="R" unicode="R" horiz-adv-x="1101" 
d="M802 700q41 0 77.5 -16t63.5 -43t42.5 -63t15.5 -77v-76q0 -39 -14 -73.5t-38.5 -61t-58 -43.5t-71.5 -20l154 -227h-114l-153 226h-611v-226h-95v700h802zM907 501q0 21 -8.5 40t-22.5 33.5t-33 22.5t-41 8h-707v-284h707q22 0 41 8.5t33 22.5t22.5 33t8.5 40v76z" />
    <glyph glyph-name="S" unicode="S" 
d="M1000 700v-95h-802q-22 0 -41 -8t-33 -22.5t-22 -33.5t-8 -40q0 -44 30 -74t74 -30h603q41 0 77.5 -15.5t63.5 -42.5t42.5 -63.5t15.5 -77.5t-15.5 -77t-42.5 -63t-63.5 -42.5t-77.5 -15.5h-801v94h801q21 0 40.5 8t33.5 22.5t22.5 33.5t8.5 40q0 22 -8.5 41t-22.5 33
t-33.5 22t-40.5 8h-603q-41 0 -77 15.5t-63 42.5t-42.5 63.5t-15.5 77.5t15.5 77t42.5 63t63 43t77 16h802z" />
    <glyph glyph-name="T" unicode="T" 
d="M1000 700v-95h-452v-605h-94v605h-454v95h1000z" />
    <glyph glyph-name="U" unicode="U" 
d="M906 699h94v-501q0 -41 -15.5 -77t-42.5 -63t-63 -42.5t-77 -15.5h-604q-41 0 -77 15.5t-63 42.5t-42.5 63t-15.5 77v501h95v-501q0 -21 8 -40t22 -33.5t33 -22.5t40 -8h604q21 0 40 8t33.5 22.5t22.5 33.5t8 40v501z" />
    <glyph glyph-name="V" unicode="V" horiz-adv-x="1142" 
d="M932 700h110l-384 -641q-17 -27 -44 -43t-60 -16h-65q-34 0 -61.5 16t-44.5 43l-383 641h109l355 -592q9 -14 25 -14h65q15 0 24 14z" />
    <glyph glyph-name="W" unicode="W" horiz-adv-x="1334" 
d="M1138 700h96l-146 -624q-8 -33 -35.5 -54.5t-62.5 -21.5q-29 0 -53.5 15t-37.5 40l-270 542q-4 8 -12 8q-9 0 -12 -7l-272 -543q-12 -25 -36 -40t-53 -15q-35 0 -63 21.5t-36 55.5l-145 623h97l141 -601q0 -4 4 -4h2q3 0 5 2l271 543q14 27 39.5 43.5t57.5 16.5
t57.5 -16.5t38.5 -43.5l271 -543q3 -3 6 -3q5 0 5 4z" />
    <glyph glyph-name="X" unicode="X" horiz-adv-x="1036" 
d="M936 700l-396 -358l382 -342h-140l-314 279l-313 -279h-141l384 342l-398 358h141l327 -293l327 293h141z" />
    <glyph glyph-name="Y" unicode="Y" horiz-adv-x="1022" 
d="M922 700l-413 -372v-328h-95v328l-414 372h141l321 -287l319 287h141z" />
    <glyph glyph-name="Z" unicode="Z" horiz-adv-x="1101" 
d="M96 94h905v-94h-907q-19 0 -36 7.5t-30 20t-20.5 29.5t-7.5 37q0 29 15.5 52t40.5 34l849 425h-905v95h907q19 0 36.5 -8t30 -20.5t20 -30t7.5 -36.5q0 -29 -16 -52t-41 -34z" />
    <glyph glyph-name="bracketleft" unicode="[" horiz-adv-x="421" 
d="M321 776v-94h-227v-814h227v-94h-321v1002h321z" />
    <glyph glyph-name="backslash" unicode="\" horiz-adv-x="525" 
d="M336 774l89 -35l-338 -844l-87 35z" />
    <glyph glyph-name="bracketright" unicode="]" horiz-adv-x="420" 
d="M0 776h320v-1002h-320v94h226v814h-226v94z" />
    <glyph glyph-name="asciicircum" unicode="^" horiz-adv-x="737" 
d="M616 220l21 -43h-105l-214 427l-213 -427h-105l261 523h116z" />
    <glyph glyph-name="underscore" unicode="_" horiz-adv-x="798" 
d="M0 -57h698v-93h-698v93z" />
    <glyph glyph-name="grave" unicode="`" horiz-adv-x="386" 
d="M0 813l286 -95v-100l-286 95v100z" />
    <glyph glyph-name="a" unicode="a" horiz-adv-x="798" 
d="M500 549q41 0 77 -15.5t63 -42.5t42.5 -63t15.5 -77v-351h-538q-33 0 -62.5 12.5t-51 34.5t-34 51.5t-12.5 62.5t12.5 62.5t34 51.5t51 34.5t62.5 12.5h443v29q0 21 -8 40t-22 33.5t-33 22.5t-40 8h-500v94h500zM603 227h-443q-28 0 -47 -19.5t-19 -46.5q0 -28 19 -47
t47 -19h443v132z" />
    <glyph glyph-name="b" unicode="b" horiz-adv-x="799" 
d="M501 549q41 0 77 -15.5t63 -42.5t42.5 -63t15.5 -77v-152q0 -41 -15.5 -77.5t-42.5 -63.5t-63 -42.5t-77 -15.5h-501v700h94v-151h407zM605 351q0 21 -8 40t-22.5 33.5t-33.5 22.5t-40 8h-407v-360h407q21 0 40 8t33.5 22.5t22.5 33.5t8 40v152z" />
    <glyph glyph-name="c" unicode="c" horiz-adv-x="798" 
d="M0 351q0 41 15.5 77t42 63t62.5 42.5t77 15.5h501v-94h-501q-21 0 -40 -8t-33 -22.5t-22 -33.5t-8 -40v-152q0 -21 8 -40t22 -33.5t33 -22.5t40 -8h501v-95h-501q-41 0 -77 16t-62.5 43t-42 63t-15.5 77v152v0z" />
    <glyph glyph-name="d" unicode="d" horiz-adv-x="799" 
d="M604 700h95v-700h-501q-41 0 -77 15.5t-63 42.5t-42.5 63.5t-15.5 77.5v152q0 41 15.5 77t42.5 63t63 42.5t77 15.5h406v151zM604 455h-406q-21 0 -40 -8t-33.5 -22.5t-22.5 -33.5t-8 -40v-152q0 -21 8 -40t22.5 -33.5t33.5 -22.5t40 -8h406v360z" />
    <glyph glyph-name="e" unicode="e" horiz-adv-x="799" 
d="M0 351q0 41 15.5 77t42.5 63t63.5 42.5t77.5 15.5h500v-94h-500q-22 0 -41 -8t-33 -22.5t-22 -33.5t-8 -40v-29h604v-95h-604v-28q0 -21 8 -40t22 -33.5t33 -22.5t41 -8h500v-95h-500q-41 0 -77.5 16t-63.5 43t-42.5 63t-15.5 77v152v0z" />
    <glyph glyph-name="f" unicode="f" horiz-adv-x="799" 
d="M0 351q0 41 15.5 77t42.5 63t63.5 42.5t77.5 15.5h500v-94h-500q-22 0 -41 -8t-33 -22.5t-22 -33.5t-8 -40v-29h604v-95h-604v-227h-95v351v0z" />
    <glyph glyph-name="g" unicode="g" horiz-adv-x="798" 
d="M0 351q0 41 15.5 77t42.5 63t63 42.5t77 15.5h500v-577q0 -41 -15.5 -77t-42.5 -63t-63 -42.5t-77 -15.5h-500v94h500q21 0 40 8t33 22.5t22.5 33.5t8.5 40v28h-406q-41 0 -77 16t-63 43t-42.5 63t-15.5 77v152zM604 455h-406q-22 0 -41 -8t-33.5 -22.5t-22.5 -33.5
t-8 -40v-152q0 -21 8 -40t22.5 -33.5t33.5 -22.5t41 -8h406v360z" />
    <glyph glyph-name="h" unicode="h" horiz-adv-x="798" 
d="M501 549q41 0 77 -15.5t62.5 -42.5t42 -63t15.5 -77v-351h-94v351q0 21 -8 40t-22.5 33.5t-33 22.5t-39.5 8h-406v-455h-95v700h95v-151h406v0z" />
    <glyph glyph-name="i" unicode="i" horiz-adv-x="194" 
d="M0 549h94v-549h-94v549z" />
    <glyph glyph-name="j" unicode="j" horiz-adv-x="798" 
d="M603 549h95v-350q0 -41 -15.5 -77.5t-42.5 -63.5t-63 -42.5t-77 -15.5h-303q-41 0 -77 16t-62.5 43t-42 63t-15.5 77v123h93v-123q0 -21 8 -40t22.5 -33.5t33.5 -22.5t40 -8h303q21 0 40 8t33 22.5t22 33.5t8 40v350z" />
    <glyph glyph-name="k" unicode="k" horiz-adv-x="783" 
d="M377 354l306 -354h-124l-253 291l-212 -185v-106h-94v700h94v-468l363 317h144z" />
    <glyph glyph-name="l" unicode="l" horiz-adv-x="194" 
d="M0 700h94v-700h-94v700z" />
    <glyph glyph-name="m" unicode="m" horiz-adv-x="949" 
d="M650 549q41 0 77.5 -15.5t63.5 -42.5t42.5 -63t15.5 -77v-351h-94v351q0 21 -8.5 40t-22.5 33.5t-33 22.5t-41 8h-179v-455h-94v455h-283v-455h-94v549h650v0z" />
    <glyph glyph-name="n" unicode="n" horiz-adv-x="798" 
d="M501 549q40 0 76 -15.5t63 -42.5t42.5 -63t15.5 -77v-351h-94v351q0 21 -8 40t-22.5 33.5t-33 22.5t-39.5 8h-407v-455h-94v549h501v0z" />
    <glyph glyph-name="o" unicode="o" horiz-adv-x="799" 
d="M501 549q41 0 77 -15.5t62.5 -42.5t42.5 -63t16 -77l-1 -152q0 -41 -15.5 -77t-42.5 -63t-62.5 -43t-76.5 -16h-303q-41 0 -77 16t-63 43t-42.5 63t-15.5 77v152q0 41 15.5 77t42.5 63t63 42.5t77 15.5h303zM604 351q0 21 -8 40t-22 33.5t-33 22.5t-40 8h-303
q-21 0 -40 -8t-33 -22.5t-22 -33.5t-8 -40v-152q0 -21 8 -40t22 -33.5t33 -22.5t40 -8h303q21 0 40 8t33 22.5t22 33.5t8 40v152z" />
    <glyph glyph-name="p" unicode="p" horiz-adv-x="798" 
d="M500 549q41 0 77 -15.5t63 -42.5t42.5 -63t15.5 -77v-152q0 -41 -15.5 -77t-42.5 -63t-63 -43t-77 -16h-406v-226h-94v775h500zM604 351q0 21 -8 40t-22.5 33.5t-33.5 22.5t-40 8h-406v-360h406q21 0 40 8t33.5 22.5t22.5 33.5t8 40v152z" />
    <glyph glyph-name="q" unicode="q" horiz-adv-x="798" 
d="M0 351q0 41 15.5 77t42.5 63t63 42.5t77 15.5h500v-775h-94v226h-406q-41 0 -77 16t-63 43t-42.5 63t-15.5 77v152zM604 455h-406q-21 0 -40 -8t-33 -22.5t-22 -33.5t-8 -40v-152q0 -21 8 -40t22 -33.5t33 -22.5t40 -8h406v360z" />
    <glyph glyph-name="r" unicode="r" horiz-adv-x="799" 
d="M0 351q0 41 15.5 77t42.5 63t63 42.5t77 15.5h501v-94h-501q-22 0 -41 -8t-33 -22.5t-22 -33.5t-8 -40v-351h-94v351v0z" />
    <glyph glyph-name="s" unicode="s" horiz-adv-x="798" 
d="M538 322q33 0 62.5 -12.5t51 -34.5t34 -51.5t12.5 -62.5t-12.5 -62.5t-34 -51.5t-51 -34.5t-62.5 -12.5h-538v95h538q28 0 47 19t19 47q0 27 -19 46.5t-47 19.5h-378q-33 0 -62 12.5t-51 34.5t-34.5 51.5t-12.5 63.5q0 33 12.5 62.5t34.5 51t51 34t62 12.5h538v-94h-538
q-27 0 -46 -19.5t-19 -46.5q0 -28 19 -47.5t46 -19.5h378v0z" />
    <glyph glyph-name="t" unicode="t" horiz-adv-x="798" 
d="M320 549h378v-94h-378v-256q0 -21 8 -40t22.5 -33.5t33.5 -22.5t41 -8h273v-95h-273q-42 0 -78 15.5t-63 42.5t-42.5 63.5t-15.5 77.5v256h-226v94h226v151h94v-151z" />
    <glyph glyph-name="u" unicode="u" horiz-adv-x="798" 
d="M604 549h94v-549h-501q-41 0 -76.5 16t-62.5 43t-42.5 63t-15.5 77v350h94v-350q0 -21 8 -40t22.5 -33.5t33 -22.5t39.5 -8h407v454z" />
    <glyph glyph-name="v" unicode="v" horiz-adv-x="859" 
d="M650 549h109l-324 -549h-112l-323 549h109l269 -454h3z" />
    <glyph glyph-name="w" unicode="w" horiz-adv-x="1189" 
d="M988 549h101l-190 -549h-120l-226 455h-17l-227 -455h-119l-190 549h100l154 -447l224 447h134l222 -447z" />
    <glyph glyph-name="x" unicode="x" horiz-adv-x="757" 
d="M657 549l-263 -281l251 -268h-130l-187 199l-187 -199h-129l251 268l-263 281h129l199 -212l200 212h129z" />
    <glyph glyph-name="y" unicode="y" horiz-adv-x="799" 
d="M605 549h94v-577q0 -41 -15.5 -77t-42.5 -63t-63 -42.5t-77 -15.5h-501v94h501q21 0 40 8t33.5 22.5t22.5 33.5t8 40v28h-406q-41 0 -77.5 16t-63.5 43t-42.5 63t-15.5 77v350h95v-350q0 -21 8 -40t22 -33.5t33 -22.5t41 -8h406v454z" />
    <glyph glyph-name="z" unicode="z" horiz-adv-x="799" 
d="M699 455q0 -29 -15 -51t-38 -33l-551 -276h604v-95h-605q-20 0 -37 7.5t-29.5 20.5t-20 30t-7.5 37q0 27 15 49.5t38 34.5l550 276h-603v94h605q19 0 36 -7.5t30 -20t20.5 -30t7.5 -36.5z" />
    <glyph glyph-name="braceleft" unicode="{" horiz-adv-x="345" 
d="M75 653q0 25 9.5 47.5t26.5 39.5t39 26.5t48 9.5h47v-94h-47q-12 0 -20.5 -8.5t-8.5 -20.5v-302q0 -45 -26 -77q26 -32 26 -75v-302q0 -12 8.5 -20.5t20.5 -8.5h47v-94h-47q-26 0 -48 9.5t-39 26.5t-26.5 39t-9.5 48v302q0 12 -8.5 20t-20.5 8h-46v95h46q12 0 20.5 8
t8.5 21v302v0z" />
    <glyph glyph-name="bar" unicode="|" horiz-adv-x="195" 
d="M0 776h95v-1002h-95v1002z" />
    <glyph glyph-name="braceright" unicode="}" horiz-adv-x="344" 
d="M244 322v-95h-47q-12 0 -20 -8.5t-8 -19.5v-302q0 -26 -9.5 -48t-26 -39t-39 -26.5t-47.5 -9.5h-47v94h47q11 0 19 8.5t8 20.5v302q0 21 7 40t19 35q-12 16 -19 35.5t-7 41.5v302q0 12 -8 20.5t-19 8.5h-47v94h47q25 0 47.5 -9.5t39 -26.5t26 -39.5t9.5 -47.5v-302
q0 -13 8 -21t20 -8h47z" />
    <glyph glyph-name="asciitilde" unicode="~" horiz-adv-x="723" 
d="M585 370l38 28v-117q-11 -7 -27.5 -16t-37 -17.5t-45 -14t-51.5 -6.5q-41 0 -69.5 5.5t-50.5 13.5t-40.5 18t-38.5 18.5t-44.5 14t-58.5 6.5q-18 0 -38.5 -6.5t-37.5 -14.5t-30 -15.5t-16 -10.5l-38 -29v116q22 16 64 35t96 20q40 0 68.5 -5.5t50.5 -14t41 -18t39 -18
t44.5 -14.5t58.5 -6q18 0 37 6t36 13.5t30 15t18 11.5z" />
    <glyph glyph-name="exclamdown" unicode="&#xa1;" horiz-adv-x="195" 
d="M95 0h-95v549h95v-549zM95 605h-95v95h95v-95z" />
    <glyph glyph-name="cent" unicode="&#xa2;" horiz-adv-x="799" 
d="M699 624v-94h-264v-360h264v-94h-264v-95h-95v95h-141q-41 0 -77.5 15.5t-63.5 42.5t-42.5 63t-15.5 77v152q0 41 15.5 77t42.5 63t63.5 42.5t77.5 15.5h141v95h95v-95h264zM340 530h-141q-21 0 -40.5 -8t-33.5 -22.5t-22.5 -33.5t-8.5 -40v-152q0 -22 8.5 -41t22.5 -33
t33.5 -22t40.5 -8h141v360z" />
    <glyph glyph-name="sterling" unicode="&#xa3;" 
d="M245 95h755v-95h-1000v95h151v207h-151v95h151v105q0 41 15.5 77t42.5 63t63 42.5t77 15.5h378q41 0 77 -15.5t62.5 -42.5t42 -63t15.5 -77v-47h-93v47q0 21 -8 40t-22.5 33t-33.5 22t-40 8h-378q-22 0 -41 -8t-33 -22t-22 -33t-8 -40v-105h379v-95h-379v-207z" />
    <glyph glyph-name="yen" unicode="&#xa5;" horiz-adv-x="1022" 
d="M922 700l-337 -302h225v-96h-301v-75h301v-95h-301v-132h-94v132h-303v95h303v75h-303v96h225l-337 302h141l321 -286l319 286h141z" />
    <glyph glyph-name="section" unicode="&#xa7;" 
d="M1000 700v-95h-802q-21 0 -40 -8t-33 -22t-22 -33t-8 -40q0 -44 30 -74t73 -31l605 1q41 0 77 -16t62.5 -43t42 -63.5t15.5 -77.5v-198h-1q0 -7 0.5 -13.5t0.5 -14.5q0 -41 -15.5 -77t-42 -63t-62.5 -43t-77 -16h-803v95h803q21 0 40 8t33 22.5t22 33.5t8 40t-8 40
t-22 33.5t-33 22.5t-40 8h-605q-41 0 -77 15.5t-63 42.5t-42.5 63t-15.5 77v199h3q-1 8 -2 14.5t-1 14.5q0 41 16 77t42.5 63t62.5 42.5t77 15.5h802zM198 302q-56 0 -103 30v-58q0 -22 8 -41t22 -33t33 -22t40 -8h605q28 0 54 -7.5t49 -21.5v57q0 22 -8 41t-22 33t-33 22
t-40 8h-605z" />
    <glyph glyph-name="dieresis" unicode="&#xa8;" horiz-adv-x="421" 
d="M0 713h95v-95h-95v95zM226 713h95v-95h-95v95z" />
    <glyph glyph-name="copyright" unicode="&#xa9;" horiz-adv-x="1098" 
d="M190 349q0 42 15.5 78.5t42.5 63.5t63 42.5t77 15.5h384v-94h-384q-22 0 -41 -8.5t-33 -22.5t-22 -33.5t-8 -41.5q0 -21 8 -40t22 -33t33 -22t41 -8h384v-95h-384q-41 0 -77 15.5t-63 42.5t-42.5 63t-15.5 77zM799 700q41 0 77.5 -15.5t63.5 -42.5t42.5 -63t15.5 -77
v-304q0 -41 -15.5 -77t-42.5 -63t-63.5 -42.5t-77.5 -15.5h-601q-41 0 -77 15.5t-63 42.5t-42.5 63t-15.5 77v304q0 41 15.5 77t42.5 63t63 42.5t77 15.5h601zM904 502q0 21 -8.5 40t-22.5 33t-33 22t-41 8h-601q-22 0 -41 -8t-33 -22t-22 -33t-8 -40v-304q0 -21 8 -40
t22 -33t33 -22t41 -8h601q22 0 41 8t33 22t22.5 33t8.5 40v304z" />
    <glyph glyph-name="registered" unicode="&#xae;" horiz-adv-x="1097" 
d="M800 700q41 0 77 -15.5t62.5 -42.5t42 -63t15.5 -77v-304q0 -41 -15.5 -77t-42 -63t-62.5 -42.5t-77 -15.5h-602q-41 0 -77 15.5t-63 42.5t-42.5 63t-15.5 77v304q0 41 15.5 77t42.5 63t63 42.5t77 15.5h602zM903 502q0 21 -8 40t-22 33t-33 22t-40 8h-602q-22 0 -41 -8
t-33 -22t-22 -33t-8 -40v-304q0 -21 8 -40t22 -33t33 -22t41 -8h602q21 0 40 8t33 22t22 33t8 40v304zM771 389q0 -44 -20 -79t-53 -57l56 -102h-107l-42 76h-287v-76h-94v398h387q33 0 62.5 -12.5t51 -34.5t34 -51t12.5 -62zM318 322h293q28 0 47 19.5t19 47.5
q0 27 -19 46.5t-47 19.5h-293v-133z" />
    <glyph glyph-name="degree" unicode="&#xb0;" horiz-adv-x="421" 
d="M160 776q33 0 62.5 -12.5t51.5 -34.5t34.5 -51.5t12.5 -62.5t-12.5 -62t-34.5 -51t-51.5 -34.5t-62.5 -12.5t-62 12.5t-51 34.5t-34.5 51t-12.5 62t12.5 62.5t34.5 51.5t51 34.5t62 12.5zM160 549q27 0 46.5 19.5t19.5 46.5q0 28 -19.5 47t-46.5 19q-26 0 -46 -19
t-20 -47q0 -27 20 -46.5t46 -19.5z" />
    <glyph glyph-name="acute" unicode="&#xb4;" horiz-adv-x="385" 
d="M0 718l285 96v-100l-285 -96v100z" />
    <glyph glyph-name="questiondown" unicode="&#xbf;" horiz-adv-x="799" 
d="M199 0q-41 0 -77.5 15.5t-63.5 42.5t-42.5 63t-15.5 77t15.5 77.5t42.5 63.5t63.5 42.5t77.5 15.5h377q12 0 20.5 8.5t8.5 20.5v123h94v-123q0 -26 -9.5 -48.5t-26.5 -39t-39.5 -26.5t-47.5 -10h-377q-22 0 -41 -8t-33 -22.5t-22 -33.5t-8 -40t8 -40t22 -33t33 -22t41 -8
h500v-95h-500zM699 605h-94v95h94v-95z" />
    <glyph glyph-name="Agrave" unicode="&#xc0;" horiz-adv-x="1142" 
d="M554 700q34 -1 61 -17t44 -43l383 -640h-110l-136 226h-550l-136 -226h-110l384 640q16 27 44 43.5t61 16.5h65zM740 321l-162 270q-3 7 -9.5 10.5t-14.5 3.5h-65q-16 0 -24 -14l-163 -270h438zM378 953l286 -95v-100l-286 95v100z" />
    <glyph glyph-name="Aacute" unicode="&#xc1;" horiz-adv-x="1142" 
d="M554 700q34 -1 61 -17t44 -43l383 -640h-110l-136 226h-550l-136 -226h-110l384 640q16 27 44 43.5t61 16.5h65zM740 321l-162 270q-3 7 -9.5 10.5t-14.5 3.5h-65q-16 0 -24 -14l-163 -270h438zM378 858l285 96v-100l-285 -96v100z" />
    <glyph glyph-name="Acircumflex" unicode="&#xc2;" horiz-adv-x="1142" 
d="M554 700q34 -1 61 -17t44 -43l383 -640h-110l-136 226h-550l-136 -226h-110l384 640q16 27 44 43.5t61 16.5h65zM740 321l-162 270q-3 7 -9.5 10.5t-14.5 3.5h-65q-16 0 -24 -14l-163 -270h438zM521 950l171 -86v-106l-171 87l-173 -87v106z" />
    <glyph glyph-name="Atilde" unicode="&#xc3;" horiz-adv-x="1142" 
d="M554 700q34 -1 61 -17t44 -43l383 -640h-110l-136 226h-550l-136 -226h-110l384 640q16 27 44 43.5t61 16.5h65zM740 321l-162 270q-3 7 -9.5 10.5t-14.5 3.5h-65q-16 0 -24 -14l-163 -270h438zM776 868q-12 -14 -27.5 -32.5t-35 -36t-44 -29.5t-54.5 -12q-42 0 -67 11.5
t-44 25.5t-35.5 26t-41.5 12q-12 0 -36.5 -20.5t-52.5 -54.5l-72 60q11 13 26.5 32t35.5 36t44.5 29.5t54.5 12.5q22 0 41 -4.5t34.5 -12t27 -16t20.5 -15.5t15.5 -12t13 -8.5t15 -5t21.5 -2.5q11 0 35.5 21t53.5 56z" />
    <glyph glyph-name="Adieresis" unicode="&#xc4;" horiz-adv-x="1142" 
d="M554 700q34 -1 61 -17t44 -43l383 -640h-110l-136 226h-550l-136 -226h-110l384 640q16 27 44 43.5t61 16.5h65zM740 321l-162 270q-3 7 -9.5 10.5t-14.5 3.5h-65q-16 0 -24 -14l-163 -270h438zM361 853h95v-95h-95v95zM587 853h95v-95h-95v95z" />
    <glyph glyph-name="Aring" unicode="&#xc5;" horiz-adv-x="1142" 
d="M554 700q34 -1 61 -17t44 -43l383 -640h-110l-136 226h-550l-136 -226h-110l384 640q16 27 44 43.5t61 16.5h65zM740 321l-162 270q-3 7 -9.5 10.5t-14.5 3.5h-65q-16 0 -24 -14l-163 -270h438zM521 916q33 0 62 -12.5t50.5 -34.5t34.5 -51.5t13 -62.5t-13 -62.5
t-34.5 -51t-50.5 -34.5t-62 -13t-62.5 13t-51 34.5t-34 51t-12.5 62.5t12.5 62.5t34 51.5t51 34.5t62.5 12.5zM521 689q27 0 46.5 19.5t19.5 46.5q0 28 -19.5 47t-46.5 19q-28 0 -47.5 -19t-19.5 -47q0 -27 19.5 -46.5t47.5 -19.5z" />
    <glyph glyph-name="AE" unicode="&#xc6;" horiz-adv-x="1574" 
d="M1474 605h-794l125 -208h669v-95h-613l125 -207h488v-95h-541l-136 227h-551l-135 -227h-111l385 641q16 27 43.5 43t60.5 16h985v-95zM579 592q-10 13 -25 13h-65q-7 0 -13.5 -3.5t-9.5 -9.5l-163 -270h437z" />
    <glyph glyph-name="Ccedilla" unicode="&#xc7;" 
d="M1000 700v-95h-802q-21 0 -40 -8t-33.5 -22t-22.5 -33t-8 -40v-304q0 -21 8 -40t22.5 -33t33.5 -22t40 -8h802v-95h-452v-47q0 -20 -7.5 -37t-20.5 -30t-30.5 -20.5t-36.5 -7.5v38q23 0 39.5 17t16.5 40h-56v47h-255q-41 0 -77 15.5t-63 42.5t-42.5 63t-15.5 77v304
q0 41 15.5 77t42.5 63t63 42.5t77 15.5h802z" />
    <glyph glyph-name="Egrave" unicode="&#xc8;" 
d="M95 397h905v-95h-905v-104q0 -21 8 -40t22 -33.5t33 -22.5t40 -8h802v-94h-802q-41 0 -77 15.5t-63 42.5t-42.5 63t-15.5 77v303q0 41 15.5 77t42.5 63t63 43t77 16h802v-95h-802q-21 0 -40 -8t-33 -22.5t-22 -33.5t-8 -40v-104zM357 953l286 -95v-100l-286 95v100z" />
    <glyph glyph-name="Eacute" unicode="&#xc9;" 
d="M95 397h905v-95h-905v-104q0 -21 8 -40t22 -33.5t33 -22.5t40 -8h802v-94h-802q-41 0 -77 15.5t-63 42.5t-42.5 63t-15.5 77v303q0 41 15.5 77t42.5 63t63 43t77 16h802v-95h-802q-21 0 -40 -8t-33 -22.5t-22 -33.5t-8 -40v-104zM357 858l285 96v-100l-285 -96v100z" />
    <glyph glyph-name="Ecircumflex" unicode="&#xca;" 
d="M95 397h905v-95h-905v-104q0 -21 8 -40t22 -33.5t33 -22.5t40 -8h802v-94h-802q-41 0 -77 15.5t-63 42.5t-42.5 63t-15.5 77v303q0 41 15.5 77t42.5 63t63 43t77 16h802v-95h-802q-21 0 -40 -8t-33 -22.5t-22 -33.5t-8 -40v-104zM500 950l171 -86v-106l-171 87l-173 -87
v106z" />
    <glyph glyph-name="Edieresis" unicode="&#xcb;" 
d="M95 397h905v-95h-905v-104q0 -21 8 -40t22 -33.5t33 -22.5t40 -8h802v-94h-802q-41 0 -77 15.5t-63 42.5t-42.5 63t-15.5 77v303q0 41 15.5 77t42.5 63t63 43t77 16h802v-95h-802q-21 0 -40 -8t-33 -22.5t-22 -33.5t-8 -40v-104zM340 853h95v-95h-95v95zM566 853h95v-95
h-95v95z" />
    <glyph glyph-name="Igrave" unicode="&#xcc;" horiz-adv-x="195" 
d="M0 700h95v-700h-95v700zM-95 953l286 -95v-100l-286 95v100z" />
    <glyph glyph-name="Iacute" unicode="&#xcd;" horiz-adv-x="195" 
d="M0 700h95v-700h-95v700zM-95 858l285 96v-100l-285 -96v100z" />
    <glyph glyph-name="Icircumflex" unicode="&#xce;" horiz-adv-x="195" 
d="M0 700h95v-700h-95v700zM48 950l171 -86v-106l-171 87l-173 -87v106z" />
    <glyph glyph-name="Idieresis" unicode="&#xcf;" horiz-adv-x="195" 
d="M0 700h95v-700h-95v700zM-112 853h95v-95h-95v95zM114 853h95v-95h-95v95z" />
    <glyph glyph-name="Ntilde" unicode="&#xd1;" horiz-adv-x="1101" 
d="M907 700h94v-598q0 -21 -8 -39.5t-22.5 -32.5t-33 -22t-39.5 -8q-18 0 -34.5 5t-29.5 16l-726 582q-2 2 -4 2q-9 0 -9 -8v-597h-95v597q0 21 8 39.5t22.5 33t33.5 22.5t40 8q17 0 33.5 -6t29.5 -16l725 -582q4 -2 6 -2q3 0 6 2.5t3 5.5v598zM755 868q-12 -14 -27.5 -32.5
t-35 -36t-44 -29.5t-54.5 -12q-42 0 -67 11.5t-44 25.5t-35.5 26t-41.5 12q-12 0 -36.5 -20.5t-52.5 -54.5l-72 60q11 13 26.5 32t35.5 36t44.5 29.5t54.5 12.5q22 0 41 -4.5t34.5 -12t27 -16t20.5 -15.5t15.5 -12t13 -8.5t15 -5t21.5 -2.5q11 0 35.5 21t53.5 56z" />
    <glyph glyph-name="Ograve" unicode="&#xd2;" 
d="M802 700q41 0 77 -16t63 -43t42.5 -63t15.5 -77v-303q0 -41 -15.5 -77t-42.5 -63t-63 -42.5t-77 -15.5h-604q-41 0 -77 15.5t-63 42.5t-42.5 63t-15.5 77v303q0 41 15.5 77t42.5 63t63 43t77 16h604zM906 501q0 21 -8.5 40t-22.5 33.5t-33 22.5t-40 8h-604q-21 0 -40 -8
t-33 -22.5t-22.5 -33.5t-8.5 -40v-303q0 -21 8.5 -40t22.5 -33.5t33 -22.5t40 -8h604q21 0 40 8t33 22.5t22.5 33.5t8.5 40v303zM357 953l286 -95v-100l-286 95v100z" />
    <glyph glyph-name="Oacute" unicode="&#xd3;" 
d="M802 700q41 0 77 -16t63 -43t42.5 -63t15.5 -77v-303q0 -41 -15.5 -77t-42.5 -63t-63 -42.5t-77 -15.5h-604q-41 0 -77 15.5t-63 42.5t-42.5 63t-15.5 77v303q0 41 15.5 77t42.5 63t63 43t77 16h604zM906 501q0 21 -8.5 40t-22.5 33.5t-33 22.5t-40 8h-604q-21 0 -40 -8
t-33 -22.5t-22.5 -33.5t-8.5 -40v-303q0 -21 8.5 -40t22.5 -33.5t33 -22.5t40 -8h604q21 0 40 8t33 22.5t22.5 33.5t8.5 40v303zM357 858l285 96v-100l-285 -96v100z" />
    <glyph glyph-name="Ocircumflex" unicode="&#xd4;" 
d="M802 700q41 0 77 -16t63 -43t42.5 -63t15.5 -77v-303q0 -41 -15.5 -77t-42.5 -63t-63 -42.5t-77 -15.5h-604q-41 0 -77 15.5t-63 42.5t-42.5 63t-15.5 77v303q0 41 15.5 77t42.5 63t63 43t77 16h604zM906 501q0 21 -8.5 40t-22.5 33.5t-33 22.5t-40 8h-604q-21 0 -40 -8
t-33 -22.5t-22.5 -33.5t-8.5 -40v-303q0 -21 8.5 -40t22.5 -33.5t33 -22.5t40 -8h604q21 0 40 8t33 22.5t22.5 33.5t8.5 40v303zM500 950l171 -86v-106l-171 87l-173 -87v106z" />
    <glyph glyph-name="Otilde" unicode="&#xd5;" 
d="M802 700q41 0 77 -16t63 -43t42.5 -63t15.5 -77v-303q0 -41 -15.5 -77t-42.5 -63t-63 -42.5t-77 -15.5h-604q-41 0 -77 15.5t-63 42.5t-42.5 63t-15.5 77v303q0 41 15.5 77t42.5 63t63 43t77 16h604zM906 501q0 21 -8.5 40t-22.5 33.5t-33 22.5t-40 8h-604q-21 0 -40 -8
t-33 -22.5t-22.5 -33.5t-8.5 -40v-303q0 -21 8.5 -40t22.5 -33.5t33 -22.5t40 -8h604q21 0 40 8t33 22.5t22.5 33.5t8.5 40v303zM755 868q-12 -14 -27.5 -32.5t-35 -36t-44 -29.5t-54.5 -12q-42 0 -67 11.5t-44 25.5t-35.5 26t-41.5 12q-12 0 -36.5 -20.5t-52.5 -54.5
l-72 60q11 13 26.5 32t35.5 36t44.5 29.5t54.5 12.5q22 0 41 -4.5t34.5 -12t27 -16t20.5 -15.5t15.5 -12t13 -8.5t15 -5t21.5 -2.5q11 0 35.5 21t53.5 56z" />
    <glyph glyph-name="Odieresis" unicode="&#xd6;" 
d="M802 700q41 0 77 -16t63 -43t42.5 -63t15.5 -77v-303q0 -41 -15.5 -77t-42.5 -63t-63 -42.5t-77 -15.5h-604q-41 0 -77 15.5t-63 42.5t-42.5 63t-15.5 77v303q0 41 15.5 77t42.5 63t63 43t77 16h604zM906 501q0 21 -8.5 40t-22.5 33.5t-33 22.5t-40 8h-604q-21 0 -40 -8
t-33 -22.5t-22.5 -33.5t-8.5 -40v-303q0 -21 8.5 -40t22.5 -33.5t33 -22.5t40 -8h604q21 0 40 8t33 22.5t22.5 33.5t8.5 40v303zM340 853h95v-95h-95v95zM566 853h95v-95h-95v95z" />
    <glyph glyph-name="Oslash" unicode="&#xd8;" horiz-adv-x="1101" 
d="M854 693q31 -9 58 -27t47 -43t31 -56t11 -65v-304q0 -41 -15.5 -77t-42.5 -63t-63.5 -42.5t-77.5 -15.5h-467l-49 -66h-119l50 66h-18q-41 0 -77.5 15.5t-63.5 42.5t-42.5 63t-15.5 77v304q0 41 15.5 77t42.5 63t63.5 42.5t77.5 15.5h542l50 66h117zM288 95l382 510h-471
q-22 0 -41 -8t-33.5 -22t-22.5 -33t-8 -40v-304q0 -21 8 -40t22.5 -33t33.5 -22t41 -8h89zM906 502q0 21 -8 40t-22 33t-33 22t-41 8h-14l-381 -510h395q22 0 41 8t33 22t22 33t8 40v304z" />
    <glyph glyph-name="Ugrave" unicode="&#xd9;" 
d="M906 699h94v-501q0 -41 -15.5 -77t-42.5 -63t-63 -42.5t-77 -15.5h-604q-41 0 -77 15.5t-63 42.5t-42.5 63t-15.5 77v501h95v-501q0 -21 8 -40t22 -33.5t33 -22.5t40 -8h604q21 0 40 8t33.5 22.5t22.5 33.5t8 40v501zM357 953l286 -95v-100l-286 95v100z" />
    <glyph glyph-name="Uacute" unicode="&#xda;" 
d="M906 699h94v-501q0 -41 -15.5 -77t-42.5 -63t-63 -42.5t-77 -15.5h-604q-41 0 -77 15.5t-63 42.5t-42.5 63t-15.5 77v501h95v-501q0 -21 8 -40t22 -33.5t33 -22.5t40 -8h604q21 0 40 8t33.5 22.5t22.5 33.5t8 40v501zM357 858l285 96v-100l-285 -96v100z" />
    <glyph glyph-name="Ucircumflex" unicode="&#xdb;" 
d="M906 699h94v-501q0 -41 -15.5 -77t-42.5 -63t-63 -42.5t-77 -15.5h-604q-41 0 -77 15.5t-63 42.5t-42.5 63t-15.5 77v501h95v-501q0 -21 8 -40t22 -33.5t33 -22.5t40 -8h604q21 0 40 8t33.5 22.5t22.5 33.5t8 40v501zM500 950l171 -86v-106l-171 87l-173 -87v106z" />
    <glyph glyph-name="Udieresis" unicode="&#xdc;" 
d="M906 699h94v-501q0 -41 -15.5 -77t-42.5 -63t-63 -42.5t-77 -15.5h-604q-41 0 -77 15.5t-63 42.5t-42.5 63t-15.5 77v501h95v-501q0 -21 8 -40t22 -33.5t33 -22.5t40 -8h604q21 0 40 8t33.5 22.5t22.5 33.5t8 40v501zM340 853h95v-95h-95v95zM566 853h95v-95h-95v95z" />
    <glyph glyph-name="Yacute" unicode="&#xdd;" horiz-adv-x="1022" 
d="M922 700l-413 -372v-328h-95v328l-414 372h141l321 -287l319 287h141zM319 858l285 96v-100l-285 -96v100z" />
    <glyph glyph-name="germandbls" unicode="&#xdf;" 
d="M802 397q41 0 77 -15.5t63 -42.5t42.5 -63.5t15.5 -77.5t-15.5 -77t-42.5 -63t-63 -42.5t-77 -15.5h-500v95h500q21 0 40 8t33 22t22 33t8 40q0 22 -8 41t-22 33t-33 22t-40 8q-41 0 -77 16t-63 43t-42.5 63.5t-15.5 77.5q0 21 -8 40t-22.5 33t-33.5 22t-40 8h-302
q-21 0 -40 -8t-33 -22t-22.5 -33t-8.5 -40v-502h-94v502q0 41 15.5 77t42.5 63t63 42.5t77 15.5h302q41 0 77 -15.5t63 -42.5t42.5 -63t15.5 -77q0 -44 30 -74t74 -31z" />
    <glyph glyph-name="agrave" unicode="&#xe0;" horiz-adv-x="798" 
d="M500 549q41 0 77 -15.5t63 -42.5t42.5 -63t15.5 -77v-351h-538q-33 0 -62.5 12.5t-51 34.5t-34 51.5t-12.5 62.5t12.5 62.5t34 51.5t51 34.5t62.5 12.5h443v29q0 21 -8 40t-22 33.5t-33 22.5t-40 8h-500v94h500zM603 227h-443q-28 0 -47 -19.5t-19 -46.5q0 -28 19 -47
t47 -19h443v132zM206 813l286 -95v-100l-286 95v100z" />
    <glyph glyph-name="aacute" unicode="&#xe1;" horiz-adv-x="798" 
d="M500 549q41 0 77 -15.5t63 -42.5t42.5 -63t15.5 -77v-351h-538q-33 0 -62.5 12.5t-51 34.5t-34 51.5t-12.5 62.5t12.5 62.5t34 51.5t51 34.5t62.5 12.5h443v29q0 21 -8 40t-22 33.5t-33 22.5t-40 8h-500v94h500zM603 227h-443q-28 0 -47 -19.5t-19 -46.5q0 -28 19 -47
t47 -19h443v132zM206 718l285 96v-100l-285 -96v100z" />
    <glyph glyph-name="acircumflex" unicode="&#xe2;" horiz-adv-x="798" 
d="M500 549q41 0 77 -15.5t63 -42.5t42.5 -63t15.5 -77v-351h-538q-33 0 -62.5 12.5t-51 34.5t-34 51.5t-12.5 62.5t12.5 62.5t34 51.5t51 34.5t62.5 12.5h443v29q0 21 -8 40t-22 33.5t-33 22.5t-40 8h-500v94h500zM603 227h-443q-28 0 -47 -19.5t-19 -46.5q0 -28 19 -47
t47 -19h443v132zM349 810l171 -86v-106l-171 87l-173 -87v106z" />
    <glyph glyph-name="atilde" unicode="&#xe3;" horiz-adv-x="798" 
d="M500 549q41 0 77 -15.5t63 -42.5t42.5 -63t15.5 -77v-351h-538q-33 0 -62.5 12.5t-51 34.5t-34 51.5t-12.5 62.5t12.5 62.5t34 51.5t51 34.5t62.5 12.5h443v29q0 21 -8 40t-22 33.5t-33 22.5t-40 8h-500v94h500zM603 227h-443q-28 0 -47 -19.5t-19 -46.5q0 -28 19 -47
t47 -19h443v132zM604 728q-12 -14 -27.5 -32.5t-35 -36t-44 -29.5t-54.5 -12q-42 0 -67 11.5t-44 25.5t-35.5 26t-41.5 12q-12 0 -36.5 -20.5t-52.5 -54.5l-72 60q11 13 26.5 32t35.5 36t44.5 29.5t54.5 12.5q22 0 41 -4.5t34.5 -12t27 -16t20.5 -15.5t15.5 -12t13 -8.5
t15 -5t21.5 -2.5q11 0 35.5 21t53.5 56z" />
    <glyph glyph-name="adieresis" unicode="&#xe4;" horiz-adv-x="798" 
d="M500 549q41 0 77 -15.5t63 -42.5t42.5 -63t15.5 -77v-351h-538q-33 0 -62.5 12.5t-51 34.5t-34 51.5t-12.5 62.5t12.5 62.5t34 51.5t51 34.5t62.5 12.5h443v29q0 21 -8 40t-22 33.5t-33 22.5t-40 8h-500v94h500zM603 227h-443q-28 0 -47 -19.5t-19 -46.5q0 -28 19 -47
t47 -19h443v132zM189 713h95v-95h-95v95zM415 713h95v-95h-95v95z" />
    <glyph glyph-name="aring" unicode="&#xe5;" horiz-adv-x="798" 
d="M500 549q41 0 77 -15.5t63 -42.5t42.5 -63t15.5 -77v-351h-538q-33 0 -62.5 12.5t-51 34.5t-34 51.5t-12.5 62.5t12.5 62.5t34 51.5t51 34.5t62.5 12.5h443v29q0 21 -8 40t-22 33.5t-33 22.5t-40 8h-500v94h500zM603 227h-443q-28 0 -47 -19.5t-19 -46.5q0 -28 19 -47
t47 -19h443v132zM349 776q33 0 62 -12.5t50.5 -34.5t34.5 -51.5t13 -62.5t-13 -62.5t-34.5 -51t-50.5 -34.5t-62 -13t-62.5 13t-51 34.5t-34 51t-12.5 62.5t12.5 62.5t34 51.5t51 34.5t62.5 12.5zM349 549q27 0 46.5 19.5t19.5 46.5q0 28 -19.5 47t-46.5 19q-28 0 -47.5 -19
t-19.5 -47q0 -27 19.5 -46.5t47.5 -19.5z" />
    <glyph glyph-name="ae" unicode="&#xe6;" horiz-adv-x="1402" 
d="M652 479q26 32 65 51t85 19h500v-94h-500q-21 0 -40 -8.5t-33 -22.5t-22 -33.5t-8 -41.5v-27h603v-95h-603v-132h603v-95h-1142q-33 0 -62.5 12.5t-51 34.5t-34 51.5t-12.5 62.5t12.5 62.5t34 51t51 34.5t62.5 13h444v27q0 22 -8 41.5t-22 33.5t-33 22.5t-41 8.5h-500v94
h500q46 0 85 -19t67 -51zM604 227h-444q-27 0 -46.5 -19.5t-19.5 -46.5q0 -28 19.5 -47t46.5 -19h444v132z" />
    <glyph glyph-name="ccedilla" unicode="&#xe7;" horiz-adv-x="799" 
d="M699 549v-94h-500q-22 0 -41 -8.5t-33 -22.5t-22 -33.5t-8 -41.5v-151q0 -21 8 -40t22 -33t33 -22t41 -8h500v-95h-301v-47q0 -20 -7.5 -37t-20.5 -30t-30.5 -20.5t-37.5 -7.5v38q23 0 40.5 17t17.5 40h-58v47h-103q-41 0 -77.5 15.5t-63.5 42.5t-42.5 63t-15.5 77v151
q0 42 15.5 78.5t42.5 63.5t63.5 42.5t77.5 15.5h500z" />
    <glyph glyph-name="egrave" unicode="&#xe8;" horiz-adv-x="799" 
d="M0 351q0 41 15.5 77t42.5 63t63.5 42.5t77.5 15.5h500v-94h-500q-22 0 -41 -8t-33 -22.5t-22 -33.5t-8 -40v-29h604v-95h-604v-28q0 -21 8 -40t22 -33.5t33 -22.5t41 -8h500v-95h-500q-41 0 -77.5 16t-63.5 43t-42.5 63t-15.5 77v152zM207 813l286 -95v-100l-286 95v100z
" />
    <glyph glyph-name="eacute" unicode="&#xe9;" horiz-adv-x="799" 
d="M0 351q0 41 15.5 77t42.5 63t63.5 42.5t77.5 15.5h500v-94h-500q-22 0 -41 -8t-33 -22.5t-22 -33.5t-8 -40v-29h604v-95h-604v-28q0 -21 8 -40t22 -33.5t33 -22.5t41 -8h500v-95h-500q-41 0 -77.5 16t-63.5 43t-42.5 63t-15.5 77v152zM207 718l285 96v-100l-285 -96v100z
" />
    <glyph glyph-name="ecircumflex" unicode="&#xea;" horiz-adv-x="799" 
d="M0 351q0 41 15.5 77t42.5 63t63.5 42.5t77.5 15.5h500v-94h-500q-22 0 -41 -8t-33 -22.5t-22 -33.5t-8 -40v-29h604v-95h-604v-28q0 -21 8 -40t22 -33.5t33 -22.5t41 -8h500v-95h-500q-41 0 -77.5 16t-63.5 43t-42.5 63t-15.5 77v152zM350 810l171 -86v-106l-171 87
l-173 -87v106z" />
    <glyph glyph-name="edieresis" unicode="&#xeb;" horiz-adv-x="799" 
d="M0 351q0 41 15.5 77t42.5 63t63.5 42.5t77.5 15.5h500v-94h-500q-22 0 -41 -8t-33 -22.5t-22 -33.5t-8 -40v-29h604v-95h-604v-28q0 -21 8 -40t22 -33.5t33 -22.5t41 -8h500v-95h-500q-41 0 -77.5 16t-63.5 43t-42.5 63t-15.5 77v152zM190 713h95v-95h-95v95zM416 713h95
v-95h-95v95z" />
    <glyph glyph-name="igrave" unicode="&#xec;" horiz-adv-x="194" 
d="M0 549h94v-549h-94v549zM-96 813l286 -95v-100l-286 95v100z" />
    <glyph glyph-name="iacute" unicode="&#xed;" horiz-adv-x="194" 
d="M0 549h94v-549h-94v549zM-96 718l285 96v-100l-285 -96v100z" />
    <glyph glyph-name="icircumflex" unicode="&#xee;" horiz-adv-x="194" 
d="M0 549h94v-549h-94v549zM47 810l171 -86v-106l-171 87l-173 -87v106z" />
    <glyph glyph-name="idieresis" unicode="&#xef;" horiz-adv-x="194" 
d="M0 549h94v-549h-94v549zM-113 713h95v-95h-95v95zM113 713h95v-95h-95v95z" />
    <glyph glyph-name="ntilde" unicode="&#xf1;" horiz-adv-x="798" 
d="M501 549q40 0 76 -15.5t63 -42.5t42.5 -63t15.5 -77v-351h-94v351q0 21 -8 40t-22.5 33.5t-33 22.5t-39.5 8h-407v-455h-94v549h501zM604 728q-12 -14 -27.5 -32.5t-35 -36t-44 -29.5t-54.5 -12q-42 0 -67 11.5t-44 25.5t-35.5 26t-41.5 12q-12 0 -36.5 -20.5
t-52.5 -54.5l-72 60q11 13 26.5 32t35.5 36t44.5 29.5t54.5 12.5q22 0 41 -4.5t34.5 -12t27 -16t20.5 -15.5t15.5 -12t13 -8.5t15 -5t21.5 -2.5q11 0 35.5 21t53.5 56z" />
    <glyph glyph-name="ograve" unicode="&#xf2;" horiz-adv-x="799" 
d="M501 549q41 0 77 -15.5t62.5 -42.5t42.5 -63t16 -77l-1 -152q0 -41 -15.5 -77t-42.5 -63t-62.5 -43t-76.5 -16h-303q-41 0 -77 16t-63 43t-42.5 63t-15.5 77v152q0 41 15.5 77t42.5 63t63 42.5t77 15.5h303zM604 351q0 21 -8 40t-22 33.5t-33 22.5t-40 8h-303
q-21 0 -40 -8t-33 -22.5t-22 -33.5t-8 -40v-152q0 -21 8 -40t22 -33.5t33 -22.5t40 -8h303q21 0 40 8t33 22.5t22 33.5t8 40v152zM206 813l286 -95v-100l-286 95v100z" />
    <glyph glyph-name="oacute" unicode="&#xf3;" horiz-adv-x="799" 
d="M501 549q41 0 77 -15.5t62.5 -42.5t42.5 -63t16 -77l-1 -152q0 -41 -15.5 -77t-42.5 -63t-62.5 -43t-76.5 -16h-303q-41 0 -77 16t-63 43t-42.5 63t-15.5 77v152q0 41 15.5 77t42.5 63t63 42.5t77 15.5h303zM604 351q0 21 -8 40t-22 33.5t-33 22.5t-40 8h-303
q-21 0 -40 -8t-33 -22.5t-22 -33.5t-8 -40v-152q0 -21 8 -40t22 -33.5t33 -22.5t40 -8h303q21 0 40 8t33 22.5t22 33.5t8 40v152zM206 718l285 96v-100l-285 -96v100z" />
    <glyph glyph-name="ocircumflex" unicode="&#xf4;" horiz-adv-x="799" 
d="M501 549q41 0 77 -15.5t62.5 -42.5t42.5 -63t16 -77l-1 -152q0 -41 -15.5 -77t-42.5 -63t-62.5 -43t-76.5 -16h-303q-41 0 -77 16t-63 43t-42.5 63t-15.5 77v152q0 41 15.5 77t42.5 63t63 42.5t77 15.5h303zM604 351q0 21 -8 40t-22 33.5t-33 22.5t-40 8h-303
q-21 0 -40 -8t-33 -22.5t-22 -33.5t-8 -40v-152q0 -21 8 -40t22 -33.5t33 -22.5t40 -8h303q21 0 40 8t33 22.5t22 33.5t8 40v152zM349 810l171 -86v-106l-171 87l-173 -87v106z" />
    <glyph glyph-name="otilde" unicode="&#xf5;" horiz-adv-x="799" 
d="M501 549q41 0 77 -15.5t62.5 -42.5t42.5 -63t16 -77l-1 -152q0 -41 -15.5 -77t-42.5 -63t-62.5 -43t-76.5 -16h-303q-41 0 -77 16t-63 43t-42.5 63t-15.5 77v152q0 41 15.5 77t42.5 63t63 42.5t77 15.5h303zM604 351q0 21 -8 40t-22 33.5t-33 22.5t-40 8h-303
q-21 0 -40 -8t-33 -22.5t-22 -33.5t-8 -40v-152q0 -21 8 -40t22 -33.5t33 -22.5t40 -8h303q21 0 40 8t33 22.5t22 33.5t8 40v152zM604 728q-12 -14 -27.5 -32.5t-35 -36t-44 -29.5t-54.5 -12q-42 0 -67 11.5t-44 25.5t-35.5 26t-41.5 12q-12 0 -36.5 -20.5t-52.5 -54.5
l-72 60q11 13 26.5 32t35.5 36t44.5 29.5t54.5 12.5q22 0 41 -4.5t34.5 -12t27 -16t20.5 -15.5t15.5 -12t13 -8.5t15 -5t21.5 -2.5q11 0 35.5 21t53.5 56z" />
    <glyph glyph-name="odieresis" unicode="&#xf6;" horiz-adv-x="799" 
d="M501 549q41 0 77 -15.5t62.5 -42.5t42.5 -63t16 -77l-1 -152q0 -41 -15.5 -77t-42.5 -63t-62.5 -43t-76.5 -16h-303q-41 0 -77 16t-63 43t-42.5 63t-15.5 77v152q0 41 15.5 77t42.5 63t63 42.5t77 15.5h303zM604 351q0 21 -8 40t-22 33.5t-33 22.5t-40 8h-303
q-21 0 -40 -8t-33 -22.5t-22 -33.5t-8 -40v-152q0 -21 8 -40t22 -33.5t33 -22.5t40 -8h303q21 0 40 8t33 22.5t22 33.5t8 40v152zM189 713h95v-95h-95v95zM415 713h95v-95h-95v95z" />
    <glyph glyph-name="oslash" unicode="&#xf8;" horiz-adv-x="799" 
d="M563 539q30 -10 55 -28.5t43 -43t28 -55t10 -63.5v-151q0 -41 -15.5 -77t-42.5 -63t-63 -42.5t-77 -15.5h-261l-40 -66h-109l46 76q-30 10 -55 28t-43 42.5t-28.5 54.5t-10.5 63v151q0 42 15.5 78.5t42.5 63.5t63.5 42.5t77.5 15.5h261l39 66h110zM95 198q0 -40 26.5 -69
t65.5 -33l216 359h-204q-22 0 -41 -8.5t-33 -22.5t-22 -33.5t-8 -41.5v-151zM605 349q0 42 -27 71t-65 34l-216 -359h204q22 0 41 8t33 22t22 33t8 40v151z" />
    <glyph glyph-name="ugrave" unicode="&#xf9;" horiz-adv-x="798" 
d="M604 549h94v-549h-501q-41 0 -76.5 16t-62.5 43t-42.5 63t-15.5 77v350h94v-350q0 -21 8 -40t22.5 -33.5t33 -22.5t39.5 -8h407v454zM206 813l286 -95v-100l-286 95v100z" />
    <glyph glyph-name="uacute" unicode="&#xfa;" horiz-adv-x="798" 
d="M604 549h94v-549h-501q-41 0 -76.5 16t-62.5 43t-42.5 63t-15.5 77v350h94v-350q0 -21 8 -40t22.5 -33.5t33 -22.5t39.5 -8h407v454zM206 718l285 96v-100l-285 -96v100z" />
    <glyph glyph-name="ucircumflex" unicode="&#xfb;" horiz-adv-x="798" 
d="M604 549h94v-549h-501q-41 0 -76.5 16t-62.5 43t-42.5 63t-15.5 77v350h94v-350q0 -21 8 -40t22.5 -33.5t33 -22.5t39.5 -8h407v454zM349 810l171 -86v-106l-171 87l-173 -87v106z" />
    <glyph glyph-name="udieresis" unicode="&#xfc;" horiz-adv-x="798" 
d="M604 549h94v-549h-501q-41 0 -76.5 16t-62.5 43t-42.5 63t-15.5 77v350h94v-350q0 -21 8 -40t22.5 -33.5t33 -22.5t39.5 -8h407v454zM189 713h95v-95h-95v95zM415 713h95v-95h-95v95z" />
    <glyph glyph-name="yacute" unicode="&#xfd;" horiz-adv-x="799" 
d="M605 549h94v-577q0 -41 -15.5 -77t-42.5 -63t-63 -42.5t-77 -15.5h-501v94h501q21 0 40 8t33.5 22.5t22.5 33.5t8 40v28h-406q-41 0 -77.5 16t-63.5 43t-42.5 63t-15.5 77v350h95v-350q0 -21 8 -40t22 -33.5t33 -22.5t41 -8h406v454zM206 718l285 96v-100l-285 -96v100z
" />
    <glyph glyph-name="ydieresis" unicode="&#xff;" horiz-adv-x="799" 
d="M605 549h94v-577q0 -41 -15.5 -77t-42.5 -63t-63 -42.5t-77 -15.5h-501v94h501q21 0 40 8t33.5 22.5t22.5 33.5t8 40v28h-406q-41 0 -77.5 16t-63.5 43t-42.5 63t-15.5 77v350h95v-350q0 -21 8 -40t22 -33.5t33 -22.5t41 -8h406v454zM189 713h95v-95h-95v95zM415 713h95
v-95h-95v95z" />
    <glyph glyph-name="dotlessi" unicode="&#x131;" horiz-adv-x="194" 
d="M0 549h94v-549h-94v549z" />
    <glyph glyph-name="OE" unicode="&#x152;" horiz-adv-x="1780" 
d="M925 397h755v-95h-755v-104q0 -21 8 -40t22 -33t33 -22t40 -8h652v-95h-652q-45 0 -84 19t-66 51q-28 -32 -66.5 -51t-84.5 -19h-529q-41 0 -77 15.5t-63 42.5t-42.5 63t-15.5 77v304q0 41 15.5 77t42.5 63t63 42.5t77 15.5h529q46 0 84.5 -19t66.5 -51q27 32 66 51
t84 19h652v-95h-652q-21 0 -40 -8t-33 -22t-22 -33t-8 -40v-105zM727 95q21 0 40 8t33 22t22 33t8 40v304q0 21 -8 40t-22 33t-33 22t-40 8h-529q-22 0 -41 -8t-33 -22t-22 -33t-8 -40v-304q0 -21 8 -40t22 -33t33 -22t41 -8h529z" />
    <glyph glyph-name="oe" unicode="&#x153;" horiz-adv-x="1402" 
d="M698 322h604v-95h-604v-29q0 -21 8 -40t22 -33t33 -22t41 -8h500v-95h-500q-46 0 -85 19t-67 51q-26 -32 -65 -51t-85 -19h-303q-41 0 -77 15.5t-62.5 42.5t-42 63t-15.5 77v151q0 42 15.5 78.5t42 63.5t62.5 42.5t77 15.5h303q46 0 85 -19t65 -51q28 32 67 51t85 19h500
v-94h-500q-22 0 -41 -8.5t-33 -22.5t-22 -33.5t-8 -41.5v-27zM500 95q21 0 40 8t33 22t22 33t8 40v151q0 22 -8 41.5t-22 33.5t-33 22.5t-40 8.5h-303q-21 0 -40 -8.5t-33 -22.5t-22 -33.5t-8 -41.5v-151q0 -21 8 -40t22 -33t33 -22t40 -8h303z" />
    <glyph glyph-name="Ydieresis" unicode="&#x178;" horiz-adv-x="1022" 
d="M922 700l-413 -372v-328h-95v328l-414 372h141l321 -287l319 287h141zM302 853h95v-95h-95v95zM528 853h95v-95h-95v95z" />
    <glyph glyph-name="circumflex" unicode="&#x2c6;" horiz-adv-x="444" 
d="M173 810l171 -86v-106l-171 87l-173 -87v106z" />
    <glyph glyph-name="ring" unicode="&#x2da;" horiz-adv-x="420" 
d="M160 776q33 0 62 -12.5t50.5 -34.5t34.5 -51.5t13 -62.5t-13 -62.5t-34.5 -51t-50.5 -34.5t-62 -13t-62.5 13t-51 34.5t-34 51t-12.5 62.5t12.5 62.5t34 51.5t51 34.5t62.5 12.5zM160 549q27 0 46.5 19.5t19.5 46.5q0 28 -19.5 47t-46.5 19q-28 0 -47.5 -19t-19.5 -47
q0 -27 19.5 -46.5t47.5 -19.5z" />
    <glyph glyph-name="tilde" unicode="&#x2dc;" horiz-adv-x="610" 
d="M510 728q-12 -14 -27.5 -32.5t-35 -36t-44 -29.5t-54.5 -12q-42 0 -67 11.5t-44 25.5t-35.5 26t-41.5 12q-12 0 -36.5 -20.5t-52.5 -54.5l-72 60q11 13 26.5 32t35.5 36t44.5 29.5t54.5 12.5q22 0 41 -4.5t34.5 -12t27 -16t20.5 -15.5t15.5 -12t13 -8.5t15 -5t21.5 -2.5
q11 0 35.5 21t53.5 56z" />
    <glyph glyph-name="endash" unicode="&#x2013;" horiz-adv-x="648" 
d="M0 322h548v-95h-548v95z" />
    <glyph glyph-name="emdash" unicode="&#x2014;" horiz-adv-x="798" 
d="M0 322h698v-95h-698v95z" />
    <glyph glyph-name="quoteleft" unicode="&#x2018;" horiz-adv-x="194" 
d="M94 663q-24 0 -40.5 -17t-16.5 -40h57v-95h-94v95q0 19 7.5 36.5t20 30t29.5 20t37 7.5v-37v0z" />
    <glyph glyph-name="quoteright" unicode="&#x2019;" horiz-adv-x="194" 
d="M0 700h94v-94q0 -20 -7.5 -37t-20 -30t-30 -20.5t-36.5 -7.5v39q23 0 39.5 16.5t17.5 39.5h-57v94z" />
    <glyph glyph-name="quotedblleft" unicode="&#x201c;" horiz-adv-x="345" 
d="M94 663q-23 0 -39.5 -17t-16.5 -40h56v-95h-94v95q0 19 7.5 36.5t20 30t29.5 20t37 7.5v-37zM245 663q-23 0 -39.5 -17t-17.5 -40h57v-95h-94v95q0 19 7.5 36.5t20.5 30t30 20t36 7.5v-37z" />
    <glyph glyph-name="quotedblright" unicode="&#x201d;" horiz-adv-x="344" 
d="M150 700h94v-94q0 -20 -7 -37t-20 -30t-30 -20.5t-37 -7.5v39q24 0 40.5 16.5t16.5 39.5h-57v94zM0 700h94v-94q0 -20 -7.5 -37t-20 -30t-30 -20.5t-36.5 -7.5v39q23 0 39.5 16.5t16.5 39.5h-56v94z" />
    <glyph glyph-name="bullet" unicode="&#x2022;" horiz-adv-x="497" 
d="M198 473q41 0 77 -15.5t63 -42.5t43 -63.5t16 -77.5t-16 -77t-43 -63t-63 -42.5t-77 -15.5t-77 15.5t-63 42.5t-42.5 63t-15.5 77t15.5 77.5t42.5 63.5t63 42.5t77 15.5z" />
    <glyph glyph-name="Euro" unicode="&#x20ac;" 
d="M1000 700v-95h-651q-22 0 -41 -8t-33 -22t-22 -33t-8 -40v-10h529v-94h-529v-96h529v-94h-529v-10q0 -21 8 -40t22 -33t33 -22t41 -8h651v-95h-651q-41 0 -77 15.5t-63 42.5t-42.5 63t-15.5 77v10h-151v94h151v96h-151v94h151v10q0 41 15.5 77t42.5 63t63 42.5t77 15.5
h651z" />
    <glyph glyph-name="trademark" unicode="&#x2122;" horiz-adv-x="1044" 
d="M790 700h154v-321h-94v219l-91 -219h-101l-91 219v-219h-94v321h154l81 -197zM397 605h-151v-226h-94v226h-152v95h397v-95z" />
    </font>
</defs>
</svg>
