<?xml version="1.0" standalone="no"?>
<!DOCTYPE svg PUBLIC "-//W3C//DTD SVG 1.1//EN" "http://www.w3.org/Graphics/SVG/1.1/DTD/svg11.dtd" >
<svg xmlns="http://www.w3.org/2000/svg" xmlns:xlink="http://www.w3.org/1999/xlink" version="1.1">
<metadata>
Created by FontForge 20190801 at Fri Dec  5 23:13:04 2014
 By Jimmy Wärting
Copyright (c) 2008 by Fonthead Design Inc.. All rights reserved.
</metadata>
<defs>
<font id="TachyonW00-Hairline" horiz-adv-x="801" >
  <font-face 
    font-family="TachyonW00-Hairline"
    font-weight="400"
    font-stretch="normal"
    units-per-em="1000"
    panose-1="2 0 0 0 0 0 0 0 0 0"
    ascent="800"
    descent="-200"
    x-height="528"
    cap-height="700"
    bbox="0 -261 1822 959"
    underline-thickness="50"
    underline-position="-175"
    unicode-range="U+0020-2122"
  />
<missing-glyph horiz-adv-x="476" 
 />
    <glyph glyph-name=".notdef" horiz-adv-x="476" 
 />
    <glyph glyph-name=".null" horiz-adv-x="0" 
 />
    <glyph glyph-name="nonmarkingreturn" horiz-adv-x="333" 
 />
    <glyph glyph-name="space" unicode=" " horiz-adv-x="550" 
 />
    <glyph glyph-name="exclam" unicode="!" horiz-adv-x="110" 
d="M0 701h10v-615h-10v615zM0 45h10v-45h-10v45z" />
    <glyph glyph-name="quotedbl" unicode="&#x22;" horiz-adv-x="218" 
d="M0 701h10v-205h-10v205zM107 701h11v-205h-11v205z" />
    <glyph glyph-name="numbersign" unicode="#" horiz-adv-x="715" 
d="M443 269h172v-11h-172v-172h-11v172h-248v-172h-11v172h-173v11h173v249h-173v10h173v173h11v-173h248v173h11v-173h172v-10h-172v-249zM432 269v249h-248v-249h248z" />
    <glyph glyph-name="dollar" unicode="$" 
d="M566 356q28 0 52.5 -10.5t43 -29t29 -43t10.5 -52.5t-10.5 -52.5t-29 -43t-43 -29t-52.5 -10.5h-210v-86h-11v86h-345v11h345v248h-210q-28 0 -52.5 10.5t-43 28.5t-29 42.5t-10.5 52.5t10.5 52.5t29 43t43 29t52.5 10.5h210v87h11v-87h345v-11h-345v-247h210zM345 356
v247h-210q-26 0 -48.5 -9.5t-39.5 -26.5t-26.5 -39.5t-9.5 -48.5t9.5 -48t26.5 -39t39.5 -26.5t48.5 -9.5h210zM566 97q26 0 48.5 10t39.5 26.5t26.5 39t9.5 48.5t-9.5 48.5t-26.5 39.5t-39.5 26.5t-48.5 9.5h-221v-248h221z" />
    <glyph glyph-name="percent" unicode="%" horiz-adv-x="1146" 
d="M702 697l-349 -699l-10 5l350 700zM355 523q0 -19 -7 -36t-19.5 -29.5t-29 -19.5t-35.5 -7h-172q-19 0 -36 7t-29.5 19.5t-19.5 29.5t-7 36v86q0 19 7 36t19.5 29.5t29.5 19.5t36 7h172q19 0 35.5 -7t29 -19.5t19.5 -29.5t7 -36v-86zM345 609q0 34 -23.5 57t-57.5 23
h-172q-34 0 -58 -23t-24 -57v-86q0 -34 24 -57.5t58 -23.5h172q34 0 57.5 23.5t23.5 57.5v86zM954 269q19 0 36 -7t29.5 -19.5t19.5 -29t7 -35.5v-87q0 -19 -7 -35.5t-19.5 -29t-29.5 -19.5t-36 -7h-173q-38 0 -64.5 26.5t-26.5 64.5v87q0 38 26.5 64.5t64.5 26.5h173z
M1035 178q0 34 -24 57t-57 23h-173q-34 0 -57 -23t-23 -57v-87q0 -33 23.5 -56.5t56.5 -23.5h173q33 0 57 23.5t24 56.5v87z" />
    <glyph glyph-name="ampersand" unicode="&#x26;" horiz-adv-x="1145" 
d="M872 356h173v-11h-173v-345h-694q-37 0 -69.5 14t-56.5 38t-38 56.5t-14 69.5q0 31 10 59t28 51t43 39t54 23q-29 7 -54 23t-43 39t-28 51t-10 60q0 36 14 68.5t38 57t56.5 38.5t69.5 14h350v-11h-350q-35 0 -65.5 -13.5t-53.5 -36t-36 -53t-13 -64.5q0 -35 13 -65.5
t36 -53t53.5 -35.5t65.5 -13h683v172h11v-172zM861 345h-683q-35 0 -65.5 -13t-53.5 -36t-36 -53.5t-13 -64.5q0 -35 13 -65t36 -53t53.5 -36t65.5 -13h683v334z" />
    <glyph glyph-name="quotesingle" unicode="'" horiz-adv-x="111" 
d="M0 701h11v-183h-11v183z" />
    <glyph glyph-name="parenleft" unicode="(" horiz-adv-x="194" 
d="M83 788l11 -3l-3 -5q-37 -102 -58 -236t-21 -287q0 -149 20 -278.5t55 -229.5l1 -6l-10 -3l-2 5q-35 101 -55.5 232t-20.5 280q0 154 21.5 288.5t59.5 237.5z" />
    <glyph glyph-name="parenright" unicode=")" horiz-adv-x="193" 
d="M13 783q38 -103 59 -237t21 -289q0 -149 -20.5 -280t-55.5 -232l-2 -5l-10 3l2 6q35 100 55 229.5t20 278.5q0 153 -21 287t-59 236l-2 5l10 3z" />
    <glyph glyph-name="asterisk" unicode="*" horiz-adv-x="606" 
d="M506 513l-244 -79l151 -208l-9 -6l-151 207l-151 -207l-8 6l150 208l-244 79l4 10l244 -80v258h10v-257l244 79z" />
    <glyph glyph-name="plus" unicode="+" horiz-adv-x="629" 
d="M270 269h259v-11h-259v-258h-10v258h-260v11h260v259h10v-259z" />
    <glyph glyph-name="comma" unicode="," horiz-adv-x="164" 
d="M53 45h11v-40q0 -23 -14 -50t-42 -41l-4 -2l-4 9l4 3q24 11 36.5 36t12.5 45v40z" />
    <glyph glyph-name="hyphen" unicode="-" horiz-adv-x="456" 
d="M0 269h356v-11h-356v11z" />
    <glyph glyph-name="period" unicode="." horiz-adv-x="110" 
d="M0 45h10v-45h-10v45z" />
    <glyph glyph-name="slash" unicode="/" horiz-adv-x="459" 
d="M350 703l9 -6l-350 -699l-9 5z" />
    <glyph glyph-name="zero" unicode="0" horiz-adv-x="1146" 
d="M868 701q37 0 69.5 -14t56.5 -38t38 -56.5t14 -69.5v-345q0 -37 -14 -69.5t-38 -56.5t-56.5 -38t-69.5 -14h-690q-37 0 -69.5 14t-56.5 38t-38 56.5t-14 69.5v345q0 37 14 69.5t38 56.5t56.5 38t69.5 14h690zM1035 523q0 34 -13 64.5t-36 53t-53.5 36t-64.5 13.5h-690
q-35 0 -65 -13.5t-53 -36t-36 -53t-13 -64.5v-345q0 -35 13 -65t36 -53t53 -36t65 -13h690q34 0 64.5 13t53.5 36t36 53t13 65v345z" />
    <glyph glyph-name="one" unicode="1" horiz-adv-x="286" 
d="M0 701h186v-701h-11v689h-175v12z" />
    <glyph glyph-name="two" unicode="2" horiz-adv-x="1146" 
d="M178 345q-34 0 -64.5 -13t-53 -36t-36 -53.5t-13.5 -64.5v-167h1035v-11h-1046v178q0 37 14 69.5t38 56.5t56.5 38t69.5 14h690q34 0 64.5 13t53.5 35.5t36 53t13 65.5q0 34 -13 64.5t-36 53t-53.5 36t-64.5 13.5h-868v11h868q37 0 69.5 -14t56.5 -38t38 -56.5t14 -69.5
t-14 -69.5t-38 -56.5t-56.5 -38t-69.5 -14h-690v0z" />
    <glyph glyph-name="three" unicode="3" horiz-adv-x="1146" 
d="M1046 523q0 -31 -10 -59t-28 -51t-42.5 -39.5t-53.5 -23.5q29 -7 53.5 -23t42.5 -39t28 -51t10 -59q0 -37 -14 -69.5t-38 -56.5t-56.5 -38t-69.5 -14h-868v11h868q34 0 64.5 13t53.5 36t36 53t13 65q0 34 -13 64.5t-36 53t-53.5 36t-64.5 13.5h-868v11h868q34 0 64.5 13
t53.5 36t36 53t13 65q0 34 -13 64.5t-36 53t-53.5 36t-64.5 13.5h-868v11h868q37 0 69.5 -14t56.5 -38t38 -56.5t14 -69.5z" />
    <glyph glyph-name="four" unicode="4" horiz-adv-x="1146" 
d="M1046 269v-269h-11v258h-857q-36 0 -68.5 14t-57 38t-38.5 56.5t-14 69.5v265h11v-265q0 -35 13.5 -65t36 -52.5t53 -36t64.5 -13.5h857v432h11v-432z" />
    <glyph glyph-name="five" unicode="5" horiz-adv-x="1146" 
d="M1041 701h5v-11h-1035v-334h857q36 0 68.5 -14t57 -38t38.5 -56.5t14 -69.5t-14 -69.5t-38.5 -56.5t-57 -38t-68.5 -14h-868v11h868q34 0 64.5 13t53 36t36 53t13.5 65q0 34 -13.5 64.5t-36 53.5t-53 36t-64.5 13h-868v356h1041z" />
    <glyph glyph-name="six" unicode="6" horiz-adv-x="1145" 
d="M1039 701h6v-11h-868q-35 0 -65.5 -13.5t-53 -36t-35.5 -53t-13 -64.5v-167h857q37 0 69.5 -14t56.5 -38t38 -56.5t14 -69.5t-14 -69.5t-38 -56.5t-56.5 -38t-69.5 -14h-690q-37 0 -69 14t-56 38t-38 56.5t-14 69.5v345q0 37 14 69.5t38 56.5t56 38t69 14h862zM10 345
v-167q0 -35 13 -65t35.5 -53t53 -36t65.5 -13h690q35 0 65.5 13t53 36t35.5 53t13 65q0 34 -13 64.5t-35.5 53.5t-53 36t-65.5 13h-857z" />
    <glyph glyph-name="seven" unicode="7" horiz-adv-x="1146" 
d="M978 701q28 0 48 -20t20 -49q0 -15 -5 -26.5t-13 -20.5l-515 -588l-8 7l515 588q7 8 11.5 18t4.5 22q0 23 -17 40t-41 18h-978v11h978v0z" />
    <glyph glyph-name="eight" unicode="8" horiz-adv-x="1145" 
d="M1045 523q0 -32 -10 -60t-28 -51t-43 -39t-54 -23q29 -7 54 -23t43 -39t28 -51t10 -59q0 -37 -14 -69.5t-38 -56.5t-56.5 -38t-68.5 -14h-690q-37 0 -69.5 14t-56.5 38t-38 56.5t-14 69.5q0 31 10 59t28 51t43 39t54 23q-29 7 -54 23t-43 39t-28 51t-10 60q0 36 14 68.5
t38 57t56.5 38.5t69.5 14h690q36 0 68.5 -14t56.5 -38.5t38 -57t14 -68.5zM1034 178q0 34 -13 64.5t-35.5 53.5t-53 36t-64.5 13h-6h-684q-35 0 -65.5 -13.5t-53.5 -36t-36 -53t-13 -64.5q0 -35 13 -65t36 -53t53.5 -36t65.5 -13h690q34 0 64.5 13t53 36t35.5 53t13 65z
M868 356q34 0 64.5 13t53 35.5t35.5 53t13 65.5q0 34 -13 64.5t-35.5 53t-53 36t-64.5 13.5h-690q-35 0 -65.5 -13.5t-53.5 -36t-36 -53t-13 -64.5q0 -35 13 -65.5t36 -53t53.5 -35.5t65.5 -13h5h685z" />
    <glyph glyph-name="nine" unicode="9" horiz-adv-x="1146" 
d="M868 701q37 0 69.5 -14t56.5 -38t38 -56.5t14 -69.5v-345q0 -37 -14 -69.5t-38 -56.5t-56.5 -38t-69.5 -14h-868v11h868q34 0 65 13t53.5 36t36 53t13.5 65v167h-858q-37 0 -69.5 14t-56.5 38t-38 56.5t-14 69.5t14 69.5t38 56.5t56.5 38t69.5 14h690zM1036 523
q0 34 -13.5 64.5t-36 53t-53.5 36t-65 13.5h-690q-35 0 -65 -13.5t-53 -36t-36 -53t-13 -64.5q0 -35 13 -65.5t36 -53t53 -35.5t65 -13h858v167z" />
    <glyph glyph-name="colon" unicode=":" horiz-adv-x="111" 
d="M0 45h11v-45h-11v45zM0 442h11v-45h-11v45z" />
    <glyph glyph-name="semicolon" unicode=";" horiz-adv-x="165" 
d="M65 397h-11v45h11v-45zM54 45h11v-40q0 -23 -13.5 -50t-41.5 -41l-5 -2l-5 9l5 3q24 11 36.5 36t12.5 45v40z" />
    <glyph glyph-name="less" unicode="&#x3c;" horiz-adv-x="636" 
d="M536 607l-514 -299l514 -301l-5 -9l-531 310l531 308z" />
    <glyph glyph-name="equal" unicode="=" horiz-adv-x="628" 
d="M528 431h-528v11h528v-11zM0 183h528v-10h-528v10z" />
    <glyph glyph-name="greater" unicode="&#x3e;" horiz-adv-x="636" 
d="M6 616l530 -308l-530 -310l-6 9l515 301l-515 299z" />
    <glyph glyph-name="question" unicode="?" 
d="M523 701q37 0 69.5 -14t56.5 -38t38 -56.5t14 -69.5t-14 -69.5t-38 -56.5t-56.5 -38t-69.5 -14h-431q-34 0 -57 -24t-24 -57v-178h-11v178q0 19 7 36t19.5 29.5t29.5 19.5t36 7h431q35 0 65.5 13t53 35.5t35.5 53t13 65.5q0 34 -13 64.5t-35.5 53t-53 36t-65.5 13.5h-523
v11h523zM3 45h10v-45h-10v45z" />
    <glyph glyph-name="at" unicode="@" horiz-adv-x="1145" 
d="M868 701q37 0 69 -14t56 -38t38 -56.5t14 -69.5v-238q0 -38 -29.5 -64.5t-82.5 -26.5h-626q-11 0 -23 7.5t-22.5 19.5t-17.5 28.5t-7 35.5v130q0 19 7 36t19.5 29.5t29 19.5t35.5 7h389q19 0 35.5 -7t29 -19.5t20 -29.5t7.5 -36v-210h124q51 0 76.5 23.5t25.5 56.5v238
q0 34 -13 64.5t-35.5 53t-53 36t-65.5 13.5h-690q-35 0 -65.5 -13.5t-53 -36t-35.5 -53t-13 -64.5v-345q0 -35 13 -65t35.5 -53t53 -36t65.5 -13h867v-11h-867q-37 0 -69.5 14t-56.5 38t-38 56.5t-14 69.5v345q0 37 14 69.5t38 56.5t56.5 38t69.5 14h690zM798 415
q0 34 -23.5 57.5t-57.5 23.5h-389q-16 0 -30.5 -6.5t-25.5 -17.5t-17.5 -25.5t-6.5 -31.5v-130q0 -17 6 -31.5t15 -25t19 -17t19 -6.5h491v210z" />
    <glyph glyph-name="A" unicode="A" horiz-adv-x="1114" 
d="M1014 4l-8 -6l-157 260h-684l-156 -260l-9 6l391 652q12 20 33 31.5t46 12.5l74 1q25 -1 46 -13t33 -32zM843 269l-229 382q-11 17 -29 27.5t-41 10.5h-74q-21 0 -40 -10.5t-30 -27.5l-229 -382h672z" />
    <glyph glyph-name="B" unicode="B" horiz-adv-x="1145" 
d="M1045 523q0 -31 -10 -59.5t-28 -51t-42.5 -39t-53.5 -23.5q29 -7 53.5 -23t42.5 -39t28 -51t10 -59q0 -37 -14 -69.5t-38 -56.5t-56.5 -38t-69.5 -14h-867v700h867q37 0 69.5 -14t56.5 -38t38 -56.5t14 -68.5zM1034 178q0 34 -13 64.5t-35.5 53t-53 36t-65.5 13.5h-857
v-334h857q35 0 65.5 13t53 36t35.5 53t13 65zM867 356q35 0 65.5 13t53 35.5t35.5 53t13 65.5q0 34 -13 64.5t-35.5 53t-53 35.5t-65.5 13h-857v-333h857z" />
    <glyph glyph-name="C" unicode="C" horiz-adv-x="1145" 
d="M1040 700h5v-11h-868q-35 0 -65 -13t-53 -35.5t-36 -53t-13 -64.5v-345q0 -35 13 -65t36 -53t53 -36t65 -13h868v-11h-868q-37 0 -69 14t-56 38t-38 56.5t-14 69.5v345q0 36 14 68.5t38 56.5t56 38t69 14h863z" />
    <glyph glyph-name="D" unicode="D" horiz-adv-x="1146" 
d="M868 700q37 0 69.5 -14t56.5 -38t38 -56.5t14 -68.5v-345q0 -37 -14 -69.5t-38 -56.5t-56.5 -38t-69.5 -14h-868v700h868zM1035 523q0 34 -13 64.5t-36 53t-53.5 35.5t-64.5 13h-857v-678h857q34 0 64.5 13t53.5 36t36 53t13 65v345z" />
    <glyph glyph-name="E" unicode="E" horiz-adv-x="1146" 
d="M10 356h1036v-11h-1036v-167q0 -35 13 -65t36 -53t53.5 -36t65.5 -13h868v-11h-868q-37 0 -69.5 14t-56.5 38t-38 56.5t-14 69.5v167v178q0 36 14 68.5t38 56.5t56.5 38t69.5 14h868v-11h-868q-35 0 -65.5 -13t-53.5 -35.5t-36 -53t-13 -64.5v-167z" />
    <glyph glyph-name="F" unicode="F" horiz-adv-x="1145" 
d="M1045 700v-11h-868q-35 0 -65 -13t-52.5 -35.5t-35.5 -53t-13 -64.5v-167h1034v-11h-1034v-345h-11v523q0 36 14 68.5t38 56.5t56.5 38t68.5 14h868z" />
    <glyph glyph-name="G" unicode="G" horiz-adv-x="1146" 
d="M1046 700v-11h-868q-35 0 -65 -13t-53 -35.5t-36.5 -53t-13.5 -64.5v-345q0 -35 13.5 -65t36.5 -53t53 -36t65 -13h690q34 0 64.5 13t53.5 36t36 53t13 65v167h-518v11h529v-178q0 -37 -14 -69.5t-38 -56.5t-56.5 -38t-69.5 -14h-690q-37 0 -69.5 14t-56.5 38t-38 56.5
t-14 69.5v345q0 36 14 68.5t38 56.5t56.5 38t69.5 14h868z" />
    <glyph glyph-name="H" unicode="H" horiz-adv-x="1145" 
d="M1035 700h10v-700h-10v345h-1024v-345h-11v700h11v-344h1024v344z" />
    <glyph glyph-name="I" unicode="I" horiz-adv-x="111" 
d="M0 700h11v-700h-11v700z" />
    <glyph glyph-name="J" unicode="J" horiz-adv-x="1145" 
d="M1034 700h11v-522q0 -37 -14 -69.5t-38 -56.5t-56.5 -38t-69.5 -14h-690q-37 0 -69 14t-56 38t-38 56.5t-14 69.5v178h10v-178q0 -35 13 -65t36 -53t53 -36t65 -13h690q35 0 65.5 13t53 36t35.5 53t13 65v522z" />
    <glyph glyph-name="K" unicode="K" horiz-adv-x="1035" 
d="M392 390l543 -384l-6 -8l-548 386l-368 -217v-167h-11v169l-2 4h2v527h11v-520l891 523l5 -10z" />
    <glyph glyph-name="L" unicode="L" horiz-adv-x="1146" 
d="M11 178q0 -35 13 -65t36 -53t53 -36t65 -13h868v-11h-868q-37 0 -69.5 14t-56.5 38t-38 56.5t-14 69.5v522h11v-522v0z" />
    <glyph glyph-name="M" unicode="M" horiz-adv-x="1231" 
d="M1071 700q26 0 43 -17.5t17 -43.5v-639h-10v639q0 21 -15 35.5t-35 14.5q-15 0 -26 -6.5t-17 -17.5l-397 -635q-8 -13 -22 -21.5t-31 -8.5h-25q-17 0 -31 8.5t-22 21.5l-396 635q-7 11 -18.5 17.5t-25.5 6.5q-20 0 -35 -14.5t-15 -35.5v-639h-10v639q0 26 17.5 43.5
t42.5 17.5q17 0 31 -8t22 -22l397 -634q13 -25 43 -25h25q14 0 25.5 7t18.5 18l396 634q8 14 22 22t31 8z" />
    <glyph glyph-name="N" unicode="N" horiz-adv-x="1146" 
d="M1036 700h10v-631q0 -29 -20 -49t-49 -20q-25 0 -42 14l-830 664q-16 11 -36 11q-24 0 -41 -17t-17 -41v-631h-11v631q0 29 20.5 49t48.5 20q24 0 43 -14l829 -663q15 -12 36 -12q24 0 41.5 17t17.5 41v631z" />
    <glyph glyph-name="O" unicode="O" horiz-adv-x="1145" 
d="M867 700q37 0 69.5 -14t56.5 -38t38 -56.5t14 -68.5v-345q0 -37 -14 -69.5t-38 -56.5t-56.5 -38t-69.5 -14h-689q-37 0 -69.5 14t-56.5 38t-38 56.5t-14 69.5v345q0 36 14 68.5t38 56.5t56.5 38t69.5 14h689zM1034 523q0 34 -13 64.5t-35.5 53t-53 35.5t-65.5 13h-689
q-35 0 -65.5 -13t-53.5 -35.5t-36 -53t-13 -64.5v-345q0 -35 13 -65t36 -53t53.5 -36t65.5 -13h689q35 0 65.5 13t53 36t35.5 53t13 65v345z" />
    <glyph glyph-name="P" unicode="P" horiz-adv-x="1146" 
d="M868 700q37 0 69.5 -14t56.5 -38t38 -56.5t14 -68.5v-87q0 -37 -14 -69.5t-38 -56.5t-56.5 -38t-69.5 -14h-857v-258h-11v700h868zM1036 523q0 34 -13.5 64.5t-36 53t-53.5 35.5t-65 13h-857v-420h857q34 0 65 13t53.5 36t36 53t13.5 65v87z" />
    <glyph glyph-name="Q" unicode="Q" horiz-adv-x="1145" 
d="M867 700q37 0 69.5 -14t56.5 -38t38 -56.5t14 -68.5v-345q0 -37 -14 -69.5t-38 -56.5t-56.5 -38t-69.5 -14h-164l128 -256l-10 -5l-129 261h-514q-37 0 -69.5 14t-56.5 38t-38 56.5t-14 69.5v345q0 36 14 68.5t38 56.5t56.5 38t69.5 14h689zM1034 523q0 34 -13 64.5
t-35.5 53t-53 35.5t-65.5 13h-689q-35 0 -65.5 -13t-53.5 -35.5t-36 -53t-13 -64.5v-345q0 -35 13 -65t36 -53t53.5 -36t65.5 -13h515l4 2l1 -2h169q35 0 65.5 13t53 36t35.5 53t13 65v345z" />
    <glyph glyph-name="R" unicode="R" horiz-adv-x="1146" 
d="M868 700q37 0 69.5 -14t56.5 -38t38 -56.5t14 -68.5v-87q0 -37 -14 -69.5t-38 -56.5t-56.5 -38t-69.5 -14h-59l163 -254l-9 -6l-166 260h-786v-258h-11v700h868zM1036 523q0 34 -13 64.5t-36 53t-53.5 35.5t-65.5 13h-857v-420h857q35 0 65.5 13t53.5 36t36 53t13 65v87z
" />
    <glyph glyph-name="S" unicode="S" horiz-adv-x="1145" 
d="M1045 700v-11h-867q-35 0 -65.5 -13t-53 -35.5t-35.5 -53t-13 -64.5q0 -35 13 -65.5t35.5 -53t53 -35.5t65.5 -13h689q37 0 69.5 -14t56.5 -38t38 -56.5t14 -69.5t-14 -69.5t-38 -56.5t-56.5 -38t-69.5 -14h-867v11h867q35 0 65.5 13t53 36t35.5 53t13 65q0 34 -13 64.5
t-35.5 53t-53 36t-65.5 13.5h-689q-37 0 -69.5 14t-56.5 38t-38 56.5t-14 69.5q0 36 14 68.5t38 56.5t56.5 38t69.5 14h867z" />
    <glyph glyph-name="T" unicode="T" horiz-adv-x="1146" 
d="M1046 700v-11h-518v-689h-10v689h-518v11h1046z" />
    <glyph glyph-name="U" unicode="U" horiz-adv-x="1145" 
d="M1035 700h10v-522q0 -37 -14 -69.5t-38 -56.5t-56.5 -38t-69.5 -14h-689q-37 0 -69.5 14t-56.5 38t-38 56.5t-14 69.5v522h11v-522q0 -35 13 -65t35.5 -53t53 -36t65.5 -13h689q35 0 65.5 13t53.5 36t36 53t13 65v522z" />
    <glyph glyph-name="V" unicode="V" horiz-adv-x="1123" 
d="M1014 703l9 -7l-396 -651q-12 -20 -32.5 -32.5t-46.5 -12.5h-74q-25 0 -45.5 12.5t-32.5 32.5l-396 651l9 7l396 -653q11 -17 29 -28t40 -11h74q23 0 41 11t29 28l394 648z" />
    <glyph glyph-name="W" unicode="W" horiz-adv-x="1390" 
d="M1280 702l10 -3l-155 -649q-5 -22 -23 -36t-41 -14q-20 0 -35.5 10t-23.5 27l-310 617q-8 16 -23 26t-35 10q-19 0 -34 -9.5t-23 -26.5l-309 -617q-8 -17 -23.5 -27t-35.5 -10q-23 0 -41.5 14t-23.5 37l-154 648l10 3l154 -648q5 -19 20 -31t35 -12q15 0 29 8t21 22
l309 619q9 18 27 29.5t39 11.5q23 0 41 -11.5t26 -30.5l310 -618q7 -14 20 -22t30 -8q20 0 34.5 12t19.5 30l153 643z" />
    <glyph glyph-name="X" unicode="X" horiz-adv-x="903" 
d="M803 695l-394 -352l378 -338l-8 -8l-378 339l-378 -339l-7 8l377 338l-393 352l7 8l394 -353l394 353z" />
    <glyph glyph-name="Y" unicode="Y" horiz-adv-x="904" 
d="M804 695l-396 -354v-341h-11v341l-397 354l7 8l395 -353l395 353z" />
    <glyph glyph-name="Z" unicode="Z" horiz-adv-x="1146" 
d="M40 103q-13 -5 -21.5 -17t-8.5 -27q0 -20 14.5 -34t34.5 -14h987v-11h-987q-25 0 -42 17t-17 42q0 18 10 33t25 21l970 484q13 5 21.5 17t8.5 28q0 20 -14 33.5t-34 13.5h-987v11h987q24 0 41.5 -17t17.5 -41q0 -20 -10.5 -33.5t-25.5 -21.5l-970 -484v0z" />
    <glyph glyph-name="bracketleft" unicode="[" horiz-adv-x="369" 
d="M269 787v-11h-258v-1024h258v-11h-269v1046h269z" />
    <glyph glyph-name="backslash" unicode="\" horiz-adv-x="459" 
d="M349 702l10 -4l-349 -700l-10 5z" />
    <glyph glyph-name="bracketright" unicode="]" horiz-adv-x="369" 
d="M0 787h269v-1046h-269v11h258v1024h-258v11z" />
    <glyph glyph-name="asciicircum" unicode="^" horiz-adv-x="649" 
 />
    <glyph glyph-name="underscore" unicode="_" 
d="M0 -161h701v-11h-701v11z" />
    <glyph glyph-name="grave" unicode="`" horiz-adv-x="373" 
d="M4 698l269 -90l-4 -10l-269 89z" />
    <glyph glyph-name="a" unicode="a" 
d="M523 528q37 0 69.5 -14t56.5 -38t38 -56.5t14 -69.5v-350h-566q-28 0 -52.5 10.5t-43 29t-29 43t-10.5 52.5t10.5 52.5t29 43t43 29t52.5 10.5h555v80q0 34 -13.5 64.5t-36 53.5t-53 36t-64.5 13h-523v11h523zM690 259h-555q-26 0 -48.5 -10t-39.5 -26.5t-26.5 -39.5
t-9.5 -48q0 -26 9.5 -48.5t26.5 -39t39.5 -26.5t48.5 -10h555v248z" />
    <glyph glyph-name="b" unicode="b" 
d="M523 528q37 0 69.5 -14t56.5 -38t38 -56.5t14 -69.5v-172q0 -37 -14 -69.5t-38 -56.5t-56.5 -38t-69.5 -14h-523v701h11v-173h512zM690 350q0 34 -13.5 64.5t-36 53.5t-53 36t-64.5 13h-512v-506h512q34 0 64.5 13t53 35.5t36 53t13.5 65.5v172z" />
    <glyph glyph-name="c" unicode="c" 
d="M0 350q0 37 14 69.5t38 56.5t56.5 38t69.5 14h523v-11h-523q-35 0 -65 -13t-53 -36t-36 -53.5t-13 -64.5v-172q0 -35 13 -65.5t36 -53t53 -35.5t65 -13h523v-11h-523q-37 0 -69.5 14t-56.5 38t-38 56.5t-14 69.5v172v0z" />
    <glyph glyph-name="d" unicode="d" 
d="M690 701h11v-701h-523q-37 0 -69.5 14t-56.5 38t-38 56.5t-14 69.5v172q0 37 14 69.5t38 56.5t56.5 38t69.5 14h512v173zM690 517h-512q-35 0 -65 -13t-53 -36t-36 -53.5t-13 -64.5v-172q0 -35 13 -65.5t36 -53t53 -35.5t65 -13h512v506z" />
    <glyph glyph-name="e" unicode="e" 
d="M0 350q0 37 14 69.5t38 56.5t56.5 38t69.5 14h523v-11h-523q-35 0 -65 -13t-53 -36t-36 -53.5t-13 -64.5v-80h690v-11h-690v-81q0 -35 13 -65.5t36 -53t53 -35.5t65 -13h523v-11h-523q-37 0 -69.5 14t-56.5 38t-38 56.5t-14 69.5v81v91v0z" />
    <glyph glyph-name="f" unicode="f" 
d="M0 350q0 37 14 69.5t38 56.5t56.5 38t69.5 14h523v-11h-523q-35 0 -65 -13t-53 -36t-36 -53.5t-13 -64.5v-80h690v-11h-690v-259h-11v259v91v0z" />
    <glyph glyph-name="g" unicode="g" horiz-adv-x="800" 
d="M0 350q0 37 14 69.5t38 56.5t56.5 38t69.5 14h522v-609q0 -37 -14 -69.5t-38 -56.5t-56 -38t-69 -14h-523v11h523q34 0 64.5 13t53.5 36t36 53t13 65v82h-512q-37 0 -69.5 14t-56.5 38t-38 56t-14 69v172zM690 517h-512q-35 0 -65.5 -13t-53 -36t-36 -53.5t-13.5 -64.5
v-172q0 -35 13.5 -65.5t36 -53t53 -35.5t65.5 -13h512v506z" />
    <glyph glyph-name="h" unicode="h" 
d="M523 528q37 0 69.5 -14t56.5 -38t38 -56.5t14 -69.5v-350h-11v350q0 34 -13 64.5t-36 53.5t-53.5 36t-64.5 13h-512v-517h-11v701h11v-173h512v0z" />
    <glyph glyph-name="i" unicode="i" horiz-adv-x="110" 
d="M0 528h10v-528h-10v528z" />
    <glyph glyph-name="j" unicode="j" 
d="M689 528h12v-350q0 -37 -14 -69.5t-38.5 -56.5t-57 -38t-68.5 -14h-345q-37 0 -69.5 14t-56.5 38t-38 56.5t-14 69.5v92h10v-92q0 -35 13 -65.5t36 -53t53.5 -35.5t65.5 -13h345q34 0 64.5 13t53 35.5t35.5 53t13 65.5v350z" />
    <glyph glyph-name="k" unicode="k" horiz-adv-x="719" 
d="M350 372l269 -368l-9 -6l-269 368l-328 -191v-175h-11v177l-2 3l2 1v520h11v-514l601 350l5 -9z" />
    <glyph glyph-name="l" unicode="l" horiz-adv-x="110" 
d="M0 701h10v-701h-10v701z" />
    <glyph glyph-name="m" unicode="m" horiz-adv-x="973" 
d="M695 528q37 0 69.5 -14t56.5 -38t38 -56.5t14 -69.5v-350h-11v350q0 34 -13 64.5t-36 53.5t-53.5 36t-64.5 13h-254v-517h-11v517h-420v-517h-10v528h695v0z" />
    <glyph glyph-name="n" unicode="n" horiz-adv-x="800" 
d="M523 528q37 0 69 -14t56 -38t38 -56.5t14 -69.5v-350h-10v350q0 34 -13 64.5t-36 53.5t-53.5 36t-64.5 13h-513v-517h-10v528h523v0z" />
    <glyph glyph-name="o" unicode="o" horiz-adv-x="800" 
d="M523 528q37 0 69 -14t56 -38t38 -56.5t14 -69.5v-172q0 -37 -14 -69.5t-38 -56.5t-56 -38t-69 -14h-345q-37 0 -69.5 14t-56.5 38t-38 56.5t-14 69.5v172q0 37 14 69.5t38 56.5t56.5 38t69.5 14h345zM690 350q0 34 -13 64.5t-36 53.5t-53.5 36t-64.5 13h-345
q-35 0 -65.5 -13t-53 -36t-36 -53.5t-13.5 -64.5v-172q0 -35 13.5 -65.5t36 -53t53 -35.5t65.5 -13h345q34 0 64.5 13t53.5 35.5t36 53t13 65.5v172z" />
    <glyph glyph-name="p" unicode="p" 
d="M523 528q37 0 69.5 -14t56.5 -38t38 -56.5t14 -69.5v-172q0 -37 -14 -69t-38 -56t-56.5 -38t-69.5 -14h-512v-260h-11v787h523zM690 350q0 34 -13 64.5t-36 53.5t-53.5 36t-64.5 13h-512v-506h512q34 0 64.5 13t53.5 35.5t36 53t13 65.5v172z" />
    <glyph glyph-name="q" unicode="q" horiz-adv-x="800" 
d="M0 350q0 37 14 69.5t38 56.5t56.5 38t69.5 14h522v-787h-11v260h-511q-37 0 -69.5 14t-56.5 38t-38 56t-14 69v172zM689 517h-511q-35 0 -65.5 -13t-53.5 -36t-36 -53.5t-13 -64.5v-172q0 -35 13 -65.5t36 -53t53.5 -35.5t65.5 -13h511v506z" />
    <glyph glyph-name="r" unicode="r" horiz-adv-x="800" 
d="M0 350q0 37 14 69.5t38 56.5t56.5 38t69.5 14h522v-11h-522q-35 0 -65.5 -13t-53 -36t-35.5 -53.5t-13 -64.5v-350h-11v350v0z" />
    <glyph glyph-name="s" unicode="s" 
d="M701 528v-11h-566q-26 0 -48 -9.5t-39 -26.5t-26.5 -39.5t-9.5 -48.5t9.5 -48t26.5 -39t39 -26.5t48 -9.5h432q28 0 52.5 -10.5t42.5 -29t28.5 -43t10.5 -52.5t-10.5 -52.5t-28.5 -43t-42.5 -29t-52.5 -10.5h-567v11h567q25 0 47.5 10t39.5 26.5t26.5 39t9.5 48.5
q0 25 -9.5 48t-26.5 39.5t-39.5 26.5t-47.5 10h-432q-28 0 -52.5 10.5t-43 28.5t-29 42.5t-10.5 52.5t10.5 52.5t29 43t43 29t52.5 10.5h566z" />
    <glyph glyph-name="t" unicode="t" 
d="M269 528h432v-11h-432v-339q0 -35 13 -65.5t36 -53t53 -35.5t65 -13h265v-11h-265q-37 0 -69.5 14t-56.5 38t-38 56.5t-14 69.5v339h-258v11h258v173h11v-173z" />
    <glyph glyph-name="u" unicode="u" 
d="M691 528h10v-528h-523q-37 0 -69.5 14t-56.5 38t-38 56.5t-14 69.5v350h11v-350q0 -35 13 -65.5t35.5 -53t53 -35.5t65.5 -13h513v517z" />
    <glyph glyph-name="v" unicode="v" horiz-adv-x="805" 
d="M696 529l9 -5l-352 -528l-353 529l9 7l344 -517z" />
    <glyph glyph-name="w" unicode="w" horiz-adv-x="1235" 
d="M1126 530l9 -5l-266 -531l-302 518l-302 -518l-265 531l9 5l257 -513l301 516l302 -516z" />
    <glyph glyph-name="x" unicode="x" horiz-adv-x="805" 
d="M705 522l-343 -258l343 -257l-6 -8l-346 259l-346 -260l-7 9l344 257l-344 259l7 9l346 -261l346 260z" />
    <glyph glyph-name="y" unicode="y" 
d="M691 528h10v-609q0 -37 -14 -69.5t-38 -56.5t-56.5 -38t-69.5 -14h-523v11h523q34 0 64.5 13t53.5 36t36.5 53t13.5 65v81h-513q-37 0 -69.5 14t-56.5 38t-38 56.5t-14 69.5v350h11v-350q0 -35 13 -65.5t35.5 -53t53 -35.5t65.5 -13h513v512v5z" />
    <glyph glyph-name="z" unicode="z" 
d="M38 102q-12 -6 -19.5 -17.5t-7.5 -25.5q0 -20 14 -34t34 -14h642v-11h-642q-25 0 -42 17t-17 42q0 17 9.5 31t23.5 22l630 314q12 6 19.5 17.5t7.5 25.5q0 20 -14.5 34t-33.5 14h-642v11h642q24 0 41.5 -17t17.5 -42q0 -17 -9.5 -31t-24.5 -22l-629 -314v0z" />
    <glyph glyph-name="braceleft" unicode="{" horiz-adv-x="283" 
d="M86 695q0 19 7 36t19.5 29.5t29.5 19.5t36 7h5v-11h-5q-34 0 -57.5 -23.5t-23.5 -57.5v-345q0 -30 -17 -53t-45 -33q28 -9 45 -32.5t17 -53.5v-345q0 -33 23.5 -57t57.5 -24h5v-11h-5q-19 0 -36 7t-29.5 19.5t-19.5 29.5t-7 36v345q0 33 -23.5 57t-57.5 24h-5v11h5
q34 0 57.5 23t23.5 57v345v0z" />
    <glyph glyph-name="bar" unicode="|" horiz-adv-x="110" 
d="M0 787h10v-1046h-10v1046z" />
    <glyph glyph-name="braceright" unicode="}" horiz-adv-x="283" 
d="M183 270v-11h-5q-34 0 -58 -24t-24 -57v-345q0 -19 -7 -36t-19.5 -29.5t-29 -19.5t-35.5 -7h-5v11h5q34 0 57.5 24t23.5 57v345q0 30 17.5 53.5t43.5 32.5q-26 10 -43.5 33t-17.5 53v345q0 34 -23.5 57.5t-57.5 23.5h-5v11h5q19 0 35.5 -7t29 -19.5t19.5 -29.5t7 -36
v-345q0 -34 24 -57t58 -23h5z" />
    <glyph glyph-name="asciitilde" unicode="~" horiz-adv-x="805" 
d="M699 337l6 -9l-4 -4l-15 -10t-40 -22.5t-56.5 -22.5t-64.5 -10q-44 0 -74.5 6.5t-54.5 16t-44.5 20.5t-44 20.5t-53 16t-71.5 6.5q-32 0 -63 -10t-55 -22t-39 -22l-15 -10l-4 -3l-7 9l4 3l15.5 10t40 22.5t56 22.5t64.5 10q43 0 74 -6.5t55 -15.5t44.5 -20.5t44 -20.5
t53 -15.5t71.5 -6.5q32 0 63 9.5t55 21.5t39 22l15 10z" />
    <glyph glyph-name="exclamdown" unicode="&#xa1;" horiz-adv-x="110" 
d="M10 0h-10v615h10v-615zM10 656h-10v45h10v-45z" />
    <glyph glyph-name="cent" unicode="&#xa2;" 
d="M701 615v-11h-302v-507h302v-11h-302v-86h-11v86h-210q-37 0 -69.5 14t-56.5 38t-38 56.5t-14 69.5v173q0 37 14 69.5t38 56.5t56.5 38t69.5 14h210v86h11v-86h302zM388 604h-210q-35 0 -65 -13.5t-53 -36t-36 -53t-13 -64.5v-173q0 -35 13 -65t36 -53t53 -36t65 -13h210
v507z" />
    <glyph glyph-name="sterling" unicode="&#xa3;" horiz-adv-x="1146" 
d="M183 11h863v-11h-1046v11h172v334h-172v11h172v166q0 37 14 69.5t38 56.5t56.5 38t69.5 14h431q37 0 69.5 -14t56.5 -38t38 -56.5t14 -69.5v-5h-11v5q0 35 -13 65.5t-35.5 53t-53 35.5t-65.5 13h-431q-35 0 -65 -13t-53 -35.5t-36 -53t-13 -65.5v-166h431v-11h-431v-334z
" />
    <glyph glyph-name="yen" unicode="&#xa5;" horiz-adv-x="888" 
d="M788 695l-380 -339h336v-11h-344v-162h344v-10h-344v-173h-12v173h-344v10h344v162h-344v11h336l-380 339l7 8l387 -345l387 345z" />
    <glyph glyph-name="section" unicode="&#xa7;" horiz-adv-x="1146" 
d="M1046 -87q-1 -36 -15.5 -67t-38.5 -54.5t-56 -37t-68 -13.5h-868v11h868q34 0 64.5 13t53.5 36t36 53t13 65t-13 65.5t-36 53t-53.5 35.5t-64.5 13h-690q-37 0 -69.5 14t-56.5 38t-38 56.5t-14 69.5l1 264q1 36 15 67.5t38 54.5t56 36.5t68 13.5h868v-11h-868
q-34 0 -64.5 -13t-53 -35.5t-36 -53t-13.5 -65.5t13.5 -65t36 -52.5t53 -35.5t64.5 -13h690q37 0 69.5 -14t56.5 -38t38 -56.5t14 -69.5v-259v-6zM868 97q58 0 103 -33t64 -85v199q0 34 -13 64.5t-36 53t-53.5 36t-64.5 13.5h-690q-58 0 -103 32.5t-64 84.5v-198
q0 -35 13.5 -65t36 -53t53 -36t64.5 -13h690z" />
    <glyph glyph-name="dieresis" unicode="&#xa8;" horiz-adv-x="284" 
d="M0 643h11v-45h-11v45zM173 643h11v-45h-11v45z" />
    <glyph glyph-name="copyright" unicode="&#xa9;" horiz-adv-x="1143" 
d="M216 350q0 37 14 69.5t38 56.5t56.5 38t69.5 14h390v-11h-390q-35 0 -65 -13t-53 -35.5t-36 -53t-13 -65.5t13 -65.5t36 -53t53 -35.5t65 -13h390v-10h-390q-37 0 -69.5 14t-56.5 38t-38 56t-14 69zM865 700q37 0 69.5 -14t56.5 -38t38 -56.5t14 -69.5v-344
q0 -37 -14 -69.5t-38 -56.5t-56.5 -38t-69.5 -14h-687q-37 0 -69.5 14t-56.5 38t-38 56.5t-14 69.5v344q0 37 14 69.5t38 56.5t56.5 38t69.5 14h687zM1032 522q0 35 -13.5 65.5t-36 53t-53 35.5t-64.5 13h-687q-35 0 -65.5 -13t-53.5 -35.5t-36 -53t-13 -65.5v-344
q0 -35 13 -65t36 -53t53.5 -36t65.5 -13h687q34 0 64.5 13t53 36t36 53t13.5 65v344z" />
    <glyph glyph-name="registered" unicode="&#xae;" horiz-adv-x="1143" 
d="M865 700q37 0 69.5 -14t56.5 -38t38 -56.5t14 -69.5v-344q0 -37 -14 -69.5t-38 -56.5t-56.5 -38t-69.5 -14h-687q-37 0 -69.5 14t-56.5 38t-38 56.5t-14 69.5v344q0 37 14 69.5t38 56.5t56.5 38t69.5 14h687zM1032 522q0 35 -13 65.5t-35.5 53t-53 35.5t-65.5 13h-687
q-35 0 -65 -13t-53 -35.5t-36.5 -53t-13.5 -65.5h1l-1 -344q0 -35 13.5 -65t36.5 -53t53 -36t65 -13h687q35 0 65.5 13t53 36t35.5 53t13 65v344zM650 528q28 0 52.5 -10.5t43 -29t29 -43t10.5 -52.5q0 -24 -8 -45.5t-22 -39t-33 -29.5t-41 -17l48 -86l-9 -5l-51 89
q-5 -1 -9.5 -1.5t-9.5 -0.5h-383v-85h-11v355h394zM675 272q43 8 71 42t28 79q0 25 -10 48t-26.5 39.5t-39.5 26.5t-48 10h-383v-248h383q13 0 25 3z" />
    <glyph glyph-name="degree" unicode="&#xb0;" horiz-adv-x="370" 
d="M135 722q28 0 52.5 -10.5t43 -28.5t29 -42.5t10.5 -52.5t-10.5 -52.5t-29 -43t-43 -29t-52.5 -10.5t-52.5 10.5t-43 29t-29 43t-10.5 52.5t10.5 52.5t29 42.5t43 28.5t52.5 10.5zM135 464q25 0 48 9.5t39.5 26.5t26.5 39.5t10 48.5q0 25 -10 47.5t-26.5 39.5t-39.5 26.5
t-48 9.5q-26 0 -48.5 -9.5t-39 -26.5t-26.5 -39.5t-10 -47.5q0 -26 10 -48.5t26.5 -39.5t39 -26.5t48.5 -9.5z" />
    <glyph glyph-name="acute" unicode="&#xb4;" horiz-adv-x="372" 
d="M269 698l3 -10l-270 -90l-2 10z" />
    <glyph glyph-name="questiondown" unicode="&#xbf;" 
d="M178 0q-37 0 -69.5 14t-56.5 38t-38 56.5t-14 69.5t14 69.5t38 56.5t56.5 38t69.5 14h431q34 0 57 24t24 57v178h11v-178q0 -19 -7 -36t-19.5 -29.5t-29.5 -19.5t-36 -7h-431q-35 0 -65.5 -13t-53 -35.5t-35.5 -53t-13 -65.5t13 -65t35.5 -52.5t53 -36t65.5 -13.5h523
v-11h-523zM698 656h-10v45h10v-45z" />
    <glyph glyph-name="Agrave" unicode="&#xc0;" horiz-adv-x="1114" 
d="M1014 4l-8 -6l-157 260h-684l-156 -260l-9 6l391 652q12 20 33 31.5t46 12.5l74 1q25 -1 46 -13t33 -32zM843 269l-229 382q-11 17 -29 27.5t-41 10.5h-74q-21 0 -40 -10.5t-30 -27.5l-229 -382h672zM375 838l269 -90l-4 -10l-269 89z" />
    <glyph glyph-name="Aacute" unicode="&#xc1;" horiz-adv-x="1114" 
d="M1014 4l-8 -6l-157 260h-684l-156 -260l-9 6l391 652q12 20 33 31.5t46 12.5l74 1q25 -1 46 -13t33 -32zM843 269l-229 382q-11 17 -29 27.5t-41 10.5h-74q-21 0 -40 -10.5t-30 -27.5l-229 -382h672zM640 838l3 -10l-270 -90l-2 10z" />
    <glyph glyph-name="Acircumflex" unicode="&#xc2;" horiz-adv-x="1114" 
d="M1014 4l-8 -6l-157 260h-684l-156 -260l-9 6l391 652q12 20 33 31.5t46 12.5l74 1q25 -1 46 -13t33 -32zM843 269l-229 382q-11 17 -29 27.5t-41 10.5h-74q-21 0 -40 -10.5t-30 -27.5l-229 -382h672zM507 837l180 -90l-5 -9l-175 87l-175 -87l-5 9z" />
    <glyph glyph-name="Atilde" unicode="&#xc3;" horiz-adv-x="1114" 
d="M1014 4l-8 -6l-157 260h-684l-156 -260l-9 6l391 652q12 20 33 31.5t46 12.5l74 1q25 -1 46 -13t33 -32zM843 269l-229 382q-11 17 -29 27.5t-41 10.5h-74q-21 0 -40 -10.5t-30 -27.5l-229 -382h672zM730 808l-3 -4l-9.5 -10t-25.5 -23t-36 -23.5t-41 -10.5
q-42 0 -66.5 13.5t-44.5 29.5t-42.5 29.5t-60.5 13.5q-19 0 -37.5 -9t-33.5 -20.5t-24.5 -21.5t-9.5 -11l-4 -4l-9 6l4 5l9.5 10.5t25 22.5t35.5 22.5t41 10.5q42 0 66.5 -13.5t44.5 -29.5t43 -29.5t61 -13.5q19 0 37.5 10t33.5 21.5t25 21.5l10 10l2 4z" />
    <glyph glyph-name="Adieresis" unicode="&#xc4;" horiz-adv-x="1114" 
d="M1014 4l-8 -6l-157 260h-684l-156 -260l-9 6l391 652q12 20 33 31.5t46 12.5l74 1q25 -1 46 -13t33 -32zM843 269l-229 382q-11 17 -29 27.5t-41 10.5h-74q-21 0 -40 -10.5t-30 -27.5l-229 -382h672zM415 783h11v-45h-11v45zM588 783h11v-45h-11v45z" />
    <glyph glyph-name="Aring" unicode="&#xc5;" horiz-adv-x="1114" 
d="M1014 4l-8 -6l-157 260h-684l-156 -260l-9 6l391 652q12 20 33 31.5t46 12.5l74 1q25 -1 46 -13t33 -32zM843 269l-229 382q-11 17 -29 27.5t-41 10.5h-74q-21 0 -40 -10.5t-30 -27.5l-229 -382h672zM507 959q28 0 52.5 -10.5t42.5 -28.5t28.5 -42.5t10.5 -52.5
t-10.5 -52.5t-28.5 -43t-42.5 -29t-52.5 -10.5t-52.5 10.5t-43 29t-29 43t-10.5 52.5t10.5 52.5t29 42.5t43 28.5t52.5 10.5zM507 701q25 0 47.5 9.5t39.5 26.5t26.5 39.5t9.5 48.5q0 25 -9.5 47.5t-26.5 39.5t-39.5 26.5t-47.5 9.5q-26 0 -48.5 -9.5t-39.5 -26.5
t-26.5 -39.5t-9.5 -47.5q0 -26 9.5 -48.5t26.5 -39.5t39.5 -26.5t48.5 -9.5z" />
    <glyph glyph-name="AE" unicode="&#xc6;" horiz-adv-x="1649" 
d="M804 356h745v-11h-738l200 -334h538v-11h-544l-155 258h-683l-158 -262l-9 5l393 655q12 20 33 32t46 12h1077v-11h-960q10 -5 19.5 -13.5t16.5 -19.5zM844 269l-229 381q-11 18 -29 28.5t-40 10.5h-74q-23 0 -41 -10.5t-29 -28.5l-229 -381h671z" />
    <glyph glyph-name="Ccedilla" unicode="&#xc7;" horiz-adv-x="1145" 
d="M1045 700v-11h-867q-35 0 -65.5 -13t-53 -35.5t-35.5 -53t-13 -65.5v-344q0 -35 13 -65t35.5 -53t53 -36t65.5 -13h867v-11h-491v-29q0 -12 -3.5 -25t-10 -25.5t-17 -23.5t-24.5 -17l-4 -2l-6 9l6 3q23 11 36 36t13 45v29h-366q-37 0 -69.5 14t-56.5 38t-38 56.5
t-14 69.5v344q0 37 14 69.5t38 56.5t56.5 38t69.5 14h867z" />
    <glyph glyph-name="Egrave" unicode="&#xc8;" horiz-adv-x="1146" 
d="M10 356h1036v-11h-1036v-167q0 -35 13 -65t36 -53t53.5 -36t65.5 -13h868v-11h-868q-37 0 -69.5 14t-56.5 38t-38 56.5t-14 69.5v167v178q0 36 14 68.5t38 56.5t56.5 38t69.5 14h868v-11h-868q-35 0 -65.5 -13t-53.5 -35.5t-36 -53t-13 -64.5v-167zM391 838l269 -90
l-4 -10l-269 89z" />
    <glyph glyph-name="Eacute" unicode="&#xc9;" horiz-adv-x="1146" 
d="M10 356h1036v-11h-1036v-167q0 -35 13 -65t36 -53t53.5 -36t65.5 -13h868v-11h-868q-37 0 -69.5 14t-56.5 38t-38 56.5t-14 69.5v167v178q0 36 14 68.5t38 56.5t56.5 38t69.5 14h868v-11h-868q-35 0 -65.5 -13t-53.5 -35.5t-36 -53t-13 -64.5v-167zM656 838l3 -10
l-270 -90l-2 10z" />
    <glyph glyph-name="Ecircumflex" unicode="&#xca;" horiz-adv-x="1146" 
d="M10 356h1036v-11h-1036v-167q0 -35 13 -65t36 -53t53.5 -36t65.5 -13h868v-11h-868q-37 0 -69.5 14t-56.5 38t-38 56.5t-14 69.5v167v178q0 36 14 68.5t38 56.5t56.5 38t69.5 14h868v-11h-868q-35 0 -65.5 -13t-53.5 -35.5t-36 -53t-13 -64.5v-167zM523 837l180 -90
l-5 -9l-175 87l-175 -87l-5 9z" />
    <glyph glyph-name="Edieresis" unicode="&#xcb;" horiz-adv-x="1146" 
d="M10 356h1036v-11h-1036v-167q0 -35 13 -65t36 -53t53.5 -36t65.5 -13h868v-11h-868q-37 0 -69.5 14t-56.5 38t-38 56.5t-14 69.5v167v178q0 36 14 68.5t38 56.5t56.5 38t69.5 14h868v-11h-868q-35 0 -65.5 -13t-53.5 -35.5t-36 -53t-13 -64.5v-167zM431 783h11v-45h-11
v45zM604 783h11v-45h-11v45z" />
    <glyph glyph-name="Igrave" unicode="&#xcc;" horiz-adv-x="373" 
d="M131 700h11v-700h-11v700zM4 838l269 -90l-4 -10l-269 89z" />
    <glyph glyph-name="Iacute" unicode="&#xcd;" horiz-adv-x="372" 
d="M131 700h11v-700h-11v700zM269 838l3 -10l-270 -90l-2 10z" />
    <glyph glyph-name="Icircumflex" unicode="&#xce;" horiz-adv-x="460" 
d="M175 700h11v-700h-11v700zM180 837l180 -90l-5 -9l-175 87l-175 -87l-5 9z" />
    <glyph glyph-name="Idieresis" unicode="&#xcf;" horiz-adv-x="284" 
d="M87 700h11v-700h-11v700zM0 783h11v-45h-11v45zM173 783h11v-45h-11v45z" />
    <glyph glyph-name="Ntilde" unicode="&#xd1;" horiz-adv-x="1146" 
d="M1036 700h10v-631q0 -29 -20 -49t-49 -20q-25 0 -42 14l-830 664q-16 11 -36 11q-24 0 -41 -17t-17 -41v-631h-11v631q0 29 20.5 49t48.5 20q24 0 43 -14l829 -663q15 -12 36 -12q24 0 41.5 17t17.5 41v631zM746 808l-3 -4l-9.5 -10t-25.5 -23t-36 -23.5t-41 -10.5
q-42 0 -66.5 13.5t-44.5 29.5t-42.5 29.5t-60.5 13.5q-19 0 -37.5 -9t-33.5 -20.5t-24.5 -21.5t-9.5 -11l-4 -4l-9 6l4 5l9.5 10.5t25 22.5t35.5 22.5t41 10.5q42 0 66.5 -13.5t44.5 -29.5t43 -29.5t61 -13.5q19 0 37.5 10t33.5 21.5t25 21.5l10 10l2 4z" />
    <glyph glyph-name="Ograve" unicode="&#xd2;" horiz-adv-x="1145" 
d="M867 700q37 0 69.5 -14t56.5 -38t38 -56.5t14 -68.5v-345q0 -37 -14 -69.5t-38 -56.5t-56.5 -38t-69.5 -14h-689q-37 0 -69.5 14t-56.5 38t-38 56.5t-14 69.5v345q0 36 14 68.5t38 56.5t56.5 38t69.5 14h689zM1034 523q0 34 -13 64.5t-35.5 53t-53 35.5t-65.5 13h-689
q-35 0 -65.5 -13t-53.5 -35.5t-36 -53t-13 -64.5v-345q0 -35 13 -65t36 -53t53.5 -36t65.5 -13h689q35 0 65.5 13t53 36t35.5 53t13 65v345zM391 838l269 -90l-4 -10l-269 89z" />
    <glyph glyph-name="Oacute" unicode="&#xd3;" horiz-adv-x="1145" 
d="M867 700q37 0 69.5 -14t56.5 -38t38 -56.5t14 -68.5v-345q0 -37 -14 -69.5t-38 -56.5t-56.5 -38t-69.5 -14h-689q-37 0 -69.5 14t-56.5 38t-38 56.5t-14 69.5v345q0 36 14 68.5t38 56.5t56.5 38t69.5 14h689zM1034 523q0 34 -13 64.5t-35.5 53t-53 35.5t-65.5 13h-689
q-35 0 -65.5 -13t-53.5 -35.5t-36 -53t-13 -64.5v-345q0 -35 13 -65t36 -53t53.5 -36t65.5 -13h689q35 0 65.5 13t53 36t35.5 53t13 65v345zM656 838l3 -10l-270 -90l-2 10z" />
    <glyph glyph-name="Ocircumflex" unicode="&#xd4;" horiz-adv-x="1145" 
d="M867 700q37 0 69.5 -14t56.5 -38t38 -56.5t14 -68.5v-345q0 -37 -14 -69.5t-38 -56.5t-56.5 -38t-69.5 -14h-689q-37 0 -69.5 14t-56.5 38t-38 56.5t-14 69.5v345q0 36 14 68.5t38 56.5t56.5 38t69.5 14h689zM1034 523q0 34 -13 64.5t-35.5 53t-53 35.5t-65.5 13h-689
q-35 0 -65.5 -13t-53.5 -35.5t-36 -53t-13 -64.5v-345q0 -35 13 -65t36 -53t53.5 -36t65.5 -13h689q35 0 65.5 13t53 36t35.5 53t13 65v345zM523 837l180 -90l-5 -9l-175 87l-175 -87l-5 9z" />
    <glyph glyph-name="Otilde" unicode="&#xd5;" horiz-adv-x="1145" 
d="M867 700q37 0 69.5 -14t56.5 -38t38 -56.5t14 -68.5v-345q0 -37 -14 -69.5t-38 -56.5t-56.5 -38t-69.5 -14h-689q-37 0 -69.5 14t-56.5 38t-38 56.5t-14 69.5v345q0 36 14 68.5t38 56.5t56.5 38t69.5 14h689zM1034 523q0 34 -13 64.5t-35.5 53t-53 35.5t-65.5 13h-689
q-35 0 -65.5 -13t-53.5 -35.5t-36 -53t-13 -64.5v-345q0 -35 13 -65t36 -53t53.5 -36t65.5 -13h689q35 0 65.5 13t53 36t35.5 53t13 65v345zM746 808l-3 -4l-9.5 -10t-25.5 -23t-36 -23.5t-41 -10.5q-42 0 -66.5 13.5t-44.5 29.5t-42.5 29.5t-60.5 13.5q-19 0 -37.5 -9
t-33.5 -20.5t-24.5 -21.5t-9.5 -11l-4 -4l-9 6l4 5l9.5 10.5t25 22.5t35.5 22.5t41 10.5q42 0 66.5 -13.5t44.5 -29.5t43 -29.5t61 -13.5q19 0 37.5 10t33.5 21.5t25 21.5l10 10l2 4z" />
    <glyph glyph-name="Odieresis" unicode="&#xd6;" horiz-adv-x="1145" 
d="M867 700q37 0 69.5 -14t56.5 -38t38 -56.5t14 -68.5v-345q0 -37 -14 -69.5t-38 -56.5t-56.5 -38t-69.5 -14h-689q-37 0 -69.5 14t-56.5 38t-38 56.5t-14 69.5v345q0 36 14 68.5t38 56.5t56.5 38t69.5 14h689zM1034 523q0 34 -13 64.5t-35.5 53t-53 35.5t-65.5 13h-689
q-35 0 -65.5 -13t-53.5 -35.5t-36 -53t-13 -64.5v-345q0 -35 13 -65t36 -53t53.5 -36t65.5 -13h689q35 0 65.5 13t53 36t35.5 53t13 65v345zM431 783h11v-45h-11v45zM604 783h11v-45h-11v45z" />
    <glyph glyph-name="Oslash" unicode="&#xd8;" horiz-adv-x="1146" 
d="M888 699q33 -4 62 -19t50 -38.5t33.5 -54.5t12.5 -65v-344q0 -37 -14 -69.5t-38 -56.5t-56.5 -38t-69.5 -14h-611l-79 -89l-8 8l73 81h-65q-37 0 -69.5 14t-56.5 38t-38 56.5t-14 69.5v344q0 37 14 69.5t38 56.5t56.5 38t69.5 14h690h5l81 88l8 -7zM253 11l611 678h-686
q-35 0 -65 -13t-53 -35.5t-36 -53t-13 -65.5v-344q0 -35 13 -65t36 -53t53 -36t65 -13h75zM1035 522q0 33 -12.5 62.5t-33.5 52t-49.5 36.5t-60.5 16l-612 -678h601q34 0 64.5 13t53 36t36 53t13.5 65v344z" />
    <glyph glyph-name="Ugrave" unicode="&#xd9;" horiz-adv-x="1145" 
d="M1035 700h10v-522q0 -37 -14 -69.5t-38 -56.5t-56.5 -38t-69.5 -14h-689q-37 0 -69.5 14t-56.5 38t-38 56.5t-14 69.5v522h11v-522q0 -35 13 -65t35.5 -53t53 -36t65.5 -13h689q35 0 65.5 13t53.5 36t36 53t13 65v522zM391 838l269 -90l-4 -10l-269 89z" />
    <glyph glyph-name="Uacute" unicode="&#xda;" horiz-adv-x="1145" 
d="M1035 700h10v-522q0 -37 -14 -69.5t-38 -56.5t-56.5 -38t-69.5 -14h-689q-37 0 -69.5 14t-56.5 38t-38 56.5t-14 69.5v522h11v-522q0 -35 13 -65t35.5 -53t53 -36t65.5 -13h689q35 0 65.5 13t53.5 36t36 53t13 65v522zM656 838l3 -10l-270 -90l-2 10z" />
    <glyph glyph-name="Ucircumflex" unicode="&#xdb;" horiz-adv-x="1145" 
d="M1035 700h10v-522q0 -37 -14 -69.5t-38 -56.5t-56.5 -38t-69.5 -14h-689q-37 0 -69.5 14t-56.5 38t-38 56.5t-14 69.5v522h11v-522q0 -35 13 -65t35.5 -53t53 -36t65.5 -13h689q35 0 65.5 13t53.5 36t36 53t13 65v522zM523 837l180 -90l-5 -9l-175 87l-175 -87l-5 9z" />
    <glyph glyph-name="Udieresis" unicode="&#xdc;" horiz-adv-x="1145" 
d="M1035 700h10v-522q0 -37 -14 -69.5t-38 -56.5t-56.5 -38t-69.5 -14h-689q-37 0 -69.5 14t-56.5 38t-38 56.5t-14 69.5v522h11v-522q0 -35 13 -65t35.5 -53t53 -36t65.5 -13h689q35 0 65.5 13t53.5 36t36 53t13 65v522zM431 783h11v-45h-11v45zM604 783h11v-45h-11v45z
" />
    <glyph glyph-name="Yacute" unicode="&#xdd;" horiz-adv-x="904" 
d="M804 695l-396 -354v-341h-11v341l-397 354l7 8l395 -353l395 353zM535 838l3 -10l-270 -90l-2 10z" />
    <glyph glyph-name="germandbls" unicode="&#xdf;" horiz-adv-x="1145" 
d="M868 356q37 0 69 -14t56 -38t38 -56.5t14 -69.5t-14 -69.5t-38 -56.5t-56 -38t-69 -14h-523v11h523q35 0 65.5 13t53 36t35.5 53t13 65q0 34 -13 64.5t-35.5 53t-53 36t-65.5 13.5q-37 0 -69.5 14t-56.5 38t-38 56.5t-14 68.5q0 35 -13 65.5t-36 53t-53.5 35.5t-64.5 13
h-345q-35 0 -65.5 -13t-53 -35.5t-35.5 -53t-13 -65.5v-522h-11v522q0 37 14 69.5t38 56.5t56.5 38t69.5 14h345q37 0 69.5 -14t56.5 -38t38 -56.5t14 -69.5q0 -35 13 -65t35.5 -52.5t53 -35.5t65.5 -13z" />
    <glyph glyph-name="agrave" unicode="&#xe0;" 
d="M523 528q37 0 69.5 -14t56.5 -38t38 -56.5t14 -69.5v-350h-566q-28 0 -52.5 10.5t-43 29t-29 43t-10.5 52.5t10.5 52.5t29 43t43 29t52.5 10.5h555v80q0 34 -13.5 64.5t-36 53.5t-53 36t-64.5 13h-523v11h523zM690 259h-555q-26 0 -48.5 -10t-39.5 -26.5t-26.5 -39.5
t-9.5 -48q0 -26 9.5 -48.5t26.5 -39t39.5 -26.5t48.5 -10h555v248zM218 698l269 -90l-4 -10l-269 89z" />
    <glyph glyph-name="aacute" unicode="&#xe1;" 
d="M523 528q37 0 69.5 -14t56.5 -38t38 -56.5t14 -69.5v-350h-566q-28 0 -52.5 10.5t-43 29t-29 43t-10.5 52.5t10.5 52.5t29 43t43 29t52.5 10.5h555v80q0 34 -13.5 64.5t-36 53.5t-53 36t-64.5 13h-523v11h523zM690 259h-555q-26 0 -48.5 -10t-39.5 -26.5t-26.5 -39.5
t-9.5 -48q0 -26 9.5 -48.5t26.5 -39t39.5 -26.5t48.5 -10h555v248zM483 698l3 -10l-270 -90l-2 10z" />
    <glyph glyph-name="acircumflex" unicode="&#xe2;" 
d="M523 528q37 0 69.5 -14t56.5 -38t38 -56.5t14 -69.5v-350h-566q-28 0 -52.5 10.5t-43 29t-29 43t-10.5 52.5t10.5 52.5t29 43t43 29t52.5 10.5h555v80q0 34 -13.5 64.5t-36 53.5t-53 36t-64.5 13h-523v11h523zM690 259h-555q-26 0 -48.5 -10t-39.5 -26.5t-26.5 -39.5
t-9.5 -48q0 -26 9.5 -48.5t26.5 -39t39.5 -26.5t48.5 -10h555v248zM350 697l180 -90l-5 -9l-175 87l-175 -87l-5 9z" />
    <glyph glyph-name="atilde" unicode="&#xe3;" 
d="M523 528q37 0 69.5 -14t56.5 -38t38 -56.5t14 -69.5v-350h-566q-28 0 -52.5 10.5t-43 29t-29 43t-10.5 52.5t10.5 52.5t29 43t43 29t52.5 10.5h555v80q0 34 -13.5 64.5t-36 53.5t-53 36t-64.5 13h-523v11h523zM690 259h-555q-26 0 -48.5 -10t-39.5 -26.5t-26.5 -39.5
t-9.5 -48q0 -26 9.5 -48.5t26.5 -39t39.5 -26.5t48.5 -10h555v248zM573 668l-3 -4l-9.5 -10t-25.5 -23t-36 -23.5t-41 -10.5q-42 0 -66.5 13.5t-44.5 29.5t-42.5 29.5t-60.5 13.5q-19 0 -37.5 -9t-33.5 -20.5t-24.5 -21.5t-9.5 -11l-4 -4l-9 6l4 5l9.5 10.5t25 22.5
t35.5 22.5t41 10.5q42 0 66.5 -13.5t44.5 -29.5t43 -29.5t61 -13.5q19 0 37.5 10t33.5 21.5t25 21.5l10 10l2 4z" />
    <glyph glyph-name="adieresis" unicode="&#xe4;" 
d="M523 528q37 0 69.5 -14t56.5 -38t38 -56.5t14 -69.5v-350h-566q-28 0 -52.5 10.5t-43 29t-29 43t-10.5 52.5t10.5 52.5t29 43t43 29t52.5 10.5h555v80q0 34 -13.5 64.5t-36 53.5t-53 36t-64.5 13h-523v11h523zM690 259h-555q-26 0 -48.5 -10t-39.5 -26.5t-26.5 -39.5
t-9.5 -48q0 -26 9.5 -48.5t26.5 -39t39.5 -26.5t48.5 -10h555v248zM258 643h11v-45h-11v45zM431 643h11v-45h-11v45z" />
    <glyph glyph-name="aring" unicode="&#xe5;" 
d="M523 528q37 0 69.5 -14t56.5 -38t38 -56.5t14 -69.5v-350h-566q-28 0 -52.5 10.5t-43 29t-29 43t-10.5 52.5t10.5 52.5t29 43t43 29t52.5 10.5h555v80q0 34 -13.5 64.5t-36 53.5t-53 36t-64.5 13h-523v11h523zM690 259h-555q-26 0 -48.5 -10t-39.5 -26.5t-26.5 -39.5
t-9.5 -48q0 -26 9.5 -48.5t26.5 -39t39.5 -26.5t48.5 -10h555v248zM350 786q28 0 52.5 -10.5t42.5 -28.5t28.5 -42.5t10.5 -52.5t-10.5 -52.5t-28.5 -43t-42.5 -29t-52.5 -10.5t-52.5 10.5t-43 29t-29 43t-10.5 52.5t10.5 52.5t29 42.5t43 28.5t52.5 10.5zM350 528
q25 0 47.5 9.5t39.5 26.5t26.5 39.5t9.5 48.5q0 25 -9.5 47.5t-26.5 39.5t-39.5 26.5t-47.5 9.5q-26 0 -48.5 -9.5t-39.5 -26.5t-26.5 -39.5t-9.5 -47.5q0 -26 9.5 -48.5t26.5 -39.5t39.5 -26.5t48.5 -9.5z" />
    <glyph glyph-name="ae" unicode="&#xe6;" horiz-adv-x="1491" 
d="M701 269h690v-11h-690v-247h690v-11h-1256q-28 0 -52.5 10.5t-43 28.5t-29 42.5t-10.5 52.5t10.5 52.5t29 43t43 29t52.5 10.5h556v81q0 35 -13.5 65.5t-36 53t-53.5 35.5t-65 13h-523v11h523q31 0 59.5 -10.5t51.5 -28.5t39 -43t23 -54q7 29 23.5 54t39 43t50.5 28.5
t59 10.5h523v-11h-523q-35 0 -65 -13t-53 -35.5t-36 -53t-13 -65.5v-81zM691 258h-556q-25 0 -47.5 -9.5t-39.5 -26.5t-27 -39.5t-10 -48.5t10 -48t27 -39t39.5 -26.5t47.5 -9.5h556v247z" />
    <glyph glyph-name="ccedilla" unicode="&#xe7;" 
d="M701 528v-11h-523q-35 0 -65 -13t-53 -35.5t-36 -53t-13 -65.5v-172q0 -35 13 -65t36 -53t53 -36t65 -13h523v-11h-319v-29q0 -12 -3.5 -25t-10.5 -25.5t-17.5 -23.5t-24.5 -17l-4 -2l-5 9l5 3q24 11 36.5 36t12.5 45v29h-193q-37 0 -69.5 14t-56.5 38t-38 56.5t-14 69.5
v172q0 37 14 69.5t38 56.5t56.5 38t69.5 14h523z" />
    <glyph glyph-name="egrave" unicode="&#xe8;" 
d="M0 350q0 37 14 69.5t38 56.5t56.5 38t69.5 14h523v-11h-523q-35 0 -65 -13t-53 -36t-36 -53.5t-13 -64.5v-80h690v-11h-690v-81q0 -35 13 -65.5t36 -53t53 -35.5t65 -13h523v-11h-523q-37 0 -69.5 14t-56.5 38t-38 56.5t-14 69.5v81v91zM218 698l269 -90l-4 -10l-269 89z
" />
    <glyph glyph-name="eacute" unicode="&#xe9;" 
d="M0 350q0 37 14 69.5t38 56.5t56.5 38t69.5 14h523v-11h-523q-35 0 -65 -13t-53 -36t-36 -53.5t-13 -64.5v-80h690v-11h-690v-81q0 -35 13 -65.5t36 -53t53 -35.5t65 -13h523v-11h-523q-37 0 -69.5 14t-56.5 38t-38 56.5t-14 69.5v81v91zM483 698l3 -10l-270 -90l-2 10z
" />
    <glyph glyph-name="ecircumflex" unicode="&#xea;" 
d="M0 350q0 37 14 69.5t38 56.5t56.5 38t69.5 14h523v-11h-523q-35 0 -65 -13t-53 -36t-36 -53.5t-13 -64.5v-80h690v-11h-690v-81q0 -35 13 -65.5t36 -53t53 -35.5t65 -13h523v-11h-523q-37 0 -69.5 14t-56.5 38t-38 56.5t-14 69.5v81v91zM350 697l180 -90l-5 -9l-175 87
l-175 -87l-5 9z" />
    <glyph glyph-name="edieresis" unicode="&#xeb;" 
d="M0 350q0 37 14 69.5t38 56.5t56.5 38t69.5 14h523v-11h-523q-35 0 -65 -13t-53 -36t-36 -53.5t-13 -64.5v-80h690v-11h-690v-81q0 -35 13 -65.5t36 -53t53 -35.5t65 -13h523v-11h-523q-37 0 -69.5 14t-56.5 38t-38 56.5t-14 69.5v81v91zM258 643h11v-45h-11v45zM431 643
h11v-45h-11v45z" />
    <glyph glyph-name="igrave" unicode="&#xec;" horiz-adv-x="373" 
d="M132 528h10v-528h-10v528zM4 838l269 -90l-4 -10l-269 89z" />
    <glyph glyph-name="iacute" unicode="&#xed;" horiz-adv-x="372" 
d="M132 528h10v-528h-10v528zM269 838l3 -10l-270 -90l-2 10z" />
    <glyph glyph-name="icircumflex" unicode="&#xee;" horiz-adv-x="460" 
d="M176 528h10v-528h-10v528zM180 837l180 -90l-5 -9l-175 87l-175 -87l-5 9z" />
    <glyph glyph-name="idieresis" unicode="&#xef;" horiz-adv-x="284" 
d="M88 528h10v-528h-10v528zM0 783h11v-45h-11v45zM173 783h11v-45h-11v45z" />
    <glyph glyph-name="ntilde" unicode="&#xf1;" horiz-adv-x="800" 
d="M523 528q37 0 69 -14t56 -38t38 -56.5t14 -69.5v-350h-10v350q0 34 -13 64.5t-36 53.5t-53.5 36t-64.5 13h-513v-517h-10v528h523zM573 668l-3 -4l-9.5 -10t-25.5 -23t-36 -23.5t-41 -10.5q-42 0 -66.5 13.5t-44.5 29.5t-42.5 29.5t-60.5 13.5q-19 0 -37.5 -9
t-33.5 -20.5t-24.5 -21.5t-9.5 -11l-4 -4l-9 6l4 5l9.5 10.5t25 22.5t35.5 22.5t41 10.5q42 0 66.5 -13.5t44.5 -29.5t43 -29.5t61 -13.5q19 0 37.5 10t33.5 21.5t25 21.5l10 10l2 4z" />
    <glyph glyph-name="ograve" unicode="&#xf2;" horiz-adv-x="800" 
d="M523 528q37 0 69 -14t56 -38t38 -56.5t14 -69.5v-172q0 -37 -14 -69.5t-38 -56.5t-56 -38t-69 -14h-345q-37 0 -69.5 14t-56.5 38t-38 56.5t-14 69.5v172q0 37 14 69.5t38 56.5t56.5 38t69.5 14h345zM690 350q0 34 -13 64.5t-36 53.5t-53.5 36t-64.5 13h-345
q-35 0 -65.5 -13t-53 -36t-36 -53.5t-13.5 -64.5v-172q0 -35 13.5 -65.5t36 -53t53 -35.5t65.5 -13h345q34 0 64.5 13t53.5 35.5t36 53t13 65.5v172zM218 698l269 -90l-4 -10l-269 89z" />
    <glyph glyph-name="oacute" unicode="&#xf3;" horiz-adv-x="800" 
d="M523 528q37 0 69 -14t56 -38t38 -56.5t14 -69.5v-172q0 -37 -14 -69.5t-38 -56.5t-56 -38t-69 -14h-345q-37 0 -69.5 14t-56.5 38t-38 56.5t-14 69.5v172q0 37 14 69.5t38 56.5t56.5 38t69.5 14h345zM690 350q0 34 -13 64.5t-36 53.5t-53.5 36t-64.5 13h-345
q-35 0 -65.5 -13t-53 -36t-36 -53.5t-13.5 -64.5v-172q0 -35 13.5 -65.5t36 -53t53 -35.5t65.5 -13h345q34 0 64.5 13t53.5 35.5t36 53t13 65.5v172zM483 698l3 -10l-270 -90l-2 10z" />
    <glyph glyph-name="ocircumflex" unicode="&#xf4;" horiz-adv-x="800" 
d="M523 528q37 0 69 -14t56 -38t38 -56.5t14 -69.5v-172q0 -37 -14 -69.5t-38 -56.5t-56 -38t-69 -14h-345q-37 0 -69.5 14t-56.5 38t-38 56.5t-14 69.5v172q0 37 14 69.5t38 56.5t56.5 38t69.5 14h345zM690 350q0 34 -13 64.5t-36 53.5t-53.5 36t-64.5 13h-345
q-35 0 -65.5 -13t-53 -36t-36 -53.5t-13.5 -64.5v-172q0 -35 13.5 -65.5t36 -53t53 -35.5t65.5 -13h345q34 0 64.5 13t53.5 35.5t36 53t13 65.5v172zM350 697l180 -90l-5 -9l-175 87l-175 -87l-5 9z" />
    <glyph glyph-name="otilde" unicode="&#xf5;" horiz-adv-x="800" 
d="M523 528q37 0 69 -14t56 -38t38 -56.5t14 -69.5v-172q0 -37 -14 -69.5t-38 -56.5t-56 -38t-69 -14h-345q-37 0 -69.5 14t-56.5 38t-38 56.5t-14 69.5v172q0 37 14 69.5t38 56.5t56.5 38t69.5 14h345zM690 350q0 34 -13 64.5t-36 53.5t-53.5 36t-64.5 13h-345
q-35 0 -65.5 -13t-53 -36t-36 -53.5t-13.5 -64.5v-172q0 -35 13.5 -65.5t36 -53t53 -35.5t65.5 -13h345q34 0 64.5 13t53.5 35.5t36 53t13 65.5v172zM573 668l-3 -4l-9.5 -10t-25.5 -23t-36 -23.5t-41 -10.5q-42 0 -66.5 13.5t-44.5 29.5t-42.5 29.5t-60.5 13.5
q-19 0 -37.5 -9t-33.5 -20.5t-24.5 -21.5t-9.5 -11l-4 -4l-9 6l4 5l9.5 10.5t25 22.5t35.5 22.5t41 10.5q42 0 66.5 -13.5t44.5 -29.5t43 -29.5t61 -13.5q19 0 37.5 10t33.5 21.5t25 21.5l10 10l2 4z" />
    <glyph glyph-name="odieresis" unicode="&#xf6;" horiz-adv-x="800" 
d="M523 528q37 0 69 -14t56 -38t38 -56.5t14 -69.5v-172q0 -37 -14 -69.5t-38 -56.5t-56 -38t-69 -14h-345q-37 0 -69.5 14t-56.5 38t-38 56.5t-14 69.5v172q0 37 14 69.5t38 56.5t56.5 38t69.5 14h345zM690 350q0 34 -13 64.5t-36 53.5t-53.5 36t-64.5 13h-345
q-35 0 -65.5 -13t-53 -36t-36 -53.5t-13.5 -64.5v-172q0 -35 13.5 -65.5t36 -53t53 -35.5t65.5 -13h345q34 0 64.5 13t53.5 35.5t36 53t13 65.5v172zM258 643h11v-45h-11v45zM431 643h11v-45h-11v45z" />
    <glyph glyph-name="oslash" unicode="&#xf8;" horiz-adv-x="800" 
d="M528 527q36 -1 67.5 -15t54.5 -38t36.5 -56t13.5 -68v-172q0 -37 -14 -69.5t-38 -56.5t-56.5 -38t-69.5 -14h-324l-55 -89l-9 6l51 83h-7q-37 0 -69.5 14t-56.5 38t-38 56.5t-14 69.5v172q0 37 14 69.5t38 56.5t56.5 38t69.5 14h337l56 88l9 -5zM193 11l316 506h-331
q-35 0 -65.5 -13t-53 -35.5t-35.5 -53t-13 -65.5v-172q0 -35 13 -65t35.5 -53t53 -36t65.5 -13h15zM690 350q0 35 -13 65.5t-36 53t-53.5 35.5t-65.5 13l-317 -506h317q35 0 65.5 13t53.5 36t36 53t13 65v172z" />
    <glyph glyph-name="ugrave" unicode="&#xf9;" 
d="M691 528h10v-528h-523q-37 0 -69.5 14t-56.5 38t-38 56.5t-14 69.5v350h11v-350q0 -35 13 -65.5t35.5 -53t53 -35.5t65.5 -13h513v517zM218 698l269 -90l-4 -10l-269 89z" />
    <glyph glyph-name="uacute" unicode="&#xfa;" 
d="M691 528h10v-528h-523q-37 0 -69.5 14t-56.5 38t-38 56.5t-14 69.5v350h11v-350q0 -35 13 -65.5t35.5 -53t53 -35.5t65.5 -13h513v517zM483 698l3 -10l-270 -90l-2 10z" />
    <glyph glyph-name="ucircumflex" unicode="&#xfb;" 
d="M691 528h10v-528h-523q-37 0 -69.5 14t-56.5 38t-38 56.5t-14 69.5v350h11v-350q0 -35 13 -65.5t35.5 -53t53 -35.5t65.5 -13h513v517zM350 697l180 -90l-5 -9l-175 87l-175 -87l-5 9z" />
    <glyph glyph-name="udieresis" unicode="&#xfc;" 
d="M691 528h10v-528h-523q-37 0 -69.5 14t-56.5 38t-38 56.5t-14 69.5v350h11v-350q0 -35 13 -65.5t35.5 -53t53 -35.5t65.5 -13h513v517zM258 643h11v-45h-11v45zM431 643h11v-45h-11v45z" />
    <glyph glyph-name="yacute" unicode="&#xfd;" 
d="M691 528h10v-609q0 -37 -14 -69.5t-38 -56.5t-56.5 -38t-69.5 -14h-523v11h523q34 0 64.5 13t53.5 36t36.5 53t13.5 65v81h-513q-37 0 -69.5 14t-56.5 38t-38 56.5t-14 69.5v350h11v-350q0 -35 13 -65.5t35.5 -53t53 -35.5t65.5 -13h513v512v5zM483 698l3 -10l-270 -90
l-2 10z" />
    <glyph glyph-name="ydieresis" unicode="&#xff;" 
d="M691 528h10v-609q0 -37 -14 -69.5t-38 -56.5t-56.5 -38t-69.5 -14h-523v11h523q34 0 64.5 13t53.5 36t36.5 53t13.5 65v81h-513q-37 0 -69.5 14t-56.5 38t-38 56.5t-14 69.5v350h11v-350q0 -35 13 -65.5t35.5 -53t53 -35.5t65.5 -13h513v512v5zM258 643h11v-45h-11v45z
M431 643h11v-45h-11v45z" />
    <glyph glyph-name="dotlessi" unicode="&#x131;" horiz-adv-x="110" 
d="M0 528h10v-528h-10v528z" />
    <glyph glyph-name="OE" unicode="&#x152;" horiz-adv-x="1922" 
d="M1822 700v-11h-695q-35 0 -65.5 -13t-53 -35.5t-35.5 -53t-13 -65.5v-166h862v-11h-862v-167q0 -35 13 -65t35.5 -53t53 -36t65.5 -13h695v-11h-695q-32 0 -60 10t-51 28t-39 43t-23 54q-7 -29 -23 -54t-39 -43t-51 -28t-59 -10h-605q-36 0 -68.5 14t-56.5 38t-38 56.5
t-14 69.5v344q0 37 14 69.5t38 56.5t56.5 38t68.5 14h605q31 0 59 -10t51 -28t39 -43t23 -54q7 29 23 54t39 43t51 28t60 10h695zM949 522q0 35 -13 65.5t-36 53t-53.5 35.5t-64.5 13h-605q-35 0 -65 -13t-52.5 -35.5t-35.5 -53t-13 -65.5v-344q0 -35 13 -65t35.5 -53
t52.5 -36t65 -13h605q34 0 64.5 13t53.5 36t36 53t13 65v344z" />
    <glyph glyph-name="oe" unicode="&#x153;" horiz-adv-x="1490" 
d="M694 392q7 29 23.5 54t39.5 43t51 28.5t59 10.5h523v-11h-523q-35 0 -65 -13t-53 -35.5t-36 -53t-13 -65.5v-81h690v-11h-690v-80q0 -35 13 -65.5t35.5 -53t53 -35.5t65.5 -13h523v-11h-523q-31 0 -59 10t-51 28t-39.5 43t-23.5 54q-7 -29 -23 -54t-38.5 -43t-51 -28
t-59.5 -10h-345q-37 0 -69 14t-56 38t-38 56.5t-14 69.5v172q0 37 14 69.5t38 56.5t56 38t69 14h345q31 0 59.5 -10.5t51 -28.5t38.5 -43t23 -54zM522 11q35 0 65.5 13t53 36t35.5 53t13 65v172q0 35 -13 65.5t-35.5 53t-53 35.5t-65.5 13h-345q-35 0 -65.5 -13t-53 -35.5
t-35.5 -53t-13 -65.5v-172q0 -35 13 -65t35.5 -53t53 -36t65.5 -13h345z" />
    <glyph glyph-name="Ydieresis" unicode="&#x178;" horiz-adv-x="904" 
d="M804 695l-396 -354v-341h-11v341l-397 354l7 8l395 -353l395 353zM310 783h11v-45h-11v45zM483 783h11v-45h-11v45z" />
    <glyph glyph-name="circumflex" unicode="&#x2c6;" horiz-adv-x="460" 
d="M180 697l180 -90l-5 -9l-175 87l-175 -87l-5 9z" />
    <glyph glyph-name="ring" unicode="&#x2da;" horiz-adv-x="369" 
d="M135 787q28 0 52.5 -10.5t42.5 -28.5t28.5 -42.5t10.5 -52.5t-10.5 -52.5t-28.5 -43t-42.5 -29t-52.5 -10.5t-52.5 10.5t-43 29t-29 43t-10.5 52.5t10.5 52.5t29 42.5t43 28.5t52.5 10.5zM135 529q25 0 47.5 9.5t39.5 26.5t26.5 39.5t9.5 48.5q0 25 -9.5 47.5t-26.5 39.5
t-39.5 26.5t-47.5 9.5q-26 0 -48.5 -9.5t-39.5 -26.5t-26.5 -39.5t-9.5 -47.5q0 -26 9.5 -48.5t26.5 -39.5t39.5 -26.5t48.5 -9.5z" />
    <glyph glyph-name="tilde" unicode="&#x2dc;" horiz-adv-x="547" 
d="M447 668l-3 -4l-9.5 -10t-25.5 -23t-36 -23.5t-41 -10.5q-42 0 -66.5 13.5t-44.5 29.5t-42.5 29.5t-60.5 13.5q-19 0 -37.5 -9t-33.5 -20.5t-24.5 -21.5t-9.5 -11l-4 -4l-9 6l4 5l9.5 10.5t25 22.5t35.5 22.5t41 10.5q42 0 66.5 -13.5t44.5 -29.5t43 -29.5t61 -13.5
q19 0 37.5 10t33.5 21.5t25 21.5l10 10l2 4z" />
    <glyph glyph-name="endash" unicode="&#x2013;" horiz-adv-x="628" 
d="M0 269h528v-11h-528v11z" />
    <glyph glyph-name="emdash" unicode="&#x2014;" 
d="M0 269h701v-11h-701v11z" />
    <glyph glyph-name="quoteleft" unicode="&#x2018;" horiz-adv-x="165" 
d="M60 702l5 -10l-5 -2q-12 -5 -21 -14.5t-15 -21t-9.5 -23.5t-3.5 -22v-40h-11v40q0 23 14 50t42 41z" />
    <glyph glyph-name="quoteright" unicode="&#x2019;" horiz-adv-x="166" 
d="M55 700h11v-39q0 -12 -3.5 -25t-11 -26t-18 -23.5t-23.5 -17.5l-5 -1l-5 10l6 1q23 12 36 37t13 45v39z" />
    <glyph glyph-name="quotedblleft" unicode="&#x201c;" horiz-adv-x="286" 
d="M181 702l5 -10l-5 -2q-24 -11 -36.5 -36t-12.5 -45v-40h-11v40q0 23 13.5 50t41.5 41zM60 702l5 -10l-5 -2q-12 -5 -21 -14.5t-15 -21t-9.5 -23.5t-3.5 -22v-40h-11v40q0 23 14 50t42 41z" />
    <glyph glyph-name="quotedblright" unicode="&#x201d;" horiz-adv-x="285" 
d="M54 700h11v-39q0 -12 -3.5 -25t-10.5 -26t-17.5 -23.5t-23.5 -17.5l-6 -1l-4 10l5 1q23 12 36 37t13 45v39zM174 700h11v-39q0 -12 -3.5 -25t-10 -26t-17 -23.5t-24.5 -17.5l-5 -1l-5 10l5 1q24 12 36.5 37t12.5 45v39z" />
    <glyph glyph-name="bullet" unicode="&#x2022;" horiz-adv-x="186" 
d="M43 350q18 0 30.5 -12.5t12.5 -30.5t-12.5 -30.5t-30.5 -12.5t-30.5 12.5t-12.5 30.5t12.5 30.5t30.5 12.5z" />
    <glyph glyph-name="Euro" unicode="&#x20ac;" horiz-adv-x="1146" 
d="M1046 700v-11h-695q-35 0 -65.5 -13t-53 -35.5t-35.5 -53t-13 -65.5v-59h603v-11h-603v-204h603v-11h-603v-59q0 -35 13 -65t35.5 -53t53 -36t65.5 -13h695v-11h-695q-37 0 -69.5 14t-56.5 38t-38 56.5t-14 69.5v59h-173v11h173v204h-173v11h173v59q0 37 14 69.5t38 56.5
t56.5 38t69.5 14h695z" />
    <glyph glyph-name="trademark" unicode="&#x2122;" horiz-adv-x="886" 
d="M355 700v-11h-172v-258h-11v258h-172v11h355zM608 446l178 267v-282h-10v246l-168 -251l-167 251v-246h-10v282z" />
    </font>
</defs>
</svg>
