<?xml version="1.0" standalone="no"?>
<!DOCTYPE svg PUBLIC "-//W3C//DTD SVG 1.1//EN" "http://www.w3.org/Graphics/SVG/1.1/DTD/svg11.dtd" >
<svg xmlns="http://www.w3.org/2000/svg" xmlns:xlink="http://www.w3.org/1999/xlink" version="1.1">
<metadata>
Created by FontForge 20190801 at Fri Dec  5 23:13:08 2014
 By Jimmy Wärting
Copyright (c) 2008 by Fonthead Design Inc.. All rights reserved.
</metadata>
<defs>
<font id="TachyonW00-Thin" horiz-adv-x="800" >
  <font-face 
    font-family="TachyonW00-Thin"
    font-weight="400"
    font-stretch="normal"
    units-per-em="1000"
    panose-1="2 0 0 0 0 0 0 0 0 0"
    ascent="800"
    descent="-200"
    x-height="536"
    cap-height="700"
    bbox="-153 -248 1771 948"
    underline-thickness="50"
    underline-position="-175"
    unicode-range="U+0020-2122"
  />
<missing-glyph horiz-adv-x="433" 
 />
    <glyph glyph-name=".notdef" horiz-adv-x="433" 
 />
    <glyph glyph-name=".null" horiz-adv-x="0" 
 />
    <glyph glyph-name="nonmarkingreturn" horiz-adv-x="333" 
 />
    <glyph glyph-name="space" unicode=" " horiz-adv-x="550" 
 />
    <glyph glyph-name="exclam" unicode="!" horiz-adv-x="141" 
d="M41 83h-41v618h41v-618zM0 41h41v-41h-41v41z" />
    <glyph glyph-name="quotedbl" unicode="&#x22;" horiz-adv-x="265" 
d="M0 701h41v-227h-41v227zM124 701h41v-227h-41v227z" />
    <glyph glyph-name="numbersign" unicode="#" horiz-adv-x="718" 
d="M453 289h165v-41h-165v-165h-41v165h-206v-165h-42v165h-164v41h164v206h-164v41h164v165h42v-165h206v165h41v-165h165v-41h-165v-206zM412 289v206h-206v-206h206z" />
    <glyph glyph-name="dollar" unicode="$" 
d="M556 371q30 0 56 -11.5t45.5 -31t31 -45.5t11.5 -56t-11.5 -56t-31 -45.5t-45.5 -31t-56 -11.5h-186v-83h-41v83h-329v41h329v206h-185q-30 0 -56.5 11t-46 30.5t-30.5 46t-11 56.5t11 56t30.5 45.5t46 31t56.5 11.5h185v83h41v-83h330v-41h-330v-206h186zM556 124
q21 0 39.5 8t33 22t22.5 33t8 40t-8 40t-22.5 33t-33 22t-39.5 8h-186v-206h186zM329 371v206h-185q-21 0 -40 -8t-32.5 -22t-22 -33t-8.5 -40t8.5 -40t22 -33t32.5 -22t40 -8h185z" />
    <glyph glyph-name="percent" unicode="%" horiz-adv-x="1130" 
d="M371 515q0 -21 -8 -39.5t-22.5 -33t-33 -22.5t-39.5 -8h-165q-21 0 -39.5 8t-33 22.5t-22.5 33t-8 39.5v83q0 21 8 40t22.5 33t33 22t39.5 8h165q21 0 39.5 -8t33 -22t22.5 -33t8 -40v-83zM927 289q21 0 39.5 -8t33 -22.5t22.5 -33t8 -39.5v-83q0 -21 -8 -39.5t-22.5 -33
t-33 -22.5t-39.5 -8h-165q-21 0 -40 8t-33 22.5t-22 33t-8 39.5v83q0 21 8 39.5t22 33t33 22.5t40 8h165zM330 598q0 26 -18 44t-44 18h-165q-26 0 -44 -18t-18 -44v-83q0 -25 18 -43.5t44 -18.5h165q26 0 44 18.5t18 43.5v83zM988 186q0 25 -17.5 43.5t-43.5 18.5h-165
q-26 0 -44 -18.5t-18 -43.5v-83q0 -26 18 -43.5t44 -18.5h165q26 1 43.5 18.5t17.5 43.5v83zM677 701l-280 -701h-44l280 701h44z" />
    <glyph glyph-name="ampersand" unicode="&#x26;" horiz-adv-x="1129" 
d="M865 371h164v-41h-164v-330h-680q-38 0 -72 14.5t-59 40t-39.5 59t-14.5 72.5q0 54 27.5 98t72.5 67q-45 23 -72.5 66.5t-27.5 97.5q0 39 14.5 72.5t39.5 59t59 40t72 14.5h350v-41h-350q-30 0 -56 -11.5t-45.5 -31t-31 -46t-11.5 -56.5t11.5 -56t31 -45.5t45.5 -31
t56 -11.5h638v165h42v-165zM823 330h-638q-30 0 -56 -11.5t-45.5 -31t-31 -45.5t-11.5 -56t11.5 -56.5t31 -46t45.5 -31t56 -11.5l638 1v288z" />
    <glyph glyph-name="quotesingle" unicode="'" horiz-adv-x="141" 
d="M0 701h41v-227h-41v227z" />
    <glyph glyph-name="parenleft" unicode="(" horiz-adv-x="227" 
d="M127 784q-39 -97 -62.5 -231t-23.5 -292q0 -151 22 -281.5t59 -227.5h-44q-37 100 -57.5 230t-20.5 279q0 155 22 288.5t61 234.5h44z" />
    <glyph glyph-name="parenright" unicode=")" horiz-adv-x="228" 
d="M44 784q39 -101 61.5 -234.5t22.5 -288.5q0 -149 -20.5 -279t-58.5 -230h-43q37 97 59 227.5t22 281.5q0 158 -23.5 292t-63.5 231h44z" />
    <glyph glyph-name="asterisk" unicode="*" horiz-adv-x="622" 
d="M522 496l-227 -74l140 -193l-34 -25l-140 194l-141 -194l-33 25l140 193l-227 74l13 39l227 -73v239h42v-239l228 73z" />
    <glyph glyph-name="plus" unicode="+" horiz-adv-x="636" 
d="M289 289h247v-41h-247v-248h-41v248h-248v41h248v247h41v-247z" />
    <glyph glyph-name="comma" unicode="," horiz-adv-x="223" 
d="M82 41h41v-103q0 -21 -8 -40t-22 -33t-32.5 -22t-40.5 -8h-20v41h20q26 0 44 18t18 44v103z" />
    <glyph glyph-name="hyphen" unicode="-" horiz-adv-x="470" 
d="M0 289h370v-41h-370v41z" />
    <glyph glyph-name="period" unicode="." horiz-adv-x="141" 
d="M0 41h41v-41h-41v41z" />
    <glyph glyph-name="slash" unicode="/" horiz-adv-x="424" 
d="M280 701h44l-280 -701h-44z" />
    <glyph glyph-name="zero" unicode="0" horiz-adv-x="1129" 
d="M843 701q38 0 72 -14.5t59 -40t40 -59t15 -72.5v-329q0 -39 -15 -72.5t-40 -59t-59 -40t-72 -14.5h-659q-38 0 -71.5 14.5t-58.5 40t-39.5 59t-14.5 72.5v329q0 39 14.5 72.5t39.5 59t58.5 40t71.5 14.5h659zM987 515q0 30 -11.5 56.5t-31 46t-45.5 31t-56 11.5h-659
q-30 0 -56 -11.5t-45.5 -31t-31 -46t-11.5 -56.5v-329q0 -30 11.5 -56.5t31 -46t45.5 -31t56 -11.5h659q30 0 56 11.5t45.5 31t31 46t11.5 56.5v329z" />
    <glyph glyph-name="one" unicode="1" horiz-adv-x="308" 
d="M0 701h208v-701h-41v660h-167v41z" />
    <glyph glyph-name="two" unicode="2" horiz-adv-x="1130" 
d="M185 330q-30 0 -56 -11.5t-45.5 -31t-31 -45.5t-11.5 -56v-145h989v-41h-1030v186q0 39 14.5 72.5t39.5 58.5t59 39.5t72 14.5h659q30 0 56 11.5t45.5 31t31 45.5t11.5 56t-11.5 56.5t-31 46t-45.5 31t-56 11.5h-844v41h844q39 0 72.5 -14.5t59 -40t40 -59t14.5 -72.5
q0 -38 -14.5 -71.5t-40 -58.5t-59 -40t-72.5 -15h-659v0z" />
    <glyph glyph-name="three" unicode="3" horiz-adv-x="1129" 
d="M1029 515q0 -54 -27.5 -97.5t-72.5 -66.5q45 -23 72.5 -67t27.5 -98q0 -39 -14.5 -72.5t-39.5 -59t-59 -40t-72 -14.5h-844v41l844 1q30 0 56 11t45.5 30.5t31 46t11.5 56.5t-11.5 56t-31 45.5t-45.5 31t-56 11.5h-844v41h844q30 0 56 11.5t45.5 31t31 45.5t11.5 56
t-11.5 56.5t-31 46t-45.5 31t-56 11.5h-844v41h844q38 0 72 -14.5t59 -40t39.5 -59t14.5 -72.5z" />
    <glyph glyph-name="four" unicode="4" horiz-adv-x="1130" 
d="M989 701h41v-701h-41v248h-803q-39 0 -72.5 14.5t-59 39.5t-40 59t-14.5 72v268h41v-268q0 -30 11.5 -56.5t31 -46t46 -30.5t56.5 -11h803v412z" />
    <glyph glyph-name="five" unicode="5" horiz-adv-x="1129" 
d="M1029 701v-41h-988v-289h803q38 0 72 -14.5t59 -39.5t39.5 -58.5t14.5 -72.5t-14.5 -72.5t-39.5 -59t-59 -40t-72 -14.5h-844v41l844 1q30 0 56 11t45.5 30.5t30.5 46t11 56.5t-11 56t-30.5 45.5t-45.5 31t-56 11.5h-844v371h1029z" />
    <glyph glyph-name="six" unicode="6" horiz-adv-x="1129" 
d="M1029 701v-41h-844q-30 0 -56.5 -11.5t-46 -31t-31 -46t-11.5 -56.5v-144h803q39 0 72.5 -14.5t59 -39.5t40 -58.5t14.5 -72.5t-14.5 -72.5t-40 -59t-59 -40t-72.5 -14.5h-658q-39 0 -72.5 14.5t-58.5 40t-39.5 59t-14.5 72.5v329q0 39 14.5 72.5t39.5 59t58.5 40
t72.5 14.5h844zM40 330v-144q0 -30 11.5 -56.5t31 -46t46 -31t56.5 -11.5h658q30 0 56.5 11.5t46 31t31 46t11.5 56.5t-11.5 56t-31 45.5t-46 31t-56.5 11.5h-803z" />
    <glyph glyph-name="seven" unicode="7" horiz-adv-x="1130" 
d="M949 701q33 0 57 -23.5t24 -57.5q0 -17 -6.5 -31t-15.5 -25l-495 -564h-54l518 592v1q11 11 11 27q0 17 -11.5 28.5t-27.5 11.5h-949v41h949v0z" />
    <glyph glyph-name="eight" unicode="8" horiz-adv-x="1130" 
d="M929 351q45 -23 73 -67t28 -98q0 -39 -14.5 -72.5t-40 -59t-59 -40t-72.5 -14.5h-658q-39 0 -72.5 14.5t-59 40t-40 59t-14.5 72.5q0 54 28 98t73 67q-45 23 -73 66.5t-28 97.5q0 39 14.5 72.5t40 59t59 40t72.5 14.5h658q39 0 72.5 -14.5t59 -40t40 -59t14.5 -72.5
q0 -54 -28 -97.5t-73 -66.5zM41 515q0 -30 11.5 -56t31 -45.5t46 -31t56.5 -11.5h658q30 0 56.5 11.5t46 31t31 45.5t11.5 56t-11.5 56.5t-31 46t-46 31t-56.5 11.5h-658q-30 0 -56.5 -11.5t-46 -31t-31 -46t-11.5 -56.5zM844 41q30 0 56.5 11.5t46 31t31 46t11.5 56.5
t-11.5 56t-31 45.5t-46 31t-56.5 11.5h-659q-30 0 -56 -11.5t-45.5 -31t-31 -45.5t-11.5 -56t11.5 -56.5t31 -46t46 -30.5t56.5 -11v-1h658z" />
    <glyph glyph-name="nine" unicode="9" horiz-adv-x="1129" 
d="M843 701q39 0 72.5 -14.5t59 -40t40 -59t14.5 -72.5v-329q0 -39 -14.5 -72.5t-40 -59t-59 -40t-72.5 -14.5h-843v41l843 1q30 0 56.5 11t46 30.5t31 46t11.5 56.5v144h-803q-39 0 -72.5 14.5t-58.5 39.5t-39.5 59t-14.5 72q0 39 14.5 72.5t39.5 59t58.5 40t72.5 14.5h658
zM988 515q0 30 -11.5 56.5t-31 46t-46 31t-56.5 11.5h-658q-30 0 -56.5 -11.5t-46 -31t-31 -46t-11.5 -56.5t11.5 -56t31 -45.5t46 -31t56.5 -11.5h803v144z" />
    <glyph glyph-name="colon" unicode=":" horiz-adv-x="141" 
d="M0 453h41v-41h-41v41zM0 41h41v-41h-41v41z" />
    <glyph glyph-name="semicolon" unicode=";" horiz-adv-x="224" 
d="M83 41h41v-103q0 -21 -8 -40t-22.5 -33t-33 -22t-39.5 -8h-21v41h21q26 0 44 18t18 44v103zM123 412h-41v41h41v-41z" />
    <glyph glyph-name="less" unicode="&#x3c;" horiz-adv-x="622" 
d="M0 342l522 283v-46l-478 -259l478 -260v-46l-522 283v45z" />
    <glyph glyph-name="equal" unicode="=" horiz-adv-x="635" 
d="M0 207h535v-42h-535v42zM0 453h535v-41h-535v41z" />
    <glyph glyph-name="greater" unicode="&#x3e;" horiz-adv-x="623" 
d="M0 625l523 -283v-45l-505 -273l-18 -10v46l478 260l-478 259v46z" />
    <glyph glyph-name="question" unicode="?" 
d="M514 701q39 0 72.5 -14.5t59 -40t40 -59t14.5 -72.5q0 -38 -14.5 -72t-40 -59t-59 -39.5t-72.5 -14.5h-412q-26 0 -43.5 -18t-17.5 -43v-186h-41v186q0 21 8 39.5t21.5 32.5t32.5 22t40 8h412q30 0 56.5 11.5t46 31t31 45.5t11.5 56t-11.5 56.5t-31 46t-46 31t-56.5 11.5
h-514v41h514zM0 41h41v-41h-41v41z" />
    <glyph glyph-name="at" unicode="@" horiz-adv-x="1129" 
d="M843 701q39 0 72.5 -14.5t59 -40t40 -59t14.5 -72.5v-226q0 -46 -34 -74q-32 -29 -90 -29h-597q-17 1 -30.5 9.5t-24.5 22.5q-12 14 -19.5 31.5t-7.5 39.5v123q0 22 8 40.5t22.5 32.5t33 22t39.5 8h371q43 0 72.5 -29.5t29.5 -73.5v-185h103q45 2 63.5 19.5t19.5 42.5
v226q0 30 -11.5 56.5t-31 46t-46 31t-56.5 11.5h-658q-30 0 -56.5 -11.5t-46 -31t-31 -46t-11.5 -56.5v-329q0 -30 11.5 -56.5t31 -46t46 -31t56.5 -11.5h844v-41h-844q-39 0 -72.5 14.5t-58.5 40t-39.5 59t-14.5 72.5v329q0 39 14.5 72.5t39.5 59t58.5 40t72.5 14.5h658z
M761 412q0 26 -17.5 44t-43.5 18h-371q-26 0 -44 -18t-18 -44v-123q0 -14 4.5 -25.5t12.5 -19.5q8 -10 15 -13.5t9 -3.5h453v185z" />
    <glyph glyph-name="A" unicode="A" horiz-adv-x="1127" 
d="M548 700q29 0 52 -13.5t37 -36.5l390 -650h-48l-149 249v-2h-634l-148 -247h-48l390 650q13 23 36.5 36.5t51.5 13.5h70zM806 289l-204 340q-8 14 -22.5 22t-31.5 8h-70q-17 0 -31 -8t-22 -22l-204 -340h585z" />
    <glyph glyph-name="B" unicode="B" horiz-adv-x="1129" 
d="M1029 515q0 -54 -27.5 -98t-72.5 -67q45 -23 72.5 -67t27.5 -98q0 -38 -14.5 -72t-39.5 -59t-59 -39.5t-72 -14.5h-844v700h844q38 0 72 -14.5t59 -39.5t39.5 -59t14.5 -72zM988 185q0 30 -11.5 56.5t-31 46t-45.5 31t-56 11.5h-803v-289h803q30 0 56 11.5t45.5 31
t31 45.5t11.5 56zM844 370q30 0 56 11.5t45.5 31t31 46t11.5 56.5t-11.5 56t-31 45.5t-45.5 31t-56 11.5h-803v-289h803z" />
    <glyph glyph-name="C" unicode="C" horiz-adv-x="1129" 
d="M1029 700v-41h-845q-30 0 -56 -11.5t-45.5 -31t-31 -45.5t-11.5 -56v-330q0 -30 11.5 -56t31 -45.5t45.5 -31t56 -11.5h845v-41h-845q-38 0 -71.5 14.5t-58.5 39.5t-39.5 59t-14.5 72v330q0 38 14.5 72t39.5 59t58.5 39.5t71.5 14.5h845z" />
    <glyph glyph-name="D" unicode="D" horiz-adv-x="1129" 
d="M844 700q38 0 72 -14.5t59 -39.5t39.5 -59t14.5 -72v-330q0 -38 -14.5 -72t-39.5 -59t-59 -39.5t-72 -14.5h-844v700h844zM988 515q0 30 -11.5 56t-31 45.5t-45.5 31t-56 11.5h-803v-618h803q30 0 56 11.5t45.5 31t31 45.5t11.5 56v330z" />
    <glyph glyph-name="E" unicode="E" horiz-adv-x="1129" 
d="M40 370h989v-40h-989v-145q0 -30 11.5 -56t31 -45.5t46 -31t56.5 -11.5h844v-41h-844q-39 0 -72.5 14.5t-58.5 39.5t-39.5 59t-14.5 72v330q0 38 14.5 72t39.5 59t58.5 39.5t72.5 14.5h844v-41h-844q-30 0 -56.5 -11.5t-46 -31t-31 -45.5t-11.5 -56v-145z" />
    <glyph glyph-name="F" unicode="F" horiz-adv-x="1130" 
d="M1030 700v-41h-845q-30 0 -56 -11.5t-45.5 -31t-31 -45.5t-11.5 -56v-145h989v-40h-989v-330h-41v515q0 38 14.5 72t39.5 59t59 39.5t72 14.5h845z" />
    <glyph glyph-name="G" unicode="G" horiz-adv-x="1129" 
d="M494 370h535v-185q0 -38 -14.5 -72t-40 -59t-59 -39.5t-72.5 -14.5h-658q-39 0 -72.5 14.5t-58.5 39.5t-39.5 59t-14.5 72v330q0 38 14.5 72t39.5 59t58.5 39.5t72.5 14.5h844v-41h-844q-30 0 -56.5 -11.5t-46 -31t-31 -45.5t-11.5 -56v-330q0 -30 11.5 -56t31 -45.5
t46 -31t56.5 -11.5h658q30 0 56.5 11.5t46 31t31 45.5t11.5 56v145h-494v40z" />
    <glyph glyph-name="H" unicode="H" horiz-adv-x="1129" 
d="M1029 0h-42v330h-946v-330h-41v700h41v-330h946v330h42v-700z" />
    <glyph glyph-name="I" unicode="I" horiz-adv-x="141" 
d="M0 700h41v-700h-41v700z" />
    <glyph glyph-name="J" unicode="J" horiz-adv-x="1130" 
d="M989 700h41v-515q0 -38 -14.5 -72t-40 -59t-59 -39.5t-72.5 -14.5h-658q-39 0 -72.5 14.5t-59 39.5t-40 59t-14.5 72v185h41v-185q0 -30 11.5 -56t31 -45.5t46 -31t56.5 -11.5h658q30 0 56.5 11.5t46 31t31 45.5t11.5 56v515z" />
    <glyph glyph-name="K" unicode="K" horiz-adv-x="1023" 
d="M419 376l504 -376h-68l-471 351l-343 -241v-110h-41v700h41v-539l768 539h72z" />
    <glyph glyph-name="L" unicode="L" horiz-adv-x="1129" 
d="M41 185q0 -30 11.5 -56t31 -45.5t45.5 -31t56 -11.5h844v-41h-844q-38 0 -72 14.5t-59 39.5t-39.5 59t-14.5 72v515h41v-515v0z" />
    <glyph glyph-name="M" unicode="M" horiz-adv-x="1212" 
d="M1038 700q30 0 52 -21.5t22 -52.5v-626h-42v626q0 14 -9 23.5t-23 9.5q-18 0 -28 -16l-378 -607q-10 -16 -27 -26t-37 -10h-24q-20 0 -37 10t-27 26l-378 608q-10 15 -28 15q-14 0 -23 -9.5t-9 -23.5v-626h-42v626q0 31 21.5 52.5t52.5 21.5q20 0 37 -10t26 -26l379 -607
q8 -16 28 -16h24q20 0 28 16l379 607q9 16 26 26t37 10z" />
    <glyph glyph-name="N" unicode="N" horiz-adv-x="1129" 
d="M988 700h41v-619q0 -34 -23.5 -57.5t-58.5 -23.5q-28 0 -50 17l-791 634q-11 8 -24 8q-17 0 -29 -11.5t-12 -28.5v-619h-41v619q0 34 23.5 57.5t58.5 23.5q27 0 50 -17l791 -634q11 -8 24 -8q17 0 28.5 11.5t12.5 28.5v619z" />
    <glyph glyph-name="O" unicode="O" horiz-adv-x="1129" 
d="M843 700q39 0 72.5 -14.5t59 -39.5t40 -59t14.5 -72v-330q0 -38 -14.5 -72t-40 -59t-59 -39.5t-72.5 -14.5h-658q-39 0 -72.5 14.5t-58.5 39.5t-39.5 59t-14.5 72v330q0 38 14.5 72t39.5 59t58.5 39.5t72.5 14.5h658zM988 515q0 30 -11.5 56t-31 45.5t-46 31t-56.5 11.5
h-658q-30 0 -56.5 -11.5t-46 -31t-31 -45.5t-11.5 -56v-330q0 -30 11.5 -56t31 -45.5t46 -31t56.5 -11.5h658q30 0 56.5 11.5t46 31t31 45.5t11.5 56v330z" />
    <glyph glyph-name="P" unicode="P" horiz-adv-x="1129" 
d="M845 700q38 0 71.5 -14.5t58.5 -39.5t39.5 -59t14.5 -72v-83q0 -38 -14.5 -72t-39.5 -59t-58.5 -39.5t-71.5 -14.5h-804v-247h-41v700h845zM988 515q0 30 -11 56t-30.5 45.5t-45.5 31t-56 11.5h-804v-370h804q30 0 56 11t45.5 30.5t30.5 45.5t11 56v83z" />
    <glyph glyph-name="Q" unicode="Q" horiz-adv-x="1130" 
d="M844 700q39 0 72.5 -14.5t59 -39.5t40 -59t14.5 -72v-330q0 -38 -14.5 -72t-40 -59t-59 -39.5t-72.5 -14.5h-166l135 -205h-49l-135 205h-443q-39 0 -72.5 14.5t-59 39.5t-40 59t-14.5 72v330q0 38 14.5 72t40 59t59 39.5t72.5 14.5h658zM989 515q0 30 -11.5 56t-31 45.5
t-46 31t-56.5 11.5h-658q-30 0 -56.5 -11.5t-46 -31t-31 -45.5t-11.5 -56v-330q0 -30 11.5 -56t31 -45.5t46 -31t56.5 -11.5h658q30 0 56.5 11.5t46 31t31 45.5t11.5 56v330z" />
    <glyph glyph-name="R" unicode="R" horiz-adv-x="1129" 
d="M844 700q38 0 72 -14.5t59 -39.5t39.5 -59t14.5 -72v-83q0 -38 -14.5 -72t-39.5 -59t-59 -39.5t-72 -14.5h-37l165 -247h-50l-165 247h-716v-247h-41v700h844zM988 515q0 30 -11.5 56t-31 45.5t-45.5 31t-56 11.5h-803v-370h803q30 0 56 11t45.5 30.5t31 45.5t11.5 56v83
z" />
    <glyph glyph-name="S" unicode="S" horiz-adv-x="1129" 
d="M1029 700v-41h-845q-30 0 -56 -11.5t-45.5 -31t-30.5 -45.5t-11 -56t11 -56.5t30.5 -46t45.5 -31t56 -11.5h660q38 0 72 -14.5t59 -39.5t39.5 -58.5t14.5 -72.5q0 -38 -14.5 -72t-39.5 -59t-59 -39.5t-72 -14.5h-844v41h844q30 0 56 11.5t45.5 31t31 45.5t11.5 56
t-11.5 56.5t-31 46t-45.5 31t-56 11.5h-660q-38 0 -71.5 14.5t-58.5 39.5t-39.5 58.5t-14.5 72.5q0 38 14.5 72t39.5 59t58.5 39.5t71.5 14.5h845z" />
    <glyph glyph-name="T" unicode="T" horiz-adv-x="1129" 
d="M0 700h1029v-41h-494v-659h-41v659h-494v41z" />
    <glyph glyph-name="U" unicode="U" horiz-adv-x="1130" 
d="M989 700h41v-515q0 -38 -14.5 -72t-39.5 -59t-59 -39.5t-72 -14.5h-659q-39 0 -72.5 14.5t-59 39.5t-40 59t-14.5 72v515h41v-515q0 -30 11.5 -56t31 -45.5t46 -31t56.5 -11.5h659q30 0 56 11.5t45.5 31t31 45.5t11.5 56v515z" />
    <glyph glyph-name="V" unicode="V" horiz-adv-x="1127" 
d="M979 700h48l-390 -651q-14 -22 -37 -35.5t-51 -13.5h-71q-29 0 -52 13.5t-37 36.5l-389 650h47l378 -629q8 -14 22 -22t31 -8h71q17 0 30.5 8t21.5 22z" />
    <glyph glyph-name="W" unicode="W" horiz-adv-x="1368" 
d="M1226 700h42l-151 -640q-6 -26 -27.5 -43t-48.5 -17q-23 0 -41.5 11.5t-29.5 31.5l-295 591q-13 25 -41 25q-14 0 -25 -7t-16 -18l-296 -590q-9 -20 -28 -32t-42 -12q-28 0 -49 17t-27 43l-151 640h42l149 -630q2 -12 12 -20.5t24 -8.5q24 0 34 21l295 591
q11 21 31.5 34.5t46.5 13.5t46.5 -13.5t31.5 -34.5l295 -591q11 -21 34 -21q13 0 23.5 8t12.5 20z" />
    <glyph glyph-name="X" unicode="X" horiz-adv-x="960" 
d="M860 700l-399 -357l384 -343h-62l-353 316l-353 -316h-61l383 343l-399 357h62l368 -330l369 330h61z" />
    <glyph glyph-name="Y" unicode="Y" horiz-adv-x="944" 
d="M844 700l-402 -360v-340h-41v340l-401 360h61l361 -322l361 322h61z" />
    <glyph glyph-name="Z" unicode="Z" horiz-adv-x="1129" 
d="M59 99q-8 -3 -13 -10.5t-5 -17.5q0 -12 9 -21t21 -9h958v-41h-958q-29 0 -50 21t-21 50q0 23 12 40.5t31 25.5l926 463l1 1q18 7 18 27q0 13 -9 22t-21 9h-958v41h958q29 0 50 -21t21 -51q0 -22 -11.5 -39.5t-30.5 -25.5l-927 -463l-1 -1v0z" />
    <glyph glyph-name="bracketleft" unicode="[" horiz-adv-x="388" 
d="M288 783v-41h-247v-948h247v-42h-288v1031h288z" />
    <glyph glyph-name="backslash" unicode="\" horiz-adv-x="424" 
d="M280 701h44l-280 -701h-44z" />
    <glyph glyph-name="bracketright" unicode="]" horiz-adv-x="389" 
d="M0 783h289v-1031h-289v42h248v948h-248v41z" />
    <glyph glyph-name="asciicircum" unicode="^" horiz-adv-x="712" 
d="M602 195l10 -17h-46l-260 477l-258 -477h-48l283 523h46z" />
    <glyph glyph-name="underscore" unicode="_" 
d="M0 -124h700v-41h-700v41z" />
    <glyph glyph-name="grave" unicode="`" horiz-adv-x="373" 
d="M0 739l273 -91v-43l-273 91v43z" />
    <glyph glyph-name="a" unicode="a" 
d="M514 536q38 0 72 -14.5t59.5 -40t40 -59.5t14.5 -72v-350h-556q-30 0 -56.5 11.5t-46 31t-30.5 45.5t-11 56t11 56.5t30.5 46t46 31t56.5 11.5h514v61q0 30 -11.5 56t-31 45.5t-45.5 31t-56 11.5h-514v42h514zM658 248h-514q-22 0 -40.5 -8t-32.5 -22.5t-22 -33.5t-8 -40
t8 -40t22 -33t32.5 -22t40.5 -8h514v207z" />
    <glyph glyph-name="b" unicode="b" 
d="M514 536q39 0 72.5 -14.5t59 -40t40 -59.5t14.5 -72v-164q0 -39 -14.5 -72.5t-40 -59t-59 -40t-72.5 -14.5h-514v701h41v-165h473zM659 350q0 30 -11.5 56t-31 45.5t-46 31t-56.5 11.5h-473v-453h473q30 0 56.5 11.5t46 31t31 46t11.5 56.5v164z" />
    <glyph glyph-name="c" unicode="c" 
d="M0 350q0 38 14.5 72t40 59.5t59 40t72.5 14.5h514v-42h-514q-30 0 -56.5 -11.5t-46 -31t-31 -45.5t-11.5 -56v-164q0 -30 11.5 -56.5t31 -46t46 -31t56.5 -11.5h514v-41h-514q-39 0 -72.5 14.5t-59 40t-40 59t-14.5 72.5v164v0z" />
    <glyph glyph-name="d" unicode="d" 
d="M658 701h42v-701h-515q-38 0 -72 14.5t-59 40t-39.5 59t-14.5 72.5v164q0 38 14.5 72t39.5 59.5t59 40t72 14.5h473v165zM658 494h-473q-30 0 -56 -11.5t-45.5 -31t-31 -45.5t-11.5 -56v-164q0 -30 11.5 -56.5t31 -46t45.5 -31t56 -11.5h473v453z" />
    <glyph glyph-name="e" unicode="e" 
d="M0 350q0 38 14.5 72t39.5 59.5t59 40t72 14.5h515v-42h-515q-30 0 -56 -11.5t-45.5 -31t-31 -45.5t-11.5 -56v-61h659v-41h-659v-62q0 -30 11.5 -56.5t31 -46t45.5 -31t56 -11.5h515v-41h-515q-38 0 -72 14.5t-59 40t-39.5 59t-14.5 72.5v164v0z" />
    <glyph glyph-name="f" unicode="f" 
d="M0 350q0 38 14.5 72t39.5 59.5t59 40t72 14.5h515v-42h-515q-30 0 -56 -11.5t-45.5 -31t-31 -45.5t-11.5 -56v-61h659v-41h-659v-248h-41v350v0z" />
    <glyph glyph-name="g" unicode="g" 
d="M0 350q0 38 14.5 72t39.5 59.5t59 40t72 14.5h515v-598q0 -39 -14.5 -72.5t-40 -59t-59 -40t-72.5 -14.5h-514v42h514q30 0 56.5 11t46 30.5t31 46t11.5 56.5v62h-474q-38 0 -72 14.5t-59 40t-39.5 59t-14.5 72.5v164zM659 494h-474q-30 0 -56 -11.5t-45.5 -31t-31 -45.5
t-11.5 -56v-164q0 -30 11.5 -56.5t31 -46t45.5 -31t56 -11.5h474v453z" />
    <glyph glyph-name="h" unicode="h" 
d="M514 536q39 0 72.5 -14.5t59 -40t40 -59.5t14.5 -72v-350h-41v350q0 30 -11.5 56t-31 45.5t-46 31t-56.5 11.5h-473v-494h-41v701h41v-165h473v0z" />
    <glyph glyph-name="i" unicode="i" horiz-adv-x="141" 
d="M0 536h41v-536h-41v536z" />
    <glyph glyph-name="j" unicode="j" 
d="M659 536h41v-350q0 -39 -14.5 -72.5t-39.5 -59t-58.5 -40t-71.5 -14.5h-330q-38 0 -72 14.5t-59.5 40t-40 59t-14.5 72.5v103h42v-103q0 -30 11.5 -56.5t31 -46t45.5 -31t56 -11.5h330q30 0 56 11.5t45.5 31t30.5 46t11 56.5v350z" />
    <glyph glyph-name="k" unicode="k" horiz-adv-x="746" 
d="M337 357l309 -357h-55l-285 330l-265 -232v-98h-41v701h41v-548l438 383h62z" />
    <glyph glyph-name="l" unicode="l" horiz-adv-x="142" 
d="M0 701h42v-701h-42v701z" />
    <glyph glyph-name="m" unicode="m" horiz-adv-x="965" 
d="M680 536q38 0 72 -14.5t59 -40t39.5 -59.5t14.5 -72v-350h-41v350q0 30 -11.5 56t-31 45.5t-45.5 31t-56 11.5h-227v-494h-41v494h-370v-494h-42v536h680v0z" />
    <glyph glyph-name="n" unicode="n" 
d="M514 536q39 0 72.5 -14.5t59 -40t40 -59.5t14.5 -72v-350h-41v350q0 30 -11.5 56t-31 45.5t-46 31t-56.5 11.5h-473v-494h-41v536h514v0z" />
    <glyph glyph-name="o" unicode="o" 
d="M515 536q38 0 72 -14.5t59 -40t39.5 -59.5t14.5 -72v-164q0 -39 -14.5 -72.5t-39.5 -59t-59 -40t-72 -14.5h-329q-39 0 -72.5 14.5t-59 40t-40 59t-14.5 72.5v164q0 38 14.5 72t40 59.5t59 40t72.5 14.5h329zM659 350q0 30 -11.5 56t-31 45.5t-45.5 31t-56 11.5h-329
q-30 0 -56.5 -11.5t-46 -31t-31 -45.5t-11.5 -56v-164q0 -30 11.5 -56.5t31 -46t46 -31t56.5 -11.5h329q30 0 56 11.5t45.5 31t31 46t11.5 56.5v164z" />
    <glyph glyph-name="p" unicode="p" 
d="M514 536q39 0 72.5 -14.5t59 -40t40 -59.5t14.5 -72v-164q0 -39 -14.5 -72.5t-40 -59t-59 -40t-72.5 -14.5h-473v-248h-41v784h514zM659 350q0 30 -11.5 56t-31 45.5t-46 31t-56.5 11.5h-473v-453h473q30 0 56.5 11.5t46 31t31 46t11.5 56.5v164z" />
    <glyph glyph-name="q" unicode="q" 
d="M0 350q0 38 14.5 72t40 59.5t59 40t72.5 14.5h514v-784h-41v248h-473q-39 0 -72.5 14.5t-59 40t-40 59t-14.5 72.5v164zM659 494h-473q-30 0 -56.5 -11.5t-46 -31t-31 -45.5t-11.5 -56v-164q0 -30 11.5 -56.5t31 -46t46 -31t56.5 -11.5h473v453z" />
    <glyph glyph-name="r" unicode="r" 
d="M0 350q0 38 14.5 72t39.5 59.5t58.5 40t72.5 14.5h515v-42h-515q-30 0 -56.5 -11.5t-46 -31t-30.5 -45.5t-11 -56v-350h-41v350v0z" />
    <glyph glyph-name="s" unicode="s" 
d="M700 536v-42h-556q-21 0 -39.5 -8t-33 -22t-22.5 -32.5t-8 -40.5q0 -21 8 -39.5t22.5 -32.5t33 -22t39.5 -8h413q30 0 56 -11.5t45.5 -31t30.5 -46t11 -56.5t-11 -56t-30.5 -45.5t-45.5 -31t-56 -11.5h-557v41h557q21 0 39.5 8t32.5 22t22 33t8 40t-8 40t-22 33.5
t-32.5 22.5t-39.5 8h-413q-30 0 -56 11t-45.5 30.5t-31 45.5t-11.5 56t11.5 56.5t31 46t45.5 31t56 11.5h556z" />
    <glyph glyph-name="t" unicode="t" 
d="M289 536h411v-42h-411v-308q0 -30 11 -56.5t30.5 -46t45.5 -31t56 -11.5h268v-41h-268q-38 0 -71.5 14.5t-58.5 40t-39.5 59t-14.5 72.5v308h-248v42h248v165h41v-165z" />
    <glyph glyph-name="u" unicode="u" 
d="M659 536h41v-536h-515q-38 0 -72 14.5t-59 40t-39.5 59t-14.5 72.5v350h41v-350q0 -30 11.5 -56.5t31 -46t45.5 -31t56 -11.5h474v495z" />
    <glyph glyph-name="v" unicode="v" horiz-adv-x="818" 
d="M669 536h49l-337 -536h-44l-337 536h49l310 -493z" />
    <glyph glyph-name="w" unicode="w" horiz-adv-x="1138" 
d="M995 536h43l-185 -536h-47l-287 492l-286 -492h-48l-185 536h43l170 -489l284 489h44l284 -489z" />
    <glyph glyph-name="x" unicode="x" horiz-adv-x="673" 
d="M573 536l-258 -275l245 -261h-56l-217 231l-218 -231h-56l245 261l-258 275h57l230 -245l229 245h57z" />
    <glyph glyph-name="y" unicode="y" 
d="M659 536h41v-598q0 -39 -14.5 -72.5t-40 -59t-59 -40t-72.5 -14.5h-514v42h514q30 0 56.5 11t46 30.5t31 46t11.5 56.5v62h-474q-39 0 -72.5 14.5t-58.5 40t-39.5 59t-14.5 72.5v350h41v-350q0 -30 11 -56.5t30.5 -46t46 -31t56.5 -11.5h474v495z" />
    <glyph glyph-name="z" unicode="z" 
d="M59 99q-8 -3 -13 -10.5t-5 -16.5q0 -13 9 -22t22 -9h628v-41h-628q-30 0 -51 21t-21 51q0 21 11.5 38.5t28.5 26.5l602 299q17 8 17 28q0 13 -8.5 21.5t-21.5 8.5h-629v42h629q30 0 50.5 -21.5t20.5 -50.5q0 -21 -11 -38.5t-29 -25.5l-601 -301v0z" />
    <glyph glyph-name="braceleft" unicode="{" horiz-adv-x="306" 
d="M82 680q0 21 8 40t22 33t33 22t40 8h21v-41h-21q-26 0 -43.5 -18t-17.5 -44v-330q0 -25 -12 -46.5t-30 -35.5q18 -14 30 -35.5t12 -46.5v-331q0 -25 17.5 -43t43.5 -18h21v-42h-21q-21 0 -40 8t-33 22.5t-22 33t-8 39.5v331q0 25 -18 43.5t-44 18.5h-20v41h20
q26 0 44 17.5t18 43.5v330v0z" />
    <glyph glyph-name="bar" unicode="|" horiz-adv-x="141" 
d="M0 783h41v-1031h-41v1031z" />
    <glyph glyph-name="braceright" unicode="}" horiz-adv-x="306" 
d="M206 289v-41h-20q-26 0 -44 -18.5t-18 -43.5v-331q0 -21 -8 -39.5t-22 -33t-33 -22.5t-40 -8h-21v42h21q26 0 43.5 18t18.5 43v331q0 25 11 46.5t30 35.5q-19 14 -30 35.5t-12 46.5v330q0 26 -17.5 44t-43.5 18h-21v41h21q21 0 40 -8t33 -22t22 -33t8 -40v-330
q0 -26 18 -43.5t44 -17.5h20z" />
    <glyph glyph-name="asciitilde" unicode="~" horiz-adv-x="767" 
d="M638 338q3 2 5 3.5t4 2.5l4 2l16 13v-51q-9 -6 -25.5 -16.5t-39 -20t-49 -16.5t-54.5 -7h-2q-64 0 -102.5 13.5t-69.5 28.5q-16 8 -31 15t-33 12.5t-40 9t-52 3.5q-20 0 -40.5 -5.5t-39.5 -13t-34.5 -16t-24.5 -15.5q-4 -2 -6 -3.5t-4 -2.5t-3 -2l-17 -13v51q9 6 26 16.5
t39 20t48.5 16.5t55.5 7q32 0 57.5 -3.5t46.5 -9.5t38 -13.5t32 -15.5t30.5 -15t33.5 -12.5t40 -8.5t52 -3q20 0 40.5 5t39.5 12.5t34.5 16t24.5 15.5z" />
    <glyph glyph-name="exclamdown" unicode="&#xa1;" horiz-adv-x="141" 
d="M0 617h41v-618h-41v618zM41 659h-41v41h41v-41z" />
    <glyph glyph-name="cent" unicode="&#xa2;" 
d="M700 618v-41h-288v-453h288v-41h-288v-104h-41v104h-185q-39 0 -72.5 14.5t-59 39.5t-40 59t-14.5 72v164q0 39 14.5 72.5t40 59t59 40t72.5 14.5h185v103h41v-103h288zM371 577h-185q-30 0 -56.5 -11.5t-46 -31t-31 -46t-11.5 -56.5v-164q0 -30 11.5 -56.5t31 -46
t46 -30.5t56.5 -11h185v453z" />
    <glyph glyph-name="sterling" unicode="&#xa3;" horiz-adv-x="1129" 
d="M205 41h824v-41h-1029v41h164v289h-164v40h164v145q0 38 14.5 72t39.5 59.5t59 40t72 14.5h412q38 0 72 -14.5t59 -40t39.5 -59.5t14.5 -72v-21h-41v21q0 30 -11.5 56t-31 45.5t-45.5 31t-56 11.5h-412q-30 0 -56 -11.5t-45.5 -31t-31 -45.5t-11.5 -56v-145h412v-40h-412
v-289z" />
    <glyph glyph-name="yen" unicode="&#xa5;" horiz-adv-x="945" 
d="M845 701l-369 -330h296v-41h-329v-103h329v-41h-329v-186h-42v186h-329v41h329v103h-329v41h297l-369 330h62l360 -323l361 323h62z" />
    <glyph glyph-name="section" unicode="&#xa7;" horiz-adv-x="1130" 
d="M844 370q38 0 72 -14.5t59.5 -39.5t40 -58.5t14.5 -71.5v-240h-1q0 -2 0.5 -4t0.5 -4q0 -39 -14.5 -72.5t-40 -59t-59.5 -40t-72 -14.5h-844v41h844q30 0 56 11.5t45.5 31t31 46t11.5 56.5t-11.5 56t-31 45.5t-45.5 31t-56 11.5h-659q-38 0 -72 14.5t-59 40t-39.5 59.5
t-14.5 72v247q0 38 14.5 72t39.5 59.5t59 40t72 14.5h845v-42h-845q-30 0 -56 -11.5t-45.5 -31t-31 -45.5t-11.5 -56t11.5 -56.5t31 -46t45.5 -31t56 -11.5h659zM988 186q0 30 -11.5 56t-31 45.5t-45.5 31t-56 11.5h-659q-44 0 -81 18.5t-63 50.5v-131q0 -30 11.5 -56.5
t31 -46t45.5 -30.5t56 -11h659q44 0 81 -19t63 -50v131z" />
    <glyph glyph-name="dieresis" unicode="&#xa8;" horiz-adv-x="306" 
d="M0 647h41v-42h-41v42zM165 647h41v-42h-41v42z" />
    <glyph glyph-name="copyright" unicode="&#xa9;" horiz-adv-x="1126" 
d="M842 701q38 0 71.5 -14.5t58.5 -40t39.5 -59.5t14.5 -72v-329q0 -39 -14.5 -72.5t-39.5 -59t-58.5 -40t-71.5 -14.5h-658q-38 0 -71.5 14.5t-58.5 40t-39.5 59t-14.5 72.5v329q0 38 14.5 72t39.5 59.5t58.5 40t71.5 14.5h658zM985 515q0 30 -11 56t-30.5 45.5t-45.5 31
t-56 11.5h-658q-30 0 -56 -11.5t-45.5 -31t-31 -45.5t-11.5 -56v-329q0 -30 11.5 -56.5t31 -46t45.5 -31t56 -11.5h658q30 0 56 11.5t45.5 31t30.5 46t11 56.5v329zM206 350q0 38 14.5 72t40 59.5t59 40t72.5 14.5h388v-42h-388q-30 0 -56.5 -11.5t-46 -31t-30.5 -45.5
t-11 -56t11 -56.5t30.5 -46t46 -30.5t56.5 -11h388v-41h-388q-39 0 -72.5 14.5t-59 39.5t-40 59t-14.5 72z" />
    <glyph glyph-name="registered" unicode="&#xae;" horiz-adv-x="1127" 
d="M842 701q38 0 71.5 -14.5t59 -40t40 -59.5t14.5 -72v-329q0 -39 -14.5 -72.5t-40 -59t-59 -40t-71.5 -14.5h-657q-39 0 -72.5 14.5t-58.5 40t-39.5 59t-14.5 72.5v329q0 38 14.5 72t39.5 59.5t58.5 40t72.5 14.5h657zM985 515q0 30 -11 56t-30.5 45.5t-45.5 31t-56 11.5
h-657q-30 0 -56.5 -11.5t-46 -31t-30.5 -45.5t-11 -56v-329q0 -30 11 -56.5t30.5 -46t46 -31t56.5 -11.5h657q30 0 56 11.5t45.5 31t30.5 46t11 56.5v329zM780 391q0 -46 -25.5 -81.5t-65.5 -51.5l51 -93h-48l-44 83h-363v-83h-41v371h392q30 0 56 -11.5t45.5 -31t31 -46
t11.5 -56.5zM636 289q21 0 39.5 8t33 22t22.5 32.5t8 39.5q0 22 -8 40.5t-22.5 32.5t-33 22t-39.5 8h-351v-205h351z" />
    <glyph glyph-name="degree" unicode="&#xb0;" horiz-adv-x="388" 
d="M144 721q30 0 56 -11.5t45.5 -31t31 -45.5t11.5 -56t-11.5 -56.5t-31 -46t-45.5 -31t-56 -11.5t-56 11.5t-45.5 31t-31 46t-11.5 56.5t11.5 56t31 45.5t45.5 31t56 11.5zM144 474q21 0 40 8t33 22t22.5 33t8.5 40t-8.5 40t-22.5 33t-33 22t-40 8t-40 -8t-33 -22t-22 -33
t-8 -40t8 -40t22 -33t33 -22t40 -8z" />
    <glyph glyph-name="acute" unicode="&#xb4;" horiz-adv-x="373" 
d="M0 648l273 91v-43l-273 -91v43z" />
    <glyph glyph-name="questiondown" unicode="&#xbf;" 
d="M185 -1q-38 0 -72 14.5t-59 40t-39.5 59t-14.5 72.5q0 38 14.5 72t39.5 59t59 39.5t72 14.5h412q26 0 44 18t18 43v186h41v-186q0 -21 -8 -39.5t-22 -32.5t-33 -22t-40 -8h-412q-30 0 -56 -11.5t-45.5 -31t-31 -45.5t-11.5 -56t11.5 -56.5t31 -46t45.5 -31t56 -11.5h515
v-41h-515zM700 659h-41v41h41v-41z" />
    <glyph glyph-name="Agrave" unicode="&#xc0;" horiz-adv-x="1127" 
d="M548 700q29 0 52 -13.5t37 -36.5l390 -650h-48l-149 249v-2h-634l-148 -247h-48l390 650q13 23 36.5 36.5t51.5 13.5h70zM806 289l-204 340q-8 14 -22.5 22t-31.5 8h-70q-17 0 -31 -8t-22 -22l-204 -340h585zM377 879l273 -91v-43l-273 91v43z" />
    <glyph glyph-name="Aacute" unicode="&#xc1;" horiz-adv-x="1127" 
d="M548 700q29 0 52 -13.5t37 -36.5l390 -650h-48l-149 249v-2h-634l-148 -247h-48l390 650q13 23 36.5 36.5t51.5 13.5h70zM806 289l-204 340q-8 14 -22.5 22t-31.5 8h-70q-17 0 -31 -8t-22 -22l-204 -340h585zM377 788l273 91v-43l-273 -91v43z" />
    <glyph glyph-name="Acircumflex" unicode="&#xc2;" horiz-adv-x="1127" 
d="M548 700q29 0 52 -13.5t37 -36.5l390 -650h-48l-149 249v-2h-634l-148 -247h-48l390 650q13 23 36.5 36.5t51.5 13.5h70zM806 289l-204 340q-8 14 -22.5 22t-31.5 8h-70q-17 0 -31 -8t-22 -22l-204 -340h585zM513 878l174 -86v-47l-174 88l-174 -88v47z" />
    <glyph glyph-name="Atilde" unicode="&#xc3;" horiz-adv-x="1127" 
d="M548 700q29 0 52 -13.5t37 -36.5l390 -650h-48l-149 249v-2h-634l-148 -247h-48l390 650q13 23 36.5 36.5t51.5 13.5h70zM806 289l-204 340q-8 14 -22.5 22t-31.5 8h-70q-17 0 -31 -8t-22 -22l-204 -340h585zM748 830q-6 -6 -18 -20t-29 -28t-38.5 -25t-46.5 -12h-2
q-42 0 -68.5 15.5t-46.5 30.5q-19 16 -37 26t-53 10q-15 1 -28.5 -5.5t-26 -17t-24 -23t-21.5 -24.5l-32 26q6 6 18 20t29 28t38.5 25.5t46.5 12.5q44 0 70.5 -15.5t46.5 -31.5q19 -15 37 -25t53 -11q15 -1 28.5 5.5t26 17t24 23.5t21.5 24z" />
    <glyph glyph-name="Adieresis" unicode="&#xc4;" horiz-adv-x="1127" 
d="M548 700q29 0 52 -13.5t37 -36.5l390 -650h-48l-149 249v-2h-634l-148 -247h-48l390 650q13 23 36.5 36.5t51.5 13.5h70zM806 289l-204 340q-8 14 -22.5 22t-31.5 8h-70q-17 0 -31 -8t-22 -22l-204 -340h585zM410 787h41v-42h-41v42zM575 787h41v-42h-41v42z" />
    <glyph glyph-name="Aring" unicode="&#xc5;" horiz-adv-x="1127" 
d="M548 700q29 0 52 -13.5t37 -36.5l390 -650h-48l-149 249v-2h-634l-148 -247h-48l390 650q13 23 36.5 36.5t51.5 13.5h70zM806 289l-204 340q-8 14 -22.5 22t-31.5 8h-70q-17 0 -31 -8t-22 -22l-204 -340h585zM513 948q30 0 56 -11.5t45.5 -31t31 -45.5t11.5 -56
t-11.5 -56.5t-31 -46t-45.5 -31t-56 -11.5t-56 11.5t-45.5 31t-31 46t-11.5 56.5t11.5 56t31 45.5t45.5 31t56 11.5zM513 701q21 0 40 8t33 22t22.5 33t8.5 40t-8.5 40t-22.5 33t-33 22t-40 8t-40 -8t-33 -22t-22 -33t-8 -40t8 -40t22 -33t33 -22t40 -8z" />
    <glyph glyph-name="AE" unicode="&#xc6;" horiz-adv-x="1622" 
d="M1522 659h-891l7 -8l167 -281h717v-40h-691l172 -289h519v-41h-542l-149 249v-1h-635l-148 -248h-48l390 651q14 23 37 36.5t51 13.5h1044v-42zM602 629q-8 14 -22 22t-31 8h-71q-17 0 -31 -8t-22 -22l-204 -340h586z" />
    <glyph glyph-name="Ccedilla" unicode="&#xc7;" horiz-adv-x="1130" 
d="M1030 701v-42h-844q-30 0 -56.5 -11.5t-46 -31t-30.5 -45.5t-11 -56v-329q0 -30 11 -56.5t30.5 -46t46 -31t56.5 -11.5h844v-41h-453v-62q0 -21 -8 -40t-22 -33t-33 -22t-40 -8h-21v41h21q26 0 43.5 18t17.5 44v62h-349q-38 0 -72 14.5t-59.5 40t-40 59t-14.5 72.5v329
q0 38 14.5 72t40 59.5t59.5 40t72 14.5h844z" />
    <glyph glyph-name="Egrave" unicode="&#xc8;" horiz-adv-x="1129" 
d="M40 370h989v-40h-989v-145q0 -30 11.5 -56t31 -45.5t46 -31t56.5 -11.5h844v-41h-844q-39 0 -72.5 14.5t-58.5 39.5t-39.5 59t-14.5 72v330q0 38 14.5 72t39.5 59t58.5 39.5t72.5 14.5h844v-41h-844q-30 0 -56.5 -11.5t-46 -31t-31 -45.5t-11.5 -56v-145zM379 879
l273 -91v-43l-273 91v43z" />
    <glyph glyph-name="Eacute" unicode="&#xc9;" horiz-adv-x="1129" 
d="M40 370h989v-40h-989v-145q0 -30 11.5 -56t31 -45.5t46 -31t56.5 -11.5h844v-41h-844q-39 0 -72.5 14.5t-58.5 39.5t-39.5 59t-14.5 72v330q0 38 14.5 72t39.5 59t58.5 39.5t72.5 14.5h844v-41h-844q-30 0 -56.5 -11.5t-46 -31t-31 -45.5t-11.5 -56v-145zM379 788l273 91
v-43l-273 -91v43z" />
    <glyph glyph-name="Ecircumflex" unicode="&#xca;" horiz-adv-x="1129" 
d="M40 370h989v-40h-989v-145q0 -30 11.5 -56t31 -45.5t46 -31t56.5 -11.5h844v-41h-844q-39 0 -72.5 14.5t-58.5 39.5t-39.5 59t-14.5 72v330q0 38 14.5 72t39.5 59t58.5 39.5t72.5 14.5h844v-41h-844q-30 0 -56.5 -11.5t-46 -31t-31 -45.5t-11.5 -56v-145zM515 878
l174 -86v-47l-174 88l-174 -88v47z" />
    <glyph glyph-name="Edieresis" unicode="&#xcb;" horiz-adv-x="1129" 
d="M40 370h989v-40h-989v-145q0 -30 11.5 -56t31 -45.5t46 -31t56.5 -11.5h844v-41h-844q-39 0 -72.5 14.5t-58.5 39.5t-39.5 59t-14.5 72v330q0 38 14.5 72t39.5 59t58.5 39.5t72.5 14.5h844v-41h-844q-30 0 -56.5 -11.5t-46 -31t-31 -45.5t-11.5 -56v-145zM412 787h41v-42
h-41v42zM577 787h41v-42h-41v42z" />
    <glyph glyph-name="Igrave" unicode="&#xcc;" horiz-adv-x="141" 
d="M0 700h41v-700h-41v700zM-115 879l273 -91v-43l-273 91v43z" />
    <glyph glyph-name="Iacute" unicode="&#xcd;" horiz-adv-x="141" 
d="M0 700h41v-700h-41v700zM-115 788l273 91v-43l-273 -91v43z" />
    <glyph glyph-name="Icircumflex" unicode="&#xce;" horiz-adv-x="141" 
d="M0 700h41v-700h-41v700zM21 878l174 -86v-47l-174 88l-174 -88v47z" />
    <glyph glyph-name="Idieresis" unicode="&#xcf;" horiz-adv-x="141" 
d="M0 700h41v-700h-41v700zM-82 787h41v-42h-41v42zM83 787h41v-42h-41v42z" />
    <glyph glyph-name="Ntilde" unicode="&#xd1;" horiz-adv-x="1129" 
d="M988 700h41v-619q0 -34 -23.5 -57.5t-58.5 -23.5q-28 0 -50 17l-791 634q-11 8 -24 8q-17 0 -29 -11.5t-12 -28.5v-619h-41v619q0 34 23.5 57.5t58.5 23.5q27 0 50 -17l791 -634q11 -8 24 -8q17 0 28.5 11.5t12.5 28.5v619zM800 890q-6 -6 -18 -20t-29 -28t-38.5 -25
t-46.5 -12h-2q-42 0 -68.5 15.5t-46.5 30.5q-19 16 -37 26t-53 10q-15 1 -28.5 -5.5t-26 -17t-24 -23t-21.5 -24.5l-32 26q6 6 18 20t29 28t38.5 25.5t46.5 12.5q44 0 70.5 -15.5t46.5 -31.5q19 -15 37 -25t53 -11q15 -1 28.5 5.5t26 17t24 23.5t21.5 24z" />
    <glyph glyph-name="Ograve" unicode="&#xd2;" horiz-adv-x="1129" 
d="M843 700q39 0 72.5 -14.5t59 -39.5t40 -59t14.5 -72v-330q0 -38 -14.5 -72t-40 -59t-59 -39.5t-72.5 -14.5h-658q-39 0 -72.5 14.5t-58.5 39.5t-39.5 59t-14.5 72v330q0 38 14.5 72t39.5 59t58.5 39.5t72.5 14.5h658zM988 515q0 30 -11.5 56t-31 45.5t-46 31t-56.5 11.5
h-658q-30 0 -56.5 -11.5t-46 -31t-31 -45.5t-11.5 -56v-330q0 -30 11.5 -56t31 -45.5t46 -31t56.5 -11.5h658q30 0 56.5 11.5t46 31t31 45.5t11.5 56v330zM378 879l273 -91v-43l-273 91v43z" />
    <glyph glyph-name="Oacute" unicode="&#xd3;" horiz-adv-x="1129" 
d="M843 700q39 0 72.5 -14.5t59 -39.5t40 -59t14.5 -72v-330q0 -38 -14.5 -72t-40 -59t-59 -39.5t-72.5 -14.5h-658q-39 0 -72.5 14.5t-58.5 39.5t-39.5 59t-14.5 72v330q0 38 14.5 72t39.5 59t58.5 39.5t72.5 14.5h658zM988 515q0 30 -11.5 56t-31 45.5t-46 31t-56.5 11.5
h-658q-30 0 -56.5 -11.5t-46 -31t-31 -45.5t-11.5 -56v-330q0 -30 11.5 -56t31 -45.5t46 -31t56.5 -11.5h658q30 0 56.5 11.5t46 31t31 45.5t11.5 56v330zM378 788l273 91v-43l-273 -91v43z" />
    <glyph glyph-name="Ocircumflex" unicode="&#xd4;" horiz-adv-x="1129" 
d="M843 700q39 0 72.5 -14.5t59 -39.5t40 -59t14.5 -72v-330q0 -38 -14.5 -72t-40 -59t-59 -39.5t-72.5 -14.5h-658q-39 0 -72.5 14.5t-58.5 39.5t-39.5 59t-14.5 72v330q0 38 14.5 72t39.5 59t58.5 39.5t72.5 14.5h658zM988 515q0 30 -11.5 56t-31 45.5t-46 31t-56.5 11.5
h-658q-30 0 -56.5 -11.5t-46 -31t-31 -45.5t-11.5 -56v-330q0 -30 11.5 -56t31 -45.5t46 -31t56.5 -11.5h658q30 0 56.5 11.5t46 31t31 45.5t11.5 56v330zM514 878l174 -86v-47l-174 88l-174 -88v47z" />
    <glyph glyph-name="Otilde" unicode="&#xd5;" horiz-adv-x="1129" 
d="M843 700q39 0 72.5 -14.5t59 -39.5t40 -59t14.5 -72v-330q0 -38 -14.5 -72t-40 -59t-59 -39.5t-72.5 -14.5h-658q-39 0 -72.5 14.5t-58.5 39.5t-39.5 59t-14.5 72v330q0 38 14.5 72t39.5 59t58.5 39.5t72.5 14.5h658zM988 515q0 30 -11.5 56t-31 45.5t-46 31t-56.5 11.5
h-658q-30 0 -56.5 -11.5t-46 -31t-31 -45.5t-11.5 -56v-330q0 -30 11.5 -56t31 -45.5t46 -31t56.5 -11.5h658q30 0 56.5 11.5t46 31t31 45.5t11.5 56v330zM749 830q-6 -6 -18 -20t-29 -28t-38.5 -25t-46.5 -12h-2q-42 0 -68.5 15.5t-46.5 30.5q-19 16 -37 26t-53 10
q-15 1 -28.5 -5.5t-26 -17t-24 -23t-21.5 -24.5l-32 26q6 6 18 20t29 28t38.5 25.5t46.5 12.5q44 0 70.5 -15.5t46.5 -31.5q19 -15 37 -25t53 -11q15 -1 28.5 5.5t26 17t24 23.5t21.5 24z" />
    <glyph glyph-name="Odieresis" unicode="&#xd6;" horiz-adv-x="1129" 
d="M843 700q39 0 72.5 -14.5t59 -39.5t40 -59t14.5 -72v-330q0 -38 -14.5 -72t-40 -59t-59 -39.5t-72.5 -14.5h-658q-39 0 -72.5 14.5t-58.5 39.5t-39.5 59t-14.5 72v330q0 38 14.5 72t39.5 59t58.5 39.5t72.5 14.5h658zM988 515q0 30 -11.5 56t-31 45.5t-46 31t-56.5 11.5
h-658q-30 0 -56.5 -11.5t-46 -31t-31 -45.5t-11.5 -56v-330q0 -30 11.5 -56t31 -45.5t46 -31t56.5 -11.5h658q30 0 56.5 11.5t46 31t31 45.5t11.5 56v330zM411 787h41v-42h-41v42zM576 787h41v-42h-41v42z" />
    <glyph glyph-name="Oslash" unicode="&#xd8;" horiz-adv-x="1130" 
d="M844 701q39 0 72.5 -14.5t59 -40t40 -59.5t14.5 -72v-329q0 -39 -14.5 -72.5t-40 -59t-59 -40t-72.5 -14.5h-524l-47 -62h-51l46 62h-82q-39 0 -72.5 14.5t-59 40t-40 59t-14.5 72.5v329q0 38 14.5 72t40 59.5t59 40t72.5 14.5h607l47 62h51zM299 41l463 618h-576
q-30 0 -56.5 -11.5t-46 -31t-31 -45.5t-11.5 -56v-329q0 -30 11.5 -56.5t31 -46t46 -31t56.5 -11.5h113zM989 515q0 30 -11.5 56t-31 45.5t-46 31t-56.5 11.5h-30l-463 -618h493q30 0 56.5 11.5t46 31t31 46t11.5 56.5v329z" />
    <glyph glyph-name="Ugrave" unicode="&#xd9;" horiz-adv-x="1130" 
d="M989 700h41v-515q0 -38 -14.5 -72t-39.5 -59t-59 -39.5t-72 -14.5h-659q-39 0 -72.5 14.5t-59 39.5t-40 59t-14.5 72v515h41v-515q0 -30 11.5 -56t31 -45.5t46 -31t56.5 -11.5h659q30 0 56 11.5t45.5 31t31 45.5t11.5 56v515zM378 879l273 -91v-43l-273 91v43z" />
    <glyph glyph-name="Uacute" unicode="&#xda;" horiz-adv-x="1130" 
d="M989 700h41v-515q0 -38 -14.5 -72t-39.5 -59t-59 -39.5t-72 -14.5h-659q-39 0 -72.5 14.5t-59 39.5t-40 59t-14.5 72v515h41v-515q0 -30 11.5 -56t31 -45.5t46 -31t56.5 -11.5h659q30 0 56 11.5t45.5 31t31 45.5t11.5 56v515zM378 788l273 91v-43l-273 -91v43z" />
    <glyph glyph-name="Ucircumflex" unicode="&#xdb;" horiz-adv-x="1130" 
d="M989 700h41v-515q0 -38 -14.5 -72t-39.5 -59t-59 -39.5t-72 -14.5h-659q-39 0 -72.5 14.5t-59 39.5t-40 59t-14.5 72v515h41v-515q0 -30 11.5 -56t31 -45.5t46 -31t56.5 -11.5h659q30 0 56 11.5t45.5 31t31 45.5t11.5 56v515zM514 878l174 -86v-47l-174 88l-174 -88v47z
" />
    <glyph glyph-name="Udieresis" unicode="&#xdc;" horiz-adv-x="1130" 
d="M989 700h41v-515q0 -38 -14.5 -72t-39.5 -59t-59 -39.5t-72 -14.5h-659q-39 0 -72.5 14.5t-59 39.5t-40 59t-14.5 72v515h41v-515q0 -30 11.5 -56t31 -45.5t46 -31t56.5 -11.5h659q30 0 56 11.5t45.5 31t31 45.5t11.5 56v515zM411 787h41v-42h-41v42zM576 787h41v-42h-41
v42z" />
    <glyph glyph-name="Yacute" unicode="&#xdd;" horiz-adv-x="944" 
d="M844 700l-402 -360v-340h-41v340l-401 360h61l361 -322l361 322h61zM286 788l273 91v-43l-273 -91v43z" />
    <glyph glyph-name="germandbls" unicode="&#xdf;" horiz-adv-x="1129" 
d="M844 370q38 0 72 -14.5t59 -39.5t39.5 -58.5t14.5 -71.5q0 -39 -14.5 -72.5t-39.5 -59t-59 -40t-72 -14.5h-515v41h515q30 0 56 11.5t45.5 31t31 46t11.5 56.5t-11.5 56t-31 45.5t-45.5 31t-56 11.5q-39 0 -72.5 14.5t-59 39.5t-40 58.5t-14.5 72.5q0 30 -11.5 56
t-31 45.5t-45.5 31t-56 11.5h-329q-30 0 -56 -11.5t-45.5 -31t-31 -45.5t-11.5 -56v-515h-41v515q0 38 14.5 72t39.5 59.5t59 40t72 14.5h329q38 0 72 -14.5t59.5 -40t40 -59.5t14.5 -72q0 -30 11 -56.5t30.5 -46t46 -31t56.5 -11.5z" />
    <glyph glyph-name="agrave" unicode="&#xe0;" 
d="M514 536q38 0 72 -14.5t59.5 -40t40 -59.5t14.5 -72v-350h-556q-30 0 -56.5 11.5t-46 31t-30.5 45.5t-11 56t11 56.5t30.5 46t46 31t56.5 11.5h514v61q0 30 -11.5 56t-31 45.5t-45.5 31t-56 11.5h-514v42h514zM658 248h-514q-22 0 -40.5 -8t-32.5 -22.5t-22 -33.5t-8 -40
t8 -40t22 -33t32.5 -22t40.5 -8h514v207zM214 739l273 -91v-43l-273 91v43z" />
    <glyph glyph-name="aacute" unicode="&#xe1;" 
d="M514 536q38 0 72 -14.5t59.5 -40t40 -59.5t14.5 -72v-350h-556q-30 0 -56.5 11.5t-46 31t-30.5 45.5t-11 56t11 56.5t30.5 46t46 31t56.5 11.5h514v61q0 30 -11.5 56t-31 45.5t-45.5 31t-56 11.5h-514v42h514zM658 248h-514q-22 0 -40.5 -8t-32.5 -22.5t-22 -33.5t-8 -40
t8 -40t22 -33t32.5 -22t40.5 -8h514v207zM214 648l273 91v-43l-273 -91v43z" />
    <glyph glyph-name="acircumflex" unicode="&#xe2;" 
d="M514 536q38 0 72 -14.5t59.5 -40t40 -59.5t14.5 -72v-350h-556q-30 0 -56.5 11.5t-46 31t-30.5 45.5t-11 56t11 56.5t30.5 46t46 31t56.5 11.5h514v61q0 30 -11.5 56t-31 45.5t-45.5 31t-56 11.5h-514v42h514zM658 248h-514q-22 0 -40.5 -8t-32.5 -22.5t-22 -33.5t-8 -40
t8 -40t22 -33t32.5 -22t40.5 -8h514v207zM350 738l174 -86v-47l-174 88l-174 -88v47z" />
    <glyph glyph-name="atilde" unicode="&#xe3;" 
d="M514 536q38 0 72 -14.5t59.5 -40t40 -59.5t14.5 -72v-350h-556q-30 0 -56.5 11.5t-46 31t-30.5 45.5t-11 56t11 56.5t30.5 46t46 31t56.5 11.5h514v61q0 30 -11.5 56t-31 45.5t-45.5 31t-56 11.5h-514v42h514zM658 248h-514q-22 0 -40.5 -8t-32.5 -22.5t-22 -33.5t-8 -40
t8 -40t22 -33t32.5 -22t40.5 -8h514v207zM585 690q-6 -6 -18 -20t-29 -28t-38.5 -25t-46.5 -12h-2q-42 0 -68.5 15.5t-46.5 30.5q-19 16 -37 26t-53 10q-15 1 -28.5 -5.5t-26 -17t-24 -23t-21.5 -24.5l-32 26q6 6 18 20t29 28t38.5 25.5t46.5 12.5q44 0 70.5 -15.5
t46.5 -31.5q19 -15 37 -25t53 -11q15 -1 28.5 5.5t26 17t24 23.5t21.5 24z" />
    <glyph glyph-name="adieresis" unicode="&#xe4;" 
d="M514 536q38 0 72 -14.5t59.5 -40t40 -59.5t14.5 -72v-350h-556q-30 0 -56.5 11.5t-46 31t-30.5 45.5t-11 56t11 56.5t30.5 46t46 31t56.5 11.5h514v61q0 30 -11.5 56t-31 45.5t-45.5 31t-56 11.5h-514v42h514zM658 248h-514q-22 0 -40.5 -8t-32.5 -22.5t-22 -33.5t-8 -40
t8 -40t22 -33t32.5 -22t40.5 -8h514v207zM247 647h41v-42h-41v42zM412 647h41v-42h-41v42z" />
    <glyph glyph-name="aring" unicode="&#xe5;" 
d="M514 536q38 0 72 -14.5t59.5 -40t40 -59.5t14.5 -72v-350h-556q-30 0 -56.5 11.5t-46 31t-30.5 45.5t-11 56t11 56.5t30.5 46t46 31t56.5 11.5h514v61q0 30 -11.5 56t-31 45.5t-45.5 31t-56 11.5h-514v42h514zM658 248h-514q-22 0 -40.5 -8t-32.5 -22.5t-22 -33.5t-8 -40
t8 -40t22 -33t32.5 -22t40.5 -8h514v207zM350 783q30 0 56 -11.5t45.5 -31t31 -45.5t11.5 -56t-11.5 -56.5t-31 -46t-45.5 -31t-56 -11.5t-56 11.5t-45.5 31t-31 46t-11.5 56.5t11.5 56t31 45.5t45.5 31t56 11.5zM350 536q21 0 40 8t33 22t22.5 33t8.5 40t-8.5 40t-22.5 33
t-33 22t-40 8t-40 -8t-33 -22t-22 -33t-8 -40t8 -40t22 -33t33 -22t40 -8z" />
    <glyph glyph-name="ae" unicode="&#xe6;" horiz-adv-x="1459" 
d="M679 435q23 45 67 73t98 28h515v-42h-515q-30 0 -56 -11.5t-45.5 -31t-31 -45.5t-11.5 -56v-61h659v-41h-659v-207h659v-41h-1215q-30 0 -56 11.5t-45.5 31t-31 45.5t-11.5 56t11.5 56.5t31 46t45.5 31t56 11.5h515v61q0 30 -11.5 56t-31 45.5t-45.5 31t-56 11.5h-515v42
h515q54 0 97.5 -28t66.5 -73zM659 248h-515q-21 0 -39.5 -8.5t-33 -22.5t-22.5 -33t-8 -40t8 -40t22.5 -33t33 -22t39.5 -8h515v207z" />
    <glyph glyph-name="ccedilla" unicode="&#xe7;" 
d="M700 536v-42h-514q-30 0 -56.5 -11.5t-46 -31t-31 -45.5t-11.5 -56v-164q0 -30 11.5 -56.5t31 -46t46 -31t56.5 -11.5h514v-41h-288v-62q0 -21 -8 -40t-22 -33t-33 -22t-40 -8h-20v41h20q26 0 44 18t18 44v62h-185q-39 0 -72.5 14.5t-59 40t-40 59t-14.5 72.5v164
q0 38 14.5 72t40 59.5t59 40t72.5 14.5h514z" />
    <glyph glyph-name="egrave" unicode="&#xe8;" 
d="M0 350q0 38 14.5 72t39.5 59.5t59 40t72 14.5h515v-42h-515q-30 0 -56 -11.5t-45.5 -31t-31 -45.5t-11.5 -56v-61h659v-41h-659v-62q0 -30 11.5 -56.5t31 -46t45.5 -31t56 -11.5h515v-41h-515q-38 0 -72 14.5t-59 40t-39.5 59t-14.5 72.5v164zM214 739l273 -91v-43
l-273 91v43z" />
    <glyph glyph-name="eacute" unicode="&#xe9;" 
d="M0 350q0 38 14.5 72t39.5 59.5t59 40t72 14.5h515v-42h-515q-30 0 -56 -11.5t-45.5 -31t-31 -45.5t-11.5 -56v-61h659v-41h-659v-62q0 -30 11.5 -56.5t31 -46t45.5 -31t56 -11.5h515v-41h-515q-38 0 -72 14.5t-59 40t-39.5 59t-14.5 72.5v164zM214 648l273 91v-43
l-273 -91v43z" />
    <glyph glyph-name="ecircumflex" unicode="&#xea;" 
d="M0 350q0 38 14.5 72t39.5 59.5t59 40t72 14.5h515v-42h-515q-30 0 -56 -11.5t-45.5 -31t-31 -45.5t-11.5 -56v-61h659v-41h-659v-62q0 -30 11.5 -56.5t31 -46t45.5 -31t56 -11.5h515v-41h-515q-38 0 -72 14.5t-59 40t-39.5 59t-14.5 72.5v164zM350 738l174 -86v-47
l-174 88l-174 -88v47z" />
    <glyph glyph-name="edieresis" unicode="&#xeb;" 
d="M0 350q0 38 14.5 72t39.5 59.5t59 40t72 14.5h515v-42h-515q-30 0 -56 -11.5t-45.5 -31t-31 -45.5t-11.5 -56v-61h659v-41h-659v-62q0 -30 11.5 -56.5t31 -46t45.5 -31t56 -11.5h515v-41h-515q-38 0 -72 14.5t-59 40t-39.5 59t-14.5 72.5v164zM247 647h41v-42h-41v42z
M412 647h41v-42h-41v42z" />
    <glyph glyph-name="igrave" unicode="&#xec;" horiz-adv-x="141" 
d="M0 536h41v-536h-41v536zM-115 739l273 -91v-43l-273 91v43z" />
    <glyph glyph-name="iacute" unicode="&#xed;" horiz-adv-x="141" 
d="M0 536h41v-536h-41v536zM-115 648l273 91v-43l-273 -91v43z" />
    <glyph glyph-name="icircumflex" unicode="&#xee;" horiz-adv-x="141" 
d="M0 536h41v-536h-41v536zM21 738l174 -86v-47l-174 88l-174 -88v47z" />
    <glyph glyph-name="idieresis" unicode="&#xef;" horiz-adv-x="141" 
d="M0 536h41v-536h-41v536zM-82 647h41v-42h-41v42zM83 647h41v-42h-41v42z" />
    <glyph glyph-name="ntilde" unicode="&#xf1;" 
d="M514 536q39 0 72.5 -14.5t59 -40t40 -59.5t14.5 -72v-350h-41v350q0 30 -11.5 56t-31 45.5t-46 31t-56.5 11.5h-473v-494h-41v536h514zM585 690q-6 -6 -18 -20t-29 -28t-38.5 -25t-46.5 -12h-2q-42 0 -68.5 15.5t-46.5 30.5q-19 16 -37 26t-53 10q-15 1 -28.5 -5.5
t-26 -17t-24 -23t-21.5 -24.5l-32 26q6 6 18 20t29 28t38.5 25.5t46.5 12.5q44 0 70.5 -15.5t46.5 -31.5q19 -15 37 -25t53 -11q15 -1 28.5 5.5t26 17t24 23.5t21.5 24z" />
    <glyph glyph-name="ograve" unicode="&#xf2;" 
d="M515 536q38 0 72 -14.5t59 -40t39.5 -59.5t14.5 -72v-164q0 -39 -14.5 -72.5t-39.5 -59t-59 -40t-72 -14.5h-329q-39 0 -72.5 14.5t-59 40t-40 59t-14.5 72.5v164q0 38 14.5 72t40 59.5t59 40t72.5 14.5h329zM659 350q0 30 -11.5 56t-31 45.5t-45.5 31t-56 11.5h-329
q-30 0 -56.5 -11.5t-46 -31t-31 -45.5t-11.5 -56v-164q0 -30 11.5 -56.5t31 -46t46 -31t56.5 -11.5h329q30 0 56 11.5t45.5 31t31 46t11.5 56.5v164zM214 739l273 -91v-43l-273 91v43z" />
    <glyph glyph-name="oacute" unicode="&#xf3;" 
d="M515 536q38 0 72 -14.5t59 -40t39.5 -59.5t14.5 -72v-164q0 -39 -14.5 -72.5t-39.5 -59t-59 -40t-72 -14.5h-329q-39 0 -72.5 14.5t-59 40t-40 59t-14.5 72.5v164q0 38 14.5 72t40 59.5t59 40t72.5 14.5h329zM659 350q0 30 -11.5 56t-31 45.5t-45.5 31t-56 11.5h-329
q-30 0 -56.5 -11.5t-46 -31t-31 -45.5t-11.5 -56v-164q0 -30 11.5 -56.5t31 -46t46 -31t56.5 -11.5h329q30 0 56 11.5t45.5 31t31 46t11.5 56.5v164zM214 648l273 91v-43l-273 -91v43z" />
    <glyph glyph-name="ocircumflex" unicode="&#xf4;" 
d="M515 536q38 0 72 -14.5t59 -40t39.5 -59.5t14.5 -72v-164q0 -39 -14.5 -72.5t-39.5 -59t-59 -40t-72 -14.5h-329q-39 0 -72.5 14.5t-59 40t-40 59t-14.5 72.5v164q0 38 14.5 72t40 59.5t59 40t72.5 14.5h329zM659 350q0 30 -11.5 56t-31 45.5t-45.5 31t-56 11.5h-329
q-30 0 -56.5 -11.5t-46 -31t-31 -45.5t-11.5 -56v-164q0 -30 11.5 -56.5t31 -46t46 -31t56.5 -11.5h329q30 0 56 11.5t45.5 31t31 46t11.5 56.5v164zM350 738l174 -86v-47l-174 88l-174 -88v47z" />
    <glyph glyph-name="otilde" unicode="&#xf5;" 
d="M515 536q38 0 72 -14.5t59 -40t39.5 -59.5t14.5 -72v-164q0 -39 -14.5 -72.5t-39.5 -59t-59 -40t-72 -14.5h-329q-39 0 -72.5 14.5t-59 40t-40 59t-14.5 72.5v164q0 38 14.5 72t40 59.5t59 40t72.5 14.5h329zM659 350q0 30 -11.5 56t-31 45.5t-45.5 31t-56 11.5h-329
q-30 0 -56.5 -11.5t-46 -31t-31 -45.5t-11.5 -56v-164q0 -30 11.5 -56.5t31 -46t46 -31t56.5 -11.5h329q30 0 56 11.5t45.5 31t31 46t11.5 56.5v164zM585 690q-6 -6 -18 -20t-29 -28t-38.5 -25t-46.5 -12h-2q-42 0 -68.5 15.5t-46.5 30.5q-19 16 -37 26t-53 10
q-15 1 -28.5 -5.5t-26 -17t-24 -23t-21.5 -24.5l-32 26q6 6 18 20t29 28t38.5 25.5t46.5 12.5q44 0 70.5 -15.5t46.5 -31.5q19 -15 37 -25t53 -11q15 -1 28.5 5.5t26 17t24 23.5t21.5 24z" />
    <glyph glyph-name="odieresis" unicode="&#xf6;" 
d="M515 536q38 0 72 -14.5t59 -40t39.5 -59.5t14.5 -72v-164q0 -39 -14.5 -72.5t-39.5 -59t-59 -40t-72 -14.5h-329q-39 0 -72.5 14.5t-59 40t-40 59t-14.5 72.5v164q0 38 14.5 72t40 59.5t59 40t72.5 14.5h329zM659 350q0 30 -11.5 56t-31 45.5t-45.5 31t-56 11.5h-329
q-30 0 -56.5 -11.5t-46 -31t-31 -45.5t-11.5 -56v-164q0 -30 11.5 -56.5t31 -46t46 -31t56.5 -11.5h329q30 0 56 11.5t45.5 31t31 46t11.5 56.5v164zM247 647h41v-42h-41v42zM412 647h41v-42h-41v42z" />
    <glyph glyph-name="oslash" unicode="&#xf8;" horiz-adv-x="799" 
d="M533 534q35 -3 65.5 -19t53 -40.5t35 -56.5t12.5 -68v-164q0 -39 -14.5 -72.5t-39.5 -59t-59 -40t-72 -14.5h-301l-37 -62h-49l39 63q-35 4 -65.5 19.5t-53 40.5t-35 57t-12.5 68v164q0 38 14.5 72t39.5 59.5t59 40t72 14.5h301l37 61h48zM658 350q0 30 -11.5 56
t-31 45.5t-45.5 31t-56 11.5h-4l-273 -453h277q30 0 56 11.5t45.5 31t31 46t11.5 56.5v164zM189 41l272 453h-276q-30 0 -56.5 -11.5t-46 -31t-30.5 -45.5t-11 -56v-164q0 -30 11 -56.5t30.5 -46t46 -31t56.5 -11.5h4z" />
    <glyph glyph-name="ugrave" unicode="&#xf9;" 
d="M659 536h41v-536h-515q-38 0 -72 14.5t-59 40t-39.5 59t-14.5 72.5v350h41v-350q0 -30 11.5 -56.5t31 -46t45.5 -31t56 -11.5h474v495zM214 739l273 -91v-43l-273 91v43z" />
    <glyph glyph-name="uacute" unicode="&#xfa;" 
d="M659 536h41v-536h-515q-38 0 -72 14.5t-59 40t-39.5 59t-14.5 72.5v350h41v-350q0 -30 11.5 -56.5t31 -46t45.5 -31t56 -11.5h474v495zM214 648l273 91v-43l-273 -91v43z" />
    <glyph glyph-name="ucircumflex" unicode="&#xfb;" 
d="M659 536h41v-536h-515q-38 0 -72 14.5t-59 40t-39.5 59t-14.5 72.5v350h41v-350q0 -30 11.5 -56.5t31 -46t45.5 -31t56 -11.5h474v495zM350 738l174 -86v-47l-174 88l-174 -88v47z" />
    <glyph glyph-name="udieresis" unicode="&#xfc;" 
d="M659 536h41v-536h-515q-38 0 -72 14.5t-59 40t-39.5 59t-14.5 72.5v350h41v-350q0 -30 11.5 -56.5t31 -46t45.5 -31t56 -11.5h474v495zM247 647h41v-42h-41v42zM412 647h41v-42h-41v42z" />
    <glyph glyph-name="yacute" unicode="&#xfd;" 
d="M659 536h41v-598q0 -39 -14.5 -72.5t-40 -59t-59 -40t-72.5 -14.5h-514v42h514q30 0 56.5 11t46 30.5t31 46t11.5 56.5v62h-474q-39 0 -72.5 14.5t-58.5 40t-39.5 59t-14.5 72.5v350h41v-350q0 -30 11 -56.5t30.5 -46t46 -31t56.5 -11.5h474v495zM214 648l273 91v-43
l-273 -91v43z" />
    <glyph glyph-name="ydieresis" unicode="&#xff;" 
d="M659 536h41v-598q0 -39 -14.5 -72.5t-40 -59t-59 -40t-72.5 -14.5h-514v42h514q30 0 56.5 11t46 30.5t31 46t11.5 56.5v62h-474q-39 0 -72.5 14.5t-58.5 40t-39.5 59t-14.5 72.5v350h41v-350q0 -30 11 -56.5t30.5 -46t46 -31t56.5 -11.5h474v495zM247 647h41v-42h-41v42z
M412 647h41v-42h-41v42z" />
    <glyph glyph-name="dotlessi" unicode="&#x131;" horiz-adv-x="141" 
d="M0 536h41v-536h-41v536z" />
    <glyph glyph-name="OE" unicode="&#x152;" horiz-adv-x="1871" 
d="M947 370h824v-40h-824v-144q0 -30 11.5 -56.5t31 -46t45.5 -31t56 -11.5h680v-41h-680q-54 0 -97.5 28t-66.5 73q-23 -45 -67 -73t-98 -28h-577q-38 0 -72 14.5t-59 40t-39.5 59t-14.5 72.5v329q0 38 14.5 72t39.5 59.5t59 40t72 14.5h577q54 0 98 -28t67 -73
q23 45 66.5 73t97.5 28h680v-42h-680q-30 0 -56 -11.5t-45.5 -31t-31 -45.5t-11.5 -56v-145zM906 515q0 30 -11.5 56t-31 45.5t-45.5 31t-56 11.5h-577q-30 0 -56 -11.5t-45.5 -31t-31 -45.5t-11.5 -56v-329q0 -30 11.5 -56.5t31 -46t45.5 -31t56 -11.5h577q30 0 56 11.5
t45.5 31t31 46t11.5 56.5v329z" />
    <glyph glyph-name="oe" unicode="&#x153;" horiz-adv-x="1459" 
d="M700 289h659v-41h-659v-62q0 -30 11 -56.5t30.5 -46t45.5 -31t56 -11.5h516v-41h-516q-54 0 -97.5 28t-66.5 73q-23 -45 -67 -73t-98 -28h-330q-38 0 -71.5 14.5t-58.5 40t-39.5 59t-14.5 72.5v164q0 38 14.5 72t39.5 59.5t58.5 40t71.5 14.5h330q54 0 98 -28t67 -73
q23 45 66.5 73t97.5 28h516v-42h-516q-30 0 -56 -11.5t-45.5 -31t-30.5 -45.5t-11 -56v-61zM659 350q0 30 -11.5 56t-31 45.5t-46 31t-56.5 11.5h-330q-30 0 -56 -11.5t-45.5 -31t-30.5 -45.5t-11 -56v-164q0 -30 11 -56.5t30.5 -46t45.5 -31t56 -11.5h330q30 0 56.5 11.5
t46 31t31 46t11.5 56.5v164z" />
    <glyph glyph-name="Ydieresis" unicode="&#x178;" horiz-adv-x="944" 
d="M844 700l-402 -360v-340h-41v340l-401 360h61l361 -322l361 322h61zM319 787h41v-42h-41v42zM484 787h41v-42h-41v42z" />
    <glyph glyph-name="circumflex" unicode="&#x2c6;" horiz-adv-x="448" 
d="M174 738l174 -86v-47l-174 88l-174 -88v47z" />
    <glyph glyph-name="ring" unicode="&#x2da;" horiz-adv-x="388" 
d="M144 784q30 0 56 -11.5t45.5 -31t31 -45.5t11.5 -56t-11.5 -56.5t-31 -46t-45.5 -31t-56 -11.5t-56 11.5t-45.5 31t-31 46t-11.5 56.5t11.5 56t31 45.5t45.5 31t56 11.5zM144 537q21 0 40 8t33 22t22.5 33t8.5 40t-8.5 40t-22.5 33t-33 22t-40 8t-40 -8t-33 -22t-22 -33
t-8 -40t8 -40t22 -33t33 -22t40 -8z" />
    <glyph glyph-name="tilde" unicode="&#x2dc;" horiz-adv-x="571" 
d="M471 690q-6 -6 -18 -20t-29 -28t-38.5 -25t-46.5 -12h-2q-42 0 -68.5 15.5t-46.5 30.5q-19 16 -37 26t-53 10q-15 1 -28.5 -5.5t-26 -17t-24 -23t-21.5 -24.5l-32 26q6 6 18 20t29 28t38.5 25.5t46.5 12.5q44 0 70.5 -15.5t46.5 -31.5q19 -15 37 -25t53 -11
q15 -1 28.5 5.5t26 17t24 23.5t21.5 24z" />
    <glyph glyph-name="endash" unicode="&#x2013;" horiz-adv-x="636" 
d="M0 289h536v-41h-536v41z" />
    <glyph glyph-name="emdash" unicode="&#x2014;" 
d="M0 289h700v-41h-700v41z" />
    <glyph glyph-name="quoteleft" unicode="&#x2018;" horiz-adv-x="224" 
d="M0 597q0 21 8 40t22.5 33.5t33.5 22.5t40 8h20v-42h-20q-26 0 -44 -18t-18 -44v-103h-42v103v0z" />
    <glyph glyph-name="quoteright" unicode="&#x2019;" horiz-adv-x="223" 
d="M82 701h41v-104q0 -21 -8 -39.5t-22 -33t-32.5 -22.5t-40.5 -8h-20v42h20q26 0 44 17.5t18 43.5v104z" />
    <glyph glyph-name="quotedblleft" unicode="&#x201c;" horiz-adv-x="389" 
d="M165 597q0 21 8 40t22 33.5t33 22.5t40 8h21v-42h-21q-26 0 -43.5 -18t-17.5 -44v-103h-42v103zM124 701v-42h-21q-26 0 -43.5 -18t-17.5 -44v-103h-42v103q0 21 8 40t22.5 33.5t33 22.5t39.5 8h21z" />
    <glyph glyph-name="quotedblright" unicode="&#x201d;" horiz-adv-x="389" 
d="M82 701h42v-104q0 -21 -8 -39.5t-22 -33t-33 -22.5t-40 -8h-21v42h21q26 0 43.5 17.5t17.5 43.5v104zM247 701h42v-104q0 -21 -8 -39.5t-22.5 -33t-33 -22.5t-39.5 -8h-21v42h21q26 0 43.5 17.5t17.5 43.5v104z" />
    <glyph glyph-name="bullet" unicode="&#x2022;" horiz-adv-x="306" 
d="M103 453q21 0 40 -8t33 -22t22 -33t8 -40t-8 -40t-22 -32.5t-33 -21.5t-40 -8t-40 8t-33 21.5t-22 32.5t-8 40t8 40t22 33t33 22t40 8z" />
    <glyph glyph-name="Euro" unicode="&#x20ac;" horiz-adv-x="1130" 
d="M1030 701v-42h-679q-30 0 -56.5 -11.5t-46 -31t-31 -45.5t-11.5 -56v-41h577v-42h-577v-164h577v-41h-577v-41q0 -30 11.5 -56.5t31 -46t46 -31t56.5 -11.5h679v-41h-679q-39 0 -72.5 14.5t-59 40t-40 59t-14.5 72.5v41h-165v41h165v164h-165v42h165v41q0 38 14.5 72
t40 59.5t59 40t72.5 14.5h679z" />
    <glyph glyph-name="trademark" unicode="&#x2122;" horiz-adv-x="986" 
d="M834 701h52v-289h-41v231l-154 -231h-43l-154 231v-231h-41v289h52l164 -247zM0 701h371v-42h-164v-247h-42v247h-165v42z" />
    </font>
</defs>
</svg>
